<svg width="332" height="236" viewBox="0 0 332 236" fill="none" xmlns="http://www.w3.org/2000/svg">
<g clip-path="url(#clip0_32_485)">
<path d="M16.0196 80.4216L0.01143 73.0983C-0.204503 65.2632 1.93764 57.5037 6.25184 50.4935C9.94261 64.0993 29.3659 70.5725 38.3275 82.452C41.0876 86.1745 42.781 90.3538 43.2821 94.6801C43.7832 99.0064 43.0793 103.369 41.2225 107.444L42.2753 117.993C34.0017 115.98 26.3637 112.535 19.8875 107.894C13.4113 103.252 8.2509 97.5261 4.76182 91.1092C2.84837 87.4935 1.50313 83.6966 0.757844 79.8079C8.22156 80.453 16.0196 80.4216 16.0196 80.4216Z" fill="#F2F2F2"/>
<path d="M303.794 213.651L304.285 204.687C309.402 202.465 315.11 201.292 320.912 201.268C312.926 206.571 313.924 216.793 308.51 223.924C306.801 226.137 304.5 228.01 301.778 229.403C299.056 230.796 295.983 231.674 292.787 231.972L286.104 235.295C285.187 231.143 285.389 226.879 286.697 222.796C288.004 218.714 290.385 214.91 293.677 211.647C295.546 209.832 297.689 208.215 300.055 206.834C301.656 210.262 303.794 213.651 303.794 213.651Z" fill="#F2F2F2"/>
<path d="M286.576 230.682L280.524 230.681L277.646 211.724L286.577 211.725L286.576 230.682Z" fill="#FFB6B6"/>
<path d="M288.119 235.446L268.607 235.445V235.245C268.608 233.609 269.408 232.04 270.832 230.883C272.256 229.726 274.188 229.077 276.202 229.076L279.766 226.88L286.416 229.077L288.119 229.077L288.119 235.446Z" fill="#2F2E41"/>
<path d="M258.463 230.682L252.412 230.681L249.533 211.724L258.464 211.725L258.463 230.682Z" fill="#FFB6B6"/>
<path d="M260.006 235.446L240.495 235.445V235.245C240.495 233.609 241.295 232.04 242.72 230.883C244.144 229.726 246.075 229.077 248.089 229.076L251.654 226.88L258.303 229.077L260.007 229.077L260.006 235.446Z" fill="#2F2E41"/>
<path d="M255.844 127.043L295.203 127.842C302.678 131.14 302.791 138.277 300.342 146.751C300.342 146.751 301.169 151.788 299.515 153.131C297.861 154.474 297.035 154.474 297.861 156.825C298.688 159.175 294.32 163.014 294.85 163.445C295.381 163.876 296.621 166.226 296.621 166.226L292.487 185.366C292.487 185.366 289.593 218.608 288.766 219.279C287.94 219.951 287.113 219.279 287.939 220.958C288.766 222.637 289.593 221.966 288.766 222.637C288.034 223.279 287.344 223.951 286.699 224.652H276.704C276.704 224.652 275.951 221.294 275.951 220.958C275.951 220.623 275.124 218.608 275.124 218.272C275.124 217.936 275.855 217.343 275.855 217.343C276.107 216.66 276.278 215.959 276.364 215.25C276.364 214.578 278.844 188.724 278.844 188.724L273.883 155.146L261.894 188.052C261.894 188.052 261.894 216.929 261.068 217.601C260.241 218.272 260.241 217.936 260.654 219.279C261.068 220.623 262.721 220.287 261.481 221.294C260.241 222.301 259.827 220.623 260.241 222.301L260.654 223.98L248.252 224.124C248.252 224.124 246.598 221.294 247.425 220.287C248.252 219.279 248.202 219.554 247.193 217.906C246.185 216.257 245.771 215.922 246.185 215.586C246.598 215.25 246.598 213.464 246.598 213.464L248.665 181.336C248.665 181.336 249.079 147.423 249.079 146.415C249.11 145.897 248.992 145.38 248.735 144.905V143.538L250.319 138.693L255.844 127.043Z" fill="#2F2E41"/>
<path d="M279.487 60.5717C286.241 60.5717 291.716 56.1247 291.716 50.6392C291.716 45.1536 286.241 40.7067 279.487 40.7067C272.733 40.7067 267.258 45.1536 267.258 50.6392C267.258 56.1247 272.733 60.5717 279.487 60.5717Z" fill="#FFB6B6"/>
<path d="M273.373 67.1363C270.738 68.4085 269.162 70.7459 268.257 73.1243C266.583 77.5278 265.574 82.0806 265.255 86.6822L264.3 100.458L252.465 129.792C262.722 136.84 301.275 131.394 301.275 131.394C301.275 131.394 302.458 131.073 301.275 130.112C300.091 129.151 298.939 130.002 300.122 129.041C301.306 128.08 300.49 129.151 300.096 128.19C299.701 127.228 300.096 127.869 300.49 127.549C300.885 127.228 297.436 124.345 297.436 124.345L300.592 107.507L304.537 73.5444C299.803 68.7383 290.283 65.9052 290.283 65.9052L287.823 62.3088L275.523 63.108L273.373 67.1363Z" fill="#E6E6E6"/>
<path d="M271.696 44.81C272.169 44.813 272.64 44.8632 273.098 44.9594C274.001 45.1358 274.918 45.2607 275.843 45.3333C278.674 45.5496 281.334 46.5302 283.398 48.1185C285.462 49.7068 286.812 51.8112 287.231 54.0955C287.942 53.5923 289.559 52.6667 290.884 53.5269C290.904 53.5406 290.916 53.5476 290.962 53.5296C291.843 53.1905 293.405 49.0163 293.452 45.3409C293.477 43.3901 293.099 40.8991 291.157 40.1103L291.054 40.0687L291.028 39.9784C290.898 39.5395 289.448 38.7905 286.928 38.2075C282.348 37.148 275.522 35.0842 271.677 38.1215C271.387 39.1455 270.44 41.3367 269.484 41.5851C268.425 41.86 267.511 42.0973 267.367 43.1521C267.247 44.6531 267.255 46.1592 267.393 47.6592C267.752 46.7413 268.456 45.9379 269.406 45.3622C270.082 44.9926 270.881 44.8 271.696 44.81Z" fill="#2F2E41"/>
<path d="M248.934 99.6914L268.91 89.3006L258.849 78.4375L248.914 88.3634L217.959 89.9054C217.144 89.2517 216.114 88.8046 214.992 88.6185C213.87 88.4324 212.706 88.5154 211.642 88.8573C210.577 89.1993 209.658 89.7855 208.996 90.5444C208.335 91.3032 207.96 92.2021 207.916 93.1312C207.873 94.0604 208.163 94.9798 208.752 95.7773C209.34 96.5747 210.202 97.2158 211.232 97.6224C212.261 98.029 213.414 98.1834 214.55 98.067C215.686 97.9505 216.756 97.5682 217.628 96.9665L248.934 99.6914Z" fill="#FFB6B6"/>
<path d="M287.45 74.7971C288.61 80.496 266.715 91.3784 266.715 91.3784C266.715 90.0408 253.647 100.139 253.058 99.0296C251.381 95.8766 250.203 88.4088 247.86 87.2135C246.52 86.5299 255.928 80.1084 255.928 80.1084C255.928 80.1084 260.853 76.079 267.315 70.9964C269.109 69.532 271.331 68.4601 273.772 67.8804C276.214 67.3008 278.796 67.2323 281.279 67.6813C281.279 67.6813 286.291 69.0982 287.45 74.7971Z" fill="#E6E6E6"/>
<path d="M328.625 102.419L315.411 86.4177L302.252 94.8178L314.681 102.675L317.235 127.779C316.447 128.454 315.919 129.3 315.713 130.215C315.508 131.13 315.635 132.073 316.078 132.931C316.522 133.788 317.263 134.522 318.211 135.043C319.159 135.564 320.273 135.85 321.418 135.865C322.563 135.881 323.688 135.626 324.657 135.131C325.626 134.636 326.397 133.922 326.876 133.078C327.355 132.233 327.52 131.294 327.353 130.374C327.186 129.454 326.692 128.594 325.933 127.897L328.625 102.419Z" fill="#FFB6B6"/>
<path d="M297.166 71.6694C304.156 70.6073 318.015 88.1557 318.015 88.1557C316.369 88.1843 329.076 98.5817 327.723 99.0842C323.877 100.512 314.71 101.627 313.288 103.555C312.475 104.657 304.371 97.1538 304.371 97.1538C304.371 97.1538 299.307 93.2403 292.914 88.1002C291.073 86.6743 289.707 84.8933 288.942 82.9231C288.176 80.9528 288.037 78.8573 288.537 76.8317C288.537 76.8317 290.175 72.7315 297.166 71.6694Z" fill="#E6E6E6"/>
<path d="M332 235.524C332 235.587 331.985 235.649 331.956 235.707C331.926 235.764 331.883 235.817 331.829 235.861C331.774 235.905 331.71 235.94 331.639 235.964C331.568 235.988 331.491 236 331.414 236H193.516C193.361 236 193.212 235.95 193.102 235.861C192.992 235.772 192.931 235.651 192.931 235.524C192.931 235.398 192.992 235.277 193.102 235.188C193.212 235.099 193.361 235.049 193.516 235.049H331.414C331.491 235.049 331.568 235.061 331.639 235.085C331.71 235.109 331.774 235.144 331.829 235.188C331.883 235.232 331.926 235.285 331.956 235.342C331.985 235.4 332 235.462 332 235.524Z" fill="#CCCCCC"/>
<path d="M204.253 91.4241H36.8947C34.28 91.4265 31.7732 92.2712 29.9243 93.7728C28.0754 95.2745 27.0354 97.3106 27.0325 99.4343V184.064C27.0354 186.187 28.0754 188.223 29.9243 189.725C31.7732 191.227 34.28 192.071 36.8947 192.074H204.253C206.868 192.071 209.374 191.227 211.223 189.725C213.072 188.223 214.112 186.187 214.115 184.064V99.4343C214.112 97.3106 213.072 95.2745 211.223 93.7728C209.375 92.2711 206.868 91.4264 204.253 91.4241Z" fill="#10B981"/>
<path d="M204.253 91.4241H36.8947C34.28 91.4265 31.7732 92.2712 29.9243 93.7728C28.0754 95.2745 27.0354 97.3106 27.0325 99.4343V184.064C27.0354 186.187 28.0754 188.223 29.9243 189.725C31.7732 191.227 34.28 192.071 36.8947 192.074H204.253C206.868 192.071 209.374 191.227 211.223 189.725C213.072 188.223 214.112 186.187 214.115 184.064V99.4343C214.112 97.3106 213.072 95.2745 211.223 93.7728C209.375 92.2711 206.868 91.4264 204.253 91.4241ZM207.49 152.214C207.45 160.83 203.254 169.09 195.802 175.222C188.35 181.354 178.236 184.87 167.63 185.015C150.648 185.194 177.025 185.264 156.544 185.264C109.711 185.264 60.877 184.901 42.6564 184.665C40.2591 184.625 37.9762 183.825 36.2949 182.437C34.6137 181.048 33.6675 179.181 33.6582 177.233V99.4405C33.6591 98.7431 34.0001 98.0744 34.6065 97.5807C35.2129 97.087 36.0354 96.8084 36.894 96.8059H204.246C205.105 96.8067 205.928 97.0836 206.536 97.576C207.143 98.0684 207.486 98.7362 207.49 99.4335V152.214Z" fill="#3F3D56"/>
<path d="M183.652 42.6918H56.1422C55.014 42.6931 53.9138 42.9772 52.9918 43.5052C52.0698 44.0333 51.3709 44.7796 50.9906 45.6423L31.2976 90.5167C31.0037 91.1865 30.9121 91.9038 31.0304 92.6083C31.1487 93.3129 31.4735 93.9841 31.9776 94.5655C32.4816 95.1469 33.1501 95.6215 33.9269 95.9495C34.7037 96.2774 35.5661 96.4491 36.4415 96.4502L207.453 96.6967H207.46C208.365 96.6966 209.256 96.5142 210.053 96.1657C210.85 95.8172 211.528 95.3135 212.026 94.6999C212.524 94.0862 212.827 93.3817 212.907 92.6496C212.988 91.9174 212.843 91.1805 212.487 90.5049L188.678 45.384C188.258 44.5845 187.557 43.9032 186.663 43.4245C185.769 42.9459 184.722 42.6911 183.652 42.6918Z" fill="#3F3D56"/>
<path d="M212.93 91.4794C212.929 92.0811 212.778 92.6765 212.487 93.2296L188.68 127.962C188.256 128.76 187.554 129.44 186.661 129.917C185.767 130.395 184.721 130.65 183.652 130.652H56.144C55.0154 130.651 53.9147 130.367 52.9919 129.839C52.0692 129.311 51.3694 128.565 50.988 127.703L31.2988 93.2176C31.0575 92.6682 30.9518 92.0856 30.9878 91.503C31.0239 90.9204 31.201 90.3493 31.5089 89.8223C31.8169 89.2953 32.2497 88.8228 32.7826 88.4318C33.3155 88.0407 33.9381 87.7389 34.6148 87.5434C35.2001 87.3717 35.8177 87.2838 36.44 87.2836L57.3297 87.2517L65.8558 87.2397L178.048 87.0799L186.579 87.0679L207.454 87.0359H207.459C208.91 87.0361 210.301 87.5043 211.327 88.3376C212.353 89.1708 212.929 90.3009 212.93 91.4794Z" fill="#3F3D56"/>
<path d="M49.4412 154.906C51.9697 154.906 86.6913 156.629 86.6913 158.683C86.6913 160.737 51.9697 162.343 49.4412 162.343C48.227 162.343 47.0625 161.951 46.204 161.254C45.3454 160.556 44.863 159.611 44.863 158.624C44.863 157.638 45.3454 156.692 46.204 155.995C47.0625 155.298 48.227 154.906 49.4412 154.906Z" fill="#3F3D56"/>
<path d="M175.711 15.3926H68.1978C65.3164 15.3953 62.5541 16.3261 60.5167 17.9809C58.4793 19.6357 57.3332 21.8794 57.3298 24.2196V130.652H183.652C184.689 130.654 185.705 130.414 186.579 129.96V24.2196C186.576 21.8794 185.43 19.6358 183.392 17.9809C181.355 16.3261 178.592 15.3953 175.711 15.3926Z" fill="#E6E6E6"/>
<path d="M134.675 22.5493H75.7547C73.131 22.5514 70.6155 23.3986 68.7598 24.905C66.9041 26.4115 65.8598 28.4542 65.856 30.5852V130.652H178.048V57.7776C178.035 48.4378 173.461 39.4836 165.33 32.8793C157.198 26.2751 146.174 22.5601 134.675 22.5493Z" fill="white"/>
<path d="M158.934 121.765H84.9696C84.3302 121.765 83.717 121.971 83.2649 122.338C82.8128 122.705 82.5588 123.203 82.5588 123.723C82.5588 124.242 82.8128 124.74 83.2649 125.107C83.717 125.474 84.3302 125.681 84.9696 125.681H158.934C159.574 125.681 160.187 125.474 160.639 125.107C161.091 124.74 161.345 124.242 161.345 123.723C161.345 123.203 161.091 122.705 160.639 122.338C160.187 121.971 159.574 121.765 158.934 121.765Z" fill="#E4E4E4"/>
<path d="M158.934 114.021H84.9693C84.3293 114.021 83.7155 114.227 83.263 114.595C82.8104 114.962 82.5562 115.461 82.5562 115.981C82.5562 116.5 82.8104 116.999 83.263 117.366C83.7155 117.734 84.3293 117.941 84.9693 117.941H158.934C159.574 117.941 160.188 117.734 160.641 117.366C161.093 116.999 161.347 116.5 161.347 115.981C161.347 115.461 161.093 114.962 160.641 114.595C160.188 114.227 159.574 114.021 158.934 114.021Z" fill="#E4E4E4"/>
<path d="M117.032 106.28H84.9693C84.33 106.28 83.7168 106.487 83.2647 106.854C82.8126 107.221 82.5586 107.719 82.5586 108.238C82.5586 108.758 82.8126 109.256 83.2647 109.623C83.7168 109.99 84.33 110.196 84.9693 110.196H117.032C117.671 110.196 118.284 109.99 118.737 109.623C119.189 109.256 119.443 108.758 119.443 108.238C119.443 107.719 119.189 107.221 118.737 106.854C118.284 106.487 117.671 106.28 117.032 106.28Z" fill="#E4E4E4"/>
<path d="M158.934 90.0648H84.9693C84.3293 90.0648 83.7155 90.2713 83.263 90.6389C82.8104 91.0065 82.5562 91.505 82.5562 92.0248C82.5562 92.5447 82.8104 93.0432 83.263 93.4108C83.7155 93.7783 84.3293 93.9848 84.9693 93.9848H158.934C159.574 93.9848 160.188 93.7783 160.641 93.4108C161.093 93.0432 161.347 92.5447 161.347 92.0248C161.347 91.505 161.093 91.0065 160.641 90.6389C160.188 90.2713 159.574 90.0648 158.934 90.0648Z" fill="#E4E4E4"/>
<path d="M158.934 82.3247H84.9696C84.3302 82.3247 83.717 82.531 83.2649 82.8982C82.8128 83.2654 82.5588 83.7634 82.5588 84.2827C82.5588 84.802 82.8128 85.3 83.2649 85.6672C83.717 86.0344 84.3302 86.2407 84.9696 86.2407H158.934C159.574 86.2407 160.187 86.0344 160.639 85.6672C161.091 85.3 161.345 84.802 161.345 84.2827C161.345 83.7634 161.091 83.2654 160.639 82.8982C160.187 82.531 159.574 82.3247 158.934 82.3247Z" fill="#E4E4E4"/>
<path d="M117.032 74.5806H84.9693C84.3293 74.5806 83.7155 74.7871 83.263 75.1546C82.8104 75.5222 82.5562 76.0207 82.5562 76.5406C82.5562 77.0604 82.8104 77.5589 83.263 77.9265C83.7155 78.2941 84.3293 78.5006 84.9693 78.5006H117.032C117.672 78.5006 118.286 78.2941 118.738 77.9265C119.191 77.5589 119.445 77.0604 119.445 76.5406C119.445 76.0207 119.191 75.5222 118.738 75.1546C118.286 74.7871 117.672 74.5806 117.032 74.5806Z" fill="#E4E4E4"/>
<path d="M158.934 58.365H84.9693C84.3293 58.365 83.7155 58.5715 83.263 58.9391C82.8104 59.3066 82.5562 59.8052 82.5562 60.325C82.5562 60.8448 82.8104 61.3434 83.263 61.7109C83.7155 62.0785 84.3293 62.285 84.9693 62.285H158.934C159.574 62.285 160.188 62.0785 160.641 61.7109C161.093 61.3434 161.347 60.8448 161.347 60.325C161.347 59.8052 161.093 59.3066 160.641 58.9391C160.188 58.5715 159.574 58.365 158.934 58.365Z" fill="#10B981"/>
<path d="M158.934 50.6248H84.9693C84.3293 50.6248 83.7155 50.8313 83.263 51.1989C82.8104 51.5665 82.5562 52.065 82.5562 52.5848C82.5562 53.1047 82.8104 53.6032 83.263 53.9708C83.7155 54.3383 84.3293 54.5448 84.9693 54.5448H158.934C159.574 54.5448 160.188 54.3383 160.641 53.9708C161.093 53.6032 161.347 53.1047 161.347 52.5848C161.347 52.065 161.093 51.5665 160.641 51.1989C160.188 50.8313 159.574 50.6248 158.934 50.6248Z" fill="#10B981"/>
<path d="M117.032 42.8807H84.9693C84.3293 42.8807 83.7155 43.0872 83.263 43.4548C82.8104 43.8223 82.5562 44.3209 82.5562 44.8407C82.5562 45.3605 82.8104 45.859 83.263 46.2266C83.7155 46.5942 84.3293 46.8007 84.9693 46.8007H117.032C117.672 46.8007 118.286 46.5942 118.738 46.2266C119.191 45.859 119.445 45.3605 119.445 44.8407C119.445 44.3209 119.191 43.8223 118.738 43.4548C118.286 43.0872 117.672 42.8807 117.032 42.8807Z" fill="#10B981"/>
<path d="M182.548 30.4993C192.918 30.4993 201.324 23.6718 201.324 15.2497C201.324 6.8275 192.918 0 182.548 0C172.179 0 163.773 6.8275 163.773 15.2497C163.773 23.6718 172.179 30.4993 182.548 30.4993Z" fill="#10B981"/>
<path d="M179.987 23.1864C179.663 23.1864 179.343 23.125 179.053 23.0072C178.763 22.8895 178.511 22.7184 178.316 22.5077L173.194 16.9605C173.029 16.7823 172.908 16.5794 172.839 16.3634C172.771 16.1473 172.755 15.9224 172.794 15.7014C172.832 15.4805 172.924 15.2679 173.064 15.0758C173.203 14.8837 173.389 14.7159 173.608 14.582C173.828 14.4481 174.078 14.3508 174.345 14.2955C174.611 14.2403 174.888 14.2283 175.16 14.2602C175.432 14.292 175.693 14.3672 175.929 14.4813C176.165 14.5954 176.371 14.7462 176.536 14.9251L179.887 18.5539L188.494 8.06801C188.801 7.69367 189.279 7.4338 189.822 7.34557C190.365 7.25734 190.929 7.34797 191.39 7.59753C191.851 7.84709 192.171 8.23513 192.28 8.67629C192.388 9.11746 192.277 9.5756 191.969 9.94993L181.725 22.431C181.54 22.6567 181.29 22.843 180.998 22.9744C180.706 23.1057 180.379 23.1782 180.045 23.1858C180.026 23.1861 180.006 23.1864 179.987 23.1864Z" fill="white"/>
</g>
<defs>
<clipPath id="clip0_32_485">
<rect width="332" height="236" fill="white"/>
</clipPath>
</defs>
</svg>
