<svg width="349" height="286" viewBox="0 0 349 286" fill="none" xmlns="http://www.w3.org/2000/svg">
<g clip-path="url(#clip0_550_624)">
<path d="M278.616 52.0956C276.803 72.2785 271.638 93.5602 263.537 114.094C253.52 139.487 239.835 161.854 223.959 178.775L223.078 177.998C238.877 161.159 252.5 138.891 262.475 113.603C271.491 90.7509 276.853 66.9696 277.989 44.8408L279.115 45.0313C278.996 47.3683 278.829 49.7231 278.616 52.0956Z" fill="#F2F2F2"/>
<path d="M285.836 169.314C263.538 205.157 236.486 230.767 209.662 241.426L209.119 240.421C235.757 229.836 262.651 204.357 284.848 168.677L285.836 169.314Z" fill="#F2F2F2"/>
<path d="M278.074 77.224C276.261 97.4069 271.096 118.689 262.996 139.223C252.979 164.616 239.293 186.982 223.418 203.903L222.537 203.127C238.335 186.287 251.959 164.02 261.934 138.732C270.949 115.879 276.311 92.098 277.448 69.9692L278.574 70.1597C278.454 72.4968 278.288 74.8516 278.074 77.224Z" fill="#F2F2F2"/>
<path d="M27.7508 129.04H13.1206C12.808 129.04 12.4994 128.97 12.2178 128.832C11.9362 128.695 11.6889 128.496 11.4946 128.248C11.3026 128.007 11.1672 127.725 11.0985 127.424C11.0297 127.122 11.0295 126.809 11.0977 126.507C12.4911 120.295 12.4035 113.838 10.8423 107.666C10.7436 107.26 10.7674 106.833 10.9109 106.441C11.0543 106.048 11.3107 105.708 11.6471 105.464C19.17 99.9973 25.0945 100.156 29.2562 105.936C29.4438 106.2 29.5684 106.504 29.6203 106.824C30.7323 113.578 30.7938 120.467 29.8027 127.24C29.7338 127.74 29.488 128.198 29.1107 128.529C28.7335 128.86 28.2503 129.041 27.7508 129.04Z" fill="#E6E6E6"/>
<path d="M23.215 114.237H18.1822C17.9038 114.237 17.6369 114.125 17.4401 113.926C17.2434 113.727 17.1328 113.458 17.1328 113.176C17.1328 112.895 17.2434 112.626 17.4401 112.427C17.6369 112.228 17.9038 112.116 18.1822 112.116H23.215C23.4929 112.117 23.7592 112.229 23.9555 112.428C24.1519 112.626 24.2621 112.896 24.2621 113.176C24.2621 113.457 24.1519 113.727 23.9555 113.925C23.7592 114.124 23.4929 114.236 23.215 114.237Z" fill="white"/>
<path d="M23.215 117.955H18.1822C17.9038 117.955 17.6369 117.843 17.4401 117.644C17.2434 117.446 17.1328 117.176 17.1328 116.895C17.1328 116.614 17.2434 116.344 17.4401 116.145C17.6369 115.946 17.9038 115.834 18.1822 115.834H23.215C23.4929 115.835 23.7592 115.947 23.9555 116.146C24.1519 116.345 24.2621 116.614 24.2621 116.895C24.2621 117.176 24.1519 117.445 23.9555 117.644C23.7592 117.842 23.4929 117.954 23.215 117.955Z" fill="white"/>
<path d="M23.215 121.673H18.1822C17.9038 121.673 17.6369 121.562 17.4401 121.363C17.2434 121.164 17.1328 120.894 17.1328 120.613C17.1328 120.332 17.2434 120.062 17.4401 119.863C17.6369 119.664 17.9038 119.553 18.1822 119.553H23.215C23.4929 119.553 23.7592 119.665 23.9555 119.864C24.1519 120.063 24.2621 120.332 24.2621 120.613C24.2621 120.894 24.1519 121.163 23.9555 121.362C23.7592 121.561 23.4929 121.673 23.215 121.673Z" fill="white"/>
<path d="M293.64 195.04H279.01C278.697 195.041 278.388 194.97 278.107 194.833C277.825 194.696 277.578 194.496 277.384 194.249C277.192 194.008 277.056 193.726 276.987 193.425C276.919 193.123 276.918 192.81 276.987 192.508C278.38 186.296 278.292 179.838 276.731 173.667C276.632 173.261 276.656 172.834 276.8 172.441C276.943 172.049 277.2 171.709 277.536 171.465C285.059 165.998 290.983 166.157 295.145 171.937C295.333 172.201 295.457 172.504 295.509 172.825C296.621 179.579 296.683 186.467 295.692 193.241C295.623 193.741 295.377 194.199 295 194.529C294.622 194.86 294.139 195.042 293.64 195.04Z" fill="#E6E6E6"/>
<path d="M289.104 180.237H284.071C283.793 180.237 283.527 180.125 283.331 179.926C283.134 179.727 283.024 179.458 283.024 179.177C283.024 178.896 283.134 178.627 283.331 178.428C283.527 178.229 283.793 178.118 284.071 178.117H289.104C289.382 178.117 289.649 178.229 289.846 178.427C290.043 178.626 290.153 178.896 290.153 179.177C290.153 179.458 290.043 179.728 289.846 179.927C289.649 180.126 289.382 180.237 289.104 180.237Z" fill="white"/>
<path d="M289.104 183.956H284.071C283.793 183.955 283.527 183.843 283.331 183.644C283.134 183.446 283.024 183.176 283.024 182.895C283.024 182.615 283.134 182.345 283.331 182.147C283.527 181.948 283.793 181.836 284.071 181.835H289.104C289.382 181.835 289.649 181.947 289.846 182.146C290.043 182.345 290.153 182.614 290.153 182.895C290.153 183.177 290.043 183.446 289.846 183.645C289.649 183.844 289.382 183.956 289.104 183.956Z" fill="white"/>
<path d="M289.104 187.674H284.071C283.793 187.673 283.527 187.561 283.331 187.363C283.134 187.164 283.024 186.895 283.024 186.614C283.024 186.333 283.134 186.064 283.331 185.865C283.527 185.666 283.793 185.554 284.071 185.553H289.104C289.382 185.553 289.649 185.665 289.846 185.864C290.043 186.063 290.153 186.333 290.153 186.614C290.153 186.895 290.043 187.165 289.846 187.363C289.649 187.562 289.382 187.674 289.104 187.674Z" fill="white"/>
<path d="M349 285.447C349 285.52 348.986 285.592 348.959 285.659C348.931 285.726 348.891 285.787 348.84 285.838C348.789 285.89 348.729 285.931 348.662 285.958C348.596 285.986 348.525 286 348.453 286H0.54742C0.402235 286 0.263002 285.942 0.160341 285.838C0.0576805 285.734 0 285.594 0 285.447C0 285.3 0.0576805 285.16 0.160341 285.056C0.263002 284.952 0.402235 284.894 0.54742 284.894H348.453C348.525 284.894 348.596 284.908 348.662 284.935C348.729 284.963 348.789 285.004 348.84 285.055C348.891 285.107 348.931 285.168 348.959 285.235C348.986 285.302 349 285.374 349 285.447Z" fill="#CCCCCC"/>
<path d="M91.7747 251.582L90.8623 238.759C84.8851 235.74 78.2689 234.241 71.5881 234.392C80.987 241.732 80.2342 256.403 86.7434 266.444C88.7973 269.56 91.5189 272.168 94.7063 274.077C97.8938 275.986 101.466 277.145 105.157 277.469L112.979 282.016C113.874 276.041 113.476 269.94 111.812 264.135C110.149 258.33 107.26 252.959 103.344 248.39C101.122 245.849 98.5926 243.602 95.8147 241.699C94.1049 246.659 91.7747 251.582 91.7747 251.582Z" fill="#F2F2F2"/>
<path d="M257.225 253.441L258.138 240.618C264.115 237.599 270.731 236.1 277.412 236.251C268.013 243.591 268.766 258.262 262.257 268.303C260.203 271.419 257.481 274.028 254.294 275.936C251.106 277.845 247.534 279.004 243.843 279.329L236.021 283.875C235.126 277.9 235.524 271.8 237.188 265.994C238.851 260.189 241.74 254.818 245.656 250.249C247.878 247.709 250.407 245.461 253.185 243.559C254.895 248.518 257.225 253.441 257.225 253.441Z" fill="#F2F2F2"/>
<path d="M170.36 108.735C175.187 108.735 179.1 104.781 179.1 99.9038C179.1 95.0266 175.187 91.0728 170.36 91.0728C165.533 91.0728 161.62 95.0266 161.62 99.9038C161.62 104.781 165.533 108.735 170.36 108.735Z" fill="#10B981"/>
<path d="M174.847 96.2233C174.715 96.0966 174.54 96.0259 174.359 96.0259C174.177 96.0259 174.002 96.0966 173.871 96.2233C172.016 97.7178 170.35 99.4369 168.911 101.342C168.558 100.651 168.204 99.9603 167.851 99.2694C167.443 98.4719 166.252 99.1764 166.659 99.9732C167.176 100.984 167.693 101.994 168.21 103.005C168.272 103.108 168.36 103.193 168.464 103.252C168.568 103.311 168.686 103.342 168.806 103.342C168.925 103.342 169.043 103.311 169.147 103.252C169.252 103.193 169.339 103.108 169.401 103.005C170.935 100.822 172.769 98.8705 174.847 97.2093C174.975 97.078 175.047 96.9009 175.047 96.7163C175.047 96.5317 174.975 96.3546 174.847 96.2233Z" fill="white"/>
<path d="M131.251 124.946L118.071 104.032L133.334 95.7734L137.339 111.73L165.564 127.14C166.678 126.735 167.885 126.666 169.037 126.942C170.19 127.218 171.238 127.826 172.054 128.694C172.87 129.561 173.418 130.649 173.632 131.826C173.847 133.003 173.717 134.217 173.26 135.321C172.803 136.425 172.038 137.371 171.058 138.043C170.079 138.715 168.927 139.085 167.742 139.107C166.558 139.129 165.394 138.802 164.39 138.167C163.386 137.531 162.588 136.615 162.091 135.529L131.251 124.946Z" fill="#A0616A"/>
<path d="M108.442 78.9481C104.301 85.0916 119.018 107.423 119.018 107.423C119.735 105.861 126.588 123.396 127.736 122.36C130.999 119.416 136.106 111.216 138.944 110.85C140.568 110.641 135.179 99.0081 135.179 99.0081C135.179 99.0081 132.716 92.1387 129.375 83.3638C128.475 80.8652 126.965 78.6372 124.984 76.8871C123.004 75.1369 120.617 73.9216 118.046 73.3542C118.046 73.3542 112.583 72.8046 108.442 78.9481Z" fill="#3F3D56"/>
<path d="M108.644 279.105L114.904 279.104L117.881 254.709L108.643 254.71L108.644 279.105Z" fill="#A0616A"/>
<path d="M107.047 277.04L108.809 277.04L115.688 274.213L119.374 277.039H119.375C121.458 277.039 123.456 277.876 124.93 279.364C126.403 280.853 127.231 282.871 127.231 284.977V285.234L107.047 285.235L107.047 277.04Z" fill="#2F2E41"/>
<path d="M137.725 279.105L143.984 279.104L146.962 254.709L137.724 254.71L137.725 279.105Z" fill="#A0616A"/>
<path d="M136.128 277.04L137.89 277.04L144.768 274.213L148.455 277.039H148.456C150.539 277.039 152.537 277.876 154.01 279.364C155.484 280.853 156.311 282.871 156.312 284.977V285.234L136.128 285.235L136.128 277.04Z" fill="#2F2E41"/>
<path d="M140.434 145.737L99.7194 146.765C91.9868 151.009 91.8694 160.194 94.403 171.099C94.403 171.099 93.5477 177.58 95.2583 179.308C96.9689 181.037 97.8242 181.037 96.9689 184.062C96.1136 187.086 100.633 192.026 100.084 192.581C99.5349 193.136 98.2519 196.16 98.2519 196.16L102.528 220.79C102.528 220.79 105.522 263.568 106.377 264.432C107.233 265.296 108.088 264.432 107.233 266.592C106.377 268.753 105.522 267.889 106.377 268.753C107.135 269.578 107.849 270.444 108.516 271.345H118.855C118.855 271.345 119.635 267.024 119.635 266.592C119.635 266.16 120.49 263.568 120.49 263.136C120.49 262.703 119.734 261.94 119.734 261.94C119.473 261.061 119.296 260.159 119.207 259.247C119.207 258.382 116.641 225.111 116.641 225.111L121.773 181.901L134.175 224.247C134.175 224.247 134.175 261.407 135.03 262.271C135.886 263.136 135.886 262.703 135.458 264.432C135.03 266.16 133.32 265.728 134.603 267.024C135.886 268.321 136.313 266.16 135.886 268.321L135.458 270.481L148.288 270.667C148.288 270.667 149.998 267.024 149.143 265.728C148.288 264.432 148.339 264.786 149.382 262.664C150.426 260.543 150.854 260.111 150.426 259.679C149.998 259.247 149.998 256.948 149.998 256.948L147.86 215.605C147.86 215.605 147.432 171.963 147.432 170.666C147.4 169.999 147.522 169.334 147.788 168.723V166.963L146.149 160.728L140.434 145.737Z" fill="#2F2E41"/>
<path d="M115.976 60.1977C122.963 60.1977 128.627 54.4751 128.627 47.416C128.627 40.3568 122.963 34.6343 115.976 34.6343C108.99 34.6343 103.326 40.3568 103.326 47.416C103.326 54.4751 108.99 60.1977 115.976 60.1977Z" fill="#A0616A"/>
<path d="M122.301 68.6456C125.027 70.2827 126.657 73.2906 127.593 76.3513C129.325 82.0179 130.368 87.8767 130.698 93.7983L131.687 111.526L143.929 149.274C133.319 158.345 93.4382 151.335 93.4382 151.335C93.4382 151.335 92.2139 150.923 93.4382 149.686C94.6624 148.449 95.8542 149.545 94.63 148.308C93.4058 147.071 94.2497 148.449 94.6578 147.212C95.0658 145.975 94.6578 146.8 94.2497 146.388C93.8416 145.975 97.4088 142.265 97.4088 142.265L94.1442 120.597L90.0635 76.8919C94.9604 70.7072 104.809 67.0613 104.809 67.0613L107.353 62.4333L120.077 63.4618L122.301 68.6456Z" fill="#3F3D56"/>
<path d="M126.404 40.6254C127.388 41.3664 128.116 42.4002 128.487 43.5814C128.63 41.6511 128.639 39.713 128.514 37.7814C128.365 36.424 127.419 36.1187 126.324 35.7649C125.335 35.4453 124.217 35.0843 123.916 33.7666C119.939 29.8579 113.017 30.055 108.279 31.4184C105.673 32.1687 104.173 33.1326 104.038 33.6973L104.011 33.8135L103.905 33.867C101.895 34.8821 101.504 38.0877 101.53 40.5981C101.579 45.3277 103.195 50.6994 104.106 51.1358C104.154 51.1589 104.166 51.1499 104.187 51.1323C105.558 50.0253 107.231 51.2164 107.966 51.864C108.399 48.9244 109.795 46.2164 111.931 44.1725C114.066 42.1286 116.818 40.8667 119.746 40.5883C120.703 40.4949 121.652 40.3341 122.586 40.1072C123.06 39.9834 123.547 39.9188 124.036 39.9149C124.879 39.902 125.705 40.1499 126.404 40.6254Z" fill="#2F2E41"/>
<path d="M204.936 155.922L229.27 130.954L235.681 110.985L225.364 106.768C220.253 111.977 214.992 127.923 214.992 127.923L198.383 150.447C198.25 150.496 198.118 150.549 197.988 150.611C197.223 150.976 196.564 151.534 196.076 152.231C195.587 152.928 195.284 153.741 195.197 154.591C195.11 155.441 195.241 156.299 195.578 157.083C195.915 157.866 196.446 158.549 197.121 159.064C197.795 159.58 198.59 159.911 199.428 160.025C200.266 160.14 201.119 160.034 201.905 159.718C202.69 159.402 203.382 158.887 203.913 158.222C204.444 157.557 204.796 156.764 204.936 155.922Z" fill="#FFB8B8"/>
<path d="M222.55 109.053L235.597 112.866L235.646 112.857C240.442 111.916 244.236 103.863 246.574 97.273C247.343 95.0994 247.266 92.7118 246.36 90.5929C245.453 88.4741 243.785 86.782 241.691 85.8588C240.141 85.1883 238.437 84.969 236.771 85.2256C235.105 85.4823 233.543 86.2048 232.262 87.3113L225.757 92.9712L222.55 109.053Z" fill="#748984"/>
<path d="M211.387 278.363L204.37 278.362L201.032 251.016L211.388 251.017L211.387 278.363Z" fill="#FFB8B8"/>
<path d="M213.177 276.048L211.202 276.048L203.491 272.879L199.358 276.047H199.357C197.022 276.047 194.782 276.985 193.13 278.654C191.479 280.322 190.551 282.585 190.551 284.945V285.234L213.176 285.235L213.177 276.048Z" fill="#2F2E41"/>
<path d="M242.522 278.363L235.505 278.362L232.167 251.016L242.523 251.017L242.522 278.363Z" fill="#FFB8B8"/>
<path d="M244.312 276.048L242.337 276.048L234.626 272.879L230.493 276.047H230.493C228.157 276.047 225.917 276.985 224.266 278.654C222.614 280.322 221.686 282.585 221.686 284.945V285.234L244.312 285.235L244.312 276.048Z" fill="#2F2E41"/>
<path d="M253.221 160.572C253.221 160.572 254.041 170.506 251.992 180.027C249.944 189.547 249.944 216.36 249.944 216.36L245.438 268.608L231.918 267.366L228.231 180.027L215.122 209.416L216.351 213.555L214.714 214.59C214.714 214.59 215.941 222.662 215.122 222.662C214.302 222.662 212.254 223.903 212.254 223.903L213.893 266.538L199.964 266.124L195.048 206.104L200.373 171.748L200.783 165.125L202.627 165.202L203.565 162.435L205.289 157.675L253.221 160.572Z" fill="#2F2E41"/>
<path d="M253.93 162.659L254.003 162.555C257.902 157.039 252.037 143.784 251.153 141.863L254.878 140.641L254.04 133.435L253.642 130.223L256.49 127.346L256.498 127.274L258.136 112.787L260.519 103.164C261.417 99.5264 261.34 95.7129 260.297 92.115C259.254 88.5171 257.283 85.2645 254.584 82.6909L249.077 77.4442L242.384 67.4377H231.59L227.889 74.5008C224.301 75.3387 221.118 77.4219 218.894 80.3874C216.669 83.353 215.545 87.013 215.717 90.7298L216.556 109.254L213.272 132.319L213.27 136.493L209.575 140.642L210.382 144.719L207.57 145.936L206.328 151.791C205.814 152.476 202.422 157.046 202.422 158.296C202.422 158.483 202.559 158.664 202.853 158.865C205.165 160.447 217.941 163.671 223.596 161.385C229.62 158.952 253.564 162.602 253.805 162.639L253.93 162.659Z" fill="#10B981"/>
<path d="M235.593 64.2075C243.487 64.2075 249.887 57.741 249.887 49.7643C249.887 41.7875 243.487 35.321 235.593 35.321C227.698 35.321 221.298 41.7875 221.298 49.7643C221.298 57.741 227.698 64.2075 235.593 64.2075Z" fill="#FFB8B8"/>
<path d="M234.223 64.4414C236.437 64.4186 238.645 64.2047 240.823 63.8021C242.979 63.3003 247.736 59.5838 249.032 57.3882C249.995 55.7569 250.573 53.2337 250.889 51.4044C251.315 48.9834 251.233 46.499 250.648 44.1121C250.063 41.7252 248.989 39.489 247.494 37.5483C246.918 36.7352 246.135 36.0946 245.228 35.6943C245.148 35.665 245.066 35.6393 244.982 35.6177C243.668 35.3046 242.476 34.6018 241.56 33.5993C241.382 33.3964 241.19 33.2066 240.985 33.0316C239.957 32.2001 238.749 31.6261 237.459 31.3567C235.376 30.8512 232.396 31.4846 228.603 33.241C226.697 34.1234 224.581 33.8772 222.951 33.5642C222.859 33.5488 222.766 33.5579 222.679 33.5905C222.592 33.6231 222.515 33.6781 222.456 33.7501C221.783 34.4225 220.883 34.8125 219.936 34.8417C219.358 34.8826 218.77 35.7092 218.062 36.7857C217.902 37.03 217.714 37.3152 217.578 37.4892L217.551 37.1624L217.233 37.5361C216.732 38.1234 216.387 38.8292 216.229 39.5878C216.071 40.3463 216.105 41.1329 216.329 41.8743C216.553 42.6157 216.959 43.2878 217.509 43.828C218.059 44.3682 218.736 44.7589 219.476 44.9638C220.063 45.1053 220.662 45.1859 221.266 45.2043C221.631 45.228 222.009 45.2524 222.373 45.3064C223.54 45.5163 224.633 46.0283 225.545 46.7924C226.458 47.5565 227.159 48.5467 227.579 49.6662C227.679 49.9249 227.835 50.1571 228.038 50.3449C228.24 50.5326 228.482 50.6709 228.746 50.749C229.009 50.8271 229.287 50.843 229.558 50.7955C229.828 50.7479 230.084 50.6381 230.306 50.4747C230.676 50.1684 231.113 49.957 231.58 49.8583C232.048 49.7596 232.532 49.7766 232.991 49.9079C233.391 50.1191 233.707 50.4626 233.886 50.8809C234.102 51.3466 234.45 51.7366 234.887 52.0013C236.375 52.728 236.563 56.1149 236.108 58.9542C235.669 61.691 234.714 63.6875 233.786 63.8092C233.071 63.9028 232.991 63.9563 232.942 64.0857L232.899 64.2015L232.982 64.3066C233.381 64.4412 233.805 64.4872 234.223 64.4414Z" fill="#2F2E41"/>
<path d="M222.364 110.597L215.492 101.751C208.494 103.699 196.075 114.883 196.075 114.883L170.571 126.066C169.72 125.921 168.846 126.006 168.037 126.311C167.228 126.616 166.514 127.131 165.965 127.804C165.416 128.477 165.052 129.285 164.91 130.145C164.768 131.005 164.853 131.888 165.156 132.705C165.459 133.521 165.969 134.243 166.636 134.797C167.303 135.351 168.102 135.717 168.954 135.86C169.805 136.002 170.679 135.915 171.487 135.608C172.295 135.301 173.008 134.784 173.556 134.11L206.965 124.692L222.364 110.597Z" fill="#FFB8B8"/>
<path d="M220.717 112.62L231.558 100.408L232.16 91.7556C232.272 90.0565 231.912 88.3597 231.119 86.8567C230.327 85.3538 229.135 84.1047 227.676 83.2507C225.692 82.1064 223.352 81.7661 221.129 82.2986C218.906 82.8311 216.966 84.1966 215.701 86.119C211.87 91.9525 207.749 99.8395 209.87 104.286L209.891 104.331L220.717 112.62Z" fill="#10B981"/>
<path d="M120.791 158.518L92.6125 143.937C90.6083 142.9 89.9443 140.149 91.1326 137.804L109.505 101.558C110.693 99.2137 113.291 98.1503 115.295 99.1874L143.473 113.769C145.477 114.806 146.141 117.557 144.953 119.901L126.58 156.147C125.392 158.492 122.795 159.555 120.791 158.518Z" fill="#E6E6E6"/>
<path d="M115.976 151.815L96.8317 141.908C94.9545 140.937 94.3326 138.36 95.4455 136.165L110.709 106.052C111.822 103.857 114.255 102.861 116.132 103.832L139.254 115.797C141.132 116.769 141.753 119.345 140.64 121.541L132.348 137.899C127.391 147.679 124.338 156.142 115.976 151.815Z" fill="white"/>
<path d="M125.441 135.37L108.485 126.596C108.277 126.446 108.13 126.227 108.07 125.977C108.009 125.727 108.04 125.463 108.156 125.234C108.272 125.006 108.466 124.826 108.702 124.73C108.938 124.633 109.2 124.626 109.441 124.708L126.398 133.483C126.605 133.632 126.753 133.852 126.813 134.102C126.873 134.352 126.843 134.615 126.727 134.844C126.611 135.073 126.417 135.252 126.181 135.349C125.945 135.445 125.683 135.453 125.441 135.37Z" fill="#10B981"/>
<path d="M110.464 132.327L106.595 130.324C106.387 130.175 106.24 129.956 106.18 129.706C106.12 129.456 106.15 129.192 106.266 128.963C106.382 128.734 106.576 128.555 106.812 128.459C107.048 128.362 107.31 128.354 107.551 128.437L111.421 130.44C111.628 130.589 111.776 130.808 111.836 131.058C111.896 131.308 111.866 131.572 111.75 131.801C111.634 132.03 111.44 132.209 111.204 132.305C110.968 132.402 110.706 132.41 110.464 132.327Z" fill="#748984"/>
<path d="M115.428 139.602L104.705 134.053C104.497 133.904 104.35 133.684 104.29 133.434C104.229 133.184 104.26 132.921 104.376 132.692C104.492 132.463 104.686 132.284 104.922 132.187C105.158 132.091 105.42 132.083 105.661 132.166L116.385 137.715C116.592 137.864 116.739 138.084 116.8 138.334C116.86 138.584 116.829 138.847 116.713 139.076C116.597 139.305 116.404 139.484 116.168 139.581C115.932 139.677 115.669 139.685 115.428 139.602Z" fill="#10B981"/>
<path d="M132.152 122.132L115.195 113.357C114.988 113.208 114.84 112.988 114.78 112.739C114.72 112.489 114.75 112.225 114.866 111.996C114.982 111.767 115.176 111.588 115.412 111.492C115.648 111.395 115.91 111.387 116.152 111.47L133.108 120.245C133.316 120.394 133.463 120.614 133.523 120.863C133.584 121.113 133.553 121.377 133.437 121.606C133.321 121.835 133.127 122.014 132.891 122.11C132.655 122.207 132.393 122.215 132.152 122.132Z" fill="#10B981"/>
<path d="M117.175 119.089L113.305 117.086C113.098 116.937 112.95 116.717 112.89 116.467C112.83 116.217 112.86 115.954 112.976 115.725C113.093 115.496 113.286 115.317 113.522 115.22C113.758 115.124 114.021 115.116 114.262 115.199L118.131 117.201C118.339 117.351 118.486 117.57 118.546 117.82C118.607 118.07 118.576 118.333 118.46 118.562C118.344 118.791 118.15 118.971 117.914 119.067C117.678 119.164 117.416 119.171 117.175 119.089Z" fill="#10B981"/>
<path d="M122.138 126.364L111.415 120.815C111.207 120.666 111.06 120.446 111 120.196C110.94 119.946 110.97 119.683 111.086 119.454C111.202 119.225 111.396 119.046 111.632 118.949C111.868 118.852 112.13 118.845 112.372 118.928L123.095 124.477C123.302 124.626 123.45 124.846 123.51 125.095C123.57 125.345 123.54 125.609 123.423 125.838C123.307 126.067 123.114 126.246 122.878 126.342C122.642 126.439 122.379 126.447 122.138 126.364Z" fill="#10B981"/>
<path d="M97.4407 126.962L91.075 103.017L108.086 99.7634L107.171 116.199L129.522 139.452C130.706 139.404 131.877 139.704 132.895 140.316C133.912 140.928 134.731 141.827 135.252 142.901C135.773 143.976 135.973 145.18 135.828 146.368C135.684 147.556 135.2 148.675 134.436 149.589C133.672 150.504 132.662 151.174 131.528 151.519C130.394 151.863 129.185 151.866 128.049 151.529C126.913 151.191 125.898 150.526 125.13 149.616C124.361 148.706 123.871 147.589 123.719 146.403L97.4407 126.962Z" fill="#A0616A"/>
<path d="M89.3341 76.17C83.5599 80.7758 90.9711 106.538 90.9711 106.538C92.1185 105.266 93.4519 124.07 94.8544 123.43C98.8405 121.61 106.146 115.335 108.963 115.847C110.574 116.139 108.886 103.409 108.886 103.409C108.886 103.409 108.576 96.1091 107.993 86.7254C107.876 84.0694 107.097 81.4863 105.727 79.2166C104.357 76.9468 102.441 75.0642 100.157 73.7439C100.157 73.7439 95.1082 71.5642 89.3341 76.17Z" fill="#3F3D56"/>
<path d="M185.411 180.11L170.034 172.773C169.706 172.617 169.416 172.388 169.187 172.103C168.959 171.818 168.797 171.484 168.714 171.126C168.631 170.777 168.627 170.412 168.703 170.061C168.779 169.71 168.932 169.38 169.152 169.097C173.606 163.346 176.665 156.62 178.082 149.458C178.19 148.91 178.482 148.416 178.909 148.061C179.336 147.706 179.872 147.511 180.425 147.51C188.267 147.537 194.128 150.431 197.845 156.109C198.041 156.404 198.171 156.739 198.225 157.09C198.28 157.442 198.258 157.801 198.161 158.143C196.009 165.637 192.735 172.754 188.451 179.247C188.133 179.738 187.65 180.096 187.091 180.255C186.532 180.413 185.935 180.362 185.411 180.11Z" fill="#E6E6E6"/>
<path d="M189.935 169.82L178.177 164.21C177.885 164.071 177.659 163.82 177.55 163.512C177.441 163.204 177.457 162.865 177.595 162.57C177.733 162.274 177.982 162.046 178.287 161.936C178.591 161.826 178.926 161.842 179.219 161.982L190.976 167.591C191.121 167.66 191.251 167.758 191.358 167.877C191.466 167.997 191.549 168.137 191.603 168.29C191.657 168.442 191.681 168.604 191.674 168.765C191.666 168.927 191.627 169.085 191.558 169.232C191.49 169.378 191.394 169.509 191.275 169.618C191.156 169.727 191.018 169.811 190.867 169.866C190.716 169.92 190.556 169.944 190.396 169.936C190.236 169.929 190.079 169.889 189.935 169.82Z" fill="white"/>
<path d="M191.761 165.912L180.004 160.302C179.711 160.163 179.486 159.912 179.376 159.604C179.267 159.296 179.284 158.957 179.422 158.662C179.56 158.366 179.808 158.138 180.113 158.028C180.417 157.918 180.753 157.934 181.045 158.074L192.802 163.683C193.095 163.823 193.321 164.074 193.43 164.382C193.539 164.689 193.523 165.028 193.385 165.324C193.246 165.619 192.998 165.847 192.693 165.958C192.389 166.068 192.053 166.051 191.761 165.912Z" fill="white"/>
<path d="M176.051 43.2329L174.956 43.354C170.077 23.9793 160.618 10.5568 147.603 4.53718C131.057 -3.11482 110.598 2.02364 89.9934 19.0062C69.2842 36.0755 50.9511 63.0375 38.3717 94.927L37.3098 94.436C49.9445 62.4073 68.3716 35.3149 89.1969 18.1508C110.127 0.899824 131.004 -4.27632 147.982 3.57604C161.371 9.76815 171.077 23.4813 176.051 43.2329Z" fill="#F2F2F2"/>
<path d="M55.3087 68.4658C52.4467 74.5577 49.7244 80.8689 47.2174 87.224C32.7911 123.795 25.4805 161.144 26.0779 195.234L24.9504 195.113C24.3524 160.895 31.684 123.418 46.1555 86.733C48.6697 80.36 51.3997 74.0309 54.27 67.9219L55.3087 68.4658Z" fill="#F2F2F2"/>
<path d="M54.7675 93.5943C51.9054 99.6861 49.1831 105.997 46.6762 112.352C32.2498 148.923 24.9392 186.272 25.5366 220.363L24.4091 220.241C23.8111 186.024 31.1428 148.546 45.6143 111.861C48.1284 105.488 50.8584 99.1594 53.7287 93.0503L54.7675 93.5943Z" fill="#F2F2F2"/>
<path d="M24.4633 102.733C25.7097 100.84 24.9719 98.1307 22.8155 96.6812C20.6591 95.2316 17.9006 95.5909 16.6542 97.4838C15.4079 99.3767 16.1456 102.086 18.302 103.536C20.4584 104.985 23.2169 104.626 24.4633 102.733Z" fill="#CCCCCC"/>
<path d="M289.866 171.09C291.112 169.197 290.374 166.487 288.218 165.038C286.061 163.588 283.303 163.948 282.057 165.841C280.81 167.733 281.548 170.443 283.704 171.893C285.861 173.342 288.619 172.983 289.866 171.09Z" fill="#CCCCCC"/>
</g>
<defs>
<clipPath id="clip0_550_624">
<rect width="349" height="286" fill="white"/>
</clipPath>
</defs>
</svg>
