<svg width="332" height="236" viewBox="0 0 332 236" fill="none" xmlns="http://www.w3.org/2000/svg">
<g clip-path="url(#clip0_160_240)">
<path d="M332 110.801C332 120.19 328.764 129.234 322.937 136.124C317.11 143.014 309.122 147.242 300.57 147.964C300.282 147.988 299.99 148.012 299.697 148.026V112.65C299.697 112.297 299.626 111.948 299.487 111.629C299.348 111.309 299.145 111.028 298.894 110.806C298.865 110.773 298.833 110.744 298.798 110.72C298.766 110.692 298.733 110.666 298.698 110.643C298.391 110.427 298.04 110.299 297.676 110.27C297.312 110.24 296.947 110.311 296.615 110.476L296.253 109.606C296.649 109.409 297.079 109.306 297.515 109.305L272.65 85.8569C272.842 85.618 273.043 85.3838 273.244 85.1497C277.931 79.7405 283.993 75.9944 290.645 74.3954C297.298 72.7965 304.236 73.4181 310.562 76.1801C316.889 78.9421 322.313 83.7174 326.135 89.8891C329.956 96.0608 331.999 103.345 332 110.801Z" fill="#F2F2F2"/>
<path d="M8.63351 136.216C8.50986 135.525 8.52623 134.812 8.68146 134.128C8.8367 133.444 9.12702 132.806 9.53199 132.258C9.93696 131.71 10.4467 131.267 11.0254 130.958C11.604 130.649 12.2375 130.483 12.8811 130.471L32.5082 104.894L37.4081 111.753L17.4054 135.556C17.3518 136.741 16.9031 137.863 16.1441 138.71C15.3851 139.557 14.3687 140.07 13.2875 140.151C12.2063 140.233 11.1353 139.877 10.2775 139.152C9.41977 138.427 8.83481 137.382 8.63351 136.216Z" fill="#FFB8B8"/>
<path d="M101.835 104.736C101.698 104.954 101.576 105.183 101.472 105.421L80.041 108.775L76.7868 104.252L69.9097 108.736L76.3742 119.769L102.511 111.335C103.201 112.019 104.064 112.456 104.987 112.589C105.909 112.722 106.847 112.545 107.675 112.081C108.503 111.616 109.182 110.887 109.622 109.99C110.062 109.093 110.243 108.07 110.139 107.058C110.035 106.046 109.653 105.092 109.042 104.324C108.431 103.556 107.621 103.009 106.72 102.757C105.818 102.505 104.868 102.56 103.996 102.913C103.123 103.267 102.37 103.903 101.835 104.736Z" fill="#FFB8B8"/>
<path d="M65.228 190.192L69.0206 194.325L85.3902 180.28L79.7931 174.179L65.228 190.192Z" fill="#FFB8B8"/>
<path d="M72.8281 206.152L60.9093 193.161L65.4946 188.12L72.8084 196.092C73.4131 196.751 73.8933 197.534 74.2216 198.397C74.5499 199.259 74.7198 200.184 74.7216 201.118C74.7234 202.052 74.5572 202.977 74.2323 203.841C73.9074 204.705 73.4303 205.49 72.8281 206.152Z" fill="#2F2E41"/>
<path d="M45.0695 229.84H50.4213L52.9671 207.243H45.0686L45.0695 229.84Z" fill="#FFB8B8"/>
<path d="M60.7422 235.28L43.9226 235.28L43.9223 228.167L54.2434 228.166C55.0968 228.166 55.9418 228.35 56.7303 228.707C57.5187 229.065 58.2352 229.589 58.8386 230.249C59.4421 230.91 59.9208 231.694 60.2474 232.557C60.574 233.42 60.7421 234.345 60.7422 235.28Z" fill="#2F2E41"/>
<path d="M43.9059 212.388L37.81 163.174C36.856 155.737 37.1521 148.171 38.6836 140.851C39.9345 134.967 41.6245 130.892 43.7066 128.738C44.0352 128.401 44.4558 128.191 44.904 128.14L65.0306 125.845C65.4183 125.801 65.8092 125.88 66.1579 126.07C66.5065 126.261 66.7983 126.556 66.9994 126.922L67.661 128.129C67.7413 128.275 67.8061 128.431 67.8541 128.594L72.1094 143.035C72.1729 143.253 72.2754 143.455 72.4109 143.63C72.5464 143.804 72.7123 143.947 72.8988 144.051C79.5986 147.795 101.362 160.435 100.116 165.889C98.9459 171.013 87.9898 179.321 84.6598 181.746C84.3207 181.994 83.9213 182.125 83.5134 182.121C83.1055 182.118 82.708 181.98 82.3724 181.727L76.8446 177.587C76.5747 177.384 76.353 177.114 76.1979 176.799C76.0429 176.484 75.959 176.133 75.9532 175.775C75.9475 175.417 76.0202 175.063 76.1651 174.742C76.31 174.421 76.523 174.143 76.7862 173.93L80.5982 170.855C80.8315 170.667 81.0135 170.413 81.1246 170.12C81.2357 169.827 81.2717 169.506 81.2287 169.193C81.1858 168.879 81.0655 168.584 80.8808 168.339C80.6961 168.095 80.454 167.91 80.1805 167.805L59.7082 159.942C59.4783 159.853 59.233 159.824 58.9911 159.855C58.7493 159.887 58.5172 159.979 58.3129 160.124C58.1086 160.27 57.9374 160.464 57.8126 160.693C57.6877 160.922 57.6124 161.18 57.5926 161.445L53.8179 211.949C53.7762 212.491 53.5568 212.997 53.2003 213.375C52.8438 213.753 52.3742 213.977 51.8785 214.006L46.038 214.325C46.0025 214.327 45.9672 214.328 45.932 214.328C45.4363 214.33 44.957 214.134 44.5839 213.777C44.2109 213.42 43.9698 212.926 43.9059 212.388Z" fill="#2F2E41"/>
<path d="M53.1365 85.0993C59.0578 85.0993 63.858 79.8446 63.858 73.3626C63.858 66.8806 59.0578 61.6259 53.1365 61.6259C47.2152 61.6259 42.415 66.8806 42.415 73.3626C42.415 79.8446 47.2152 85.0993 53.1365 85.0993Z" fill="#FFB8B8"/>
<path d="M43.1083 126.728L35.2163 95.2062L35.3515 95.1064C35.521 94.9814 52.5315 82.6853 72.4475 92.5943L72.8086 92.821L68.1321 125.539C68.0301 126.285 67.6933 126.97 67.1798 127.473C66.6662 127.977 66.0081 128.269 65.319 128.299L46.0758 129.109C46.037 129.111 45.9983 129.112 45.9599 129.112C45.3112 129.113 44.6801 128.881 44.1645 128.45C43.649 128.019 43.2777 127.414 43.1083 126.728Z" fill="#CCCCCC"/>
<path d="M34.9161 115.727L28.3432 107.453C28.0267 107.056 27.8484 106.548 27.8399 106.021C27.8314 105.494 27.9932 104.98 28.2968 104.571L35.168 95.2787L40.4426 96.8535L43.2391 107.568L38.1402 115.542C37.9624 115.822 37.7283 116.053 37.4559 116.219C37.1836 116.384 36.8802 116.479 36.5692 116.495C36.5324 116.497 36.4959 116.498 36.4593 116.498C36.1666 116.499 35.8771 116.43 35.6108 116.297C35.3445 116.164 35.1075 115.97 34.9161 115.727Z" fill="#CCCCCC"/>
<path d="M71.2631 114.004C70.9521 113.987 70.6488 113.892 70.3764 113.727C70.1041 113.562 69.87 113.33 69.6921 113.05L64.5933 105.076L67.0458 93.7977L71.9024 92.3477L72.8086 92.821L79.5356 102.079C79.8392 102.488 80.0009 103.002 79.9924 103.529C79.9839 104.057 79.8057 104.564 79.4891 104.961L72.9163 113.236C72.7249 113.478 72.4879 113.673 72.2216 113.806C71.9552 113.939 71.6658 114.007 71.3731 114.007C71.3366 114.007 71.2998 114.006 71.2631 114.004Z" fill="#CCCCCC"/>
<path d="M299.697 110.309C299.701 110.428 299.664 110.544 299.592 110.634C299.517 110.73 299.41 110.79 299.295 110.8C299.179 110.81 299.065 110.769 298.977 110.686L297.515 109.305L272.65 85.8569L202.911 20.0797C202.513 19.7069 202.007 19.5025 201.483 19.5033C200.959 19.5042 200.453 19.7104 200.056 20.0845L106.142 109.401L105.296 110.204C105.263 110.235 105.226 110.261 105.187 110.28C105.117 110.314 105.04 110.327 104.964 110.319C104.855 110.306 104.754 110.25 104.68 110.161C104.642 110.114 104.613 110.059 104.595 110C104.576 109.94 104.568 109.878 104.572 109.815C104.576 109.752 104.59 109.691 104.616 109.635C104.641 109.579 104.676 109.528 104.719 109.487L104.837 109.372L199.484 19.363C200.041 18.8401 200.749 18.5517 201.482 18.55C202.215 18.5482 202.925 18.8332 203.483 19.3534L273.244 85.1497L299.544 109.96C299.59 110.004 299.628 110.057 299.654 110.117C299.68 110.177 299.695 110.242 299.697 110.309Z" fill="#3F3D56"/>
<path d="M246.673 124.42L245.525 120.96L241.57 109.014L233.049 83.2908L223.524 54.5381L206.346 2.67613C206.009 1.66478 205.32 0.84096 204.429 0.385078C203.538 -0.0708038 202.518 -0.121592 201.593 0.243833L102.279 39.6624C101.355 40.0312 100.602 40.7861 100.186 41.7616C99.7692 42.7371 99.7231 43.8535 100.057 44.8662L124.411 118.39L124.826 119.646L150.388 132.329L157.574 135.893L158.739 136.472L189.161 151.567L190.339 151.099L210.293 143.181L240.391 131.234L244.446 129.624C245.371 129.255 246.124 128.501 246.542 127.526C246.959 126.55 247.006 125.433 246.673 124.42Z" fill="#E6E6E6"/>
<path d="M205.028 63.1778C204.533 61.6893 203.518 60.4767 202.207 59.8057C200.896 59.1348 199.396 59.0603 198.035 59.5986L158.739 75.2007L139.763 82.7317C139.089 82.9985 138.47 83.4081 137.94 83.9372C137.411 84.4662 136.981 85.1043 136.677 85.815C136.373 86.5257 136.2 87.2951 136.168 88.0791C136.135 88.8631 136.244 89.6464 136.489 90.3842C136.733 91.1221 137.108 91.7999 137.592 92.3791C138.076 92.9582 138.659 93.4273 139.308 93.7595C139.958 94.0918 140.661 94.2806 141.377 94.3152C142.093 94.3498 142.809 94.2296 143.483 93.9614L158.739 87.9069L201.759 70.833C203.118 70.2907 204.226 69.1803 204.839 67.7452C205.452 66.3102 205.52 64.6676 205.028 63.1778Z" fill="white"/>
<path d="M211.947 84.0698C211.452 82.5813 210.437 81.3687 209.126 80.6978C207.815 80.0268 206.315 79.9523 204.954 80.4906L198.297 83.1332L158.739 98.8356L146.682 103.619C145.323 104.16 144.215 105.27 143.602 106.704C142.99 108.139 142.923 109.781 143.415 111.27C143.908 112.759 144.921 113.973 146.231 114.645C147.541 115.316 149.041 115.392 150.402 114.853L158.739 111.542L208.678 91.7203C208.791 91.6773 208.9 91.6247 209.009 91.5721C210.277 90.9631 211.286 89.8492 211.832 88.4561C212.377 87.063 212.418 85.4949 211.947 84.0698Z" fill="white"/>
<path d="M218.94 105.182C218.446 103.693 217.432 102.481 216.122 101.81C214.812 101.139 213.312 101.064 211.952 101.602L193.281 109.014L178.828 114.753L158.739 122.724L153.676 124.735C152.505 125.202 151.516 126.092 150.87 127.258C150.225 128.424 149.962 129.797 150.126 131.148C150.177 131.551 150.264 131.946 150.388 132.329L157.574 135.893L158.739 135.43H158.748L195.202 120.96L215.671 112.837C217.031 112.296 218.14 111.185 218.753 109.75C219.366 108.314 219.433 106.671 218.94 105.182Z" fill="white"/>
<path d="M178.025 42.6394C177.53 41.151 176.515 39.9384 175.204 39.2674C173.893 38.5965 172.393 38.522 171.032 39.0602L148.463 48.0153C147.104 48.5562 145.996 49.666 145.383 51.1006C144.771 52.5352 144.704 54.1774 145.196 55.6663C145.689 57.1552 146.702 58.3689 148.012 59.0409C149.322 59.7128 150.822 59.7879 152.183 59.2497L159.324 56.4161L164.052 54.5381L174.755 50.2899C176.115 49.7486 177.223 48.6391 177.836 47.2048C178.448 45.7705 178.517 44.1286 178.025 42.6394Z" fill="white"/>
<path d="M268.088 54.5381H162.449C161.826 54.5388 161.214 54.7111 160.667 55.0394C160.121 55.3676 159.659 55.841 159.324 56.4161C158.941 57.0671 158.738 57.8255 158.739 58.5999V136.472L189.161 151.567L193.447 153.694L200.218 157.053C200.614 157.249 201.044 157.351 201.479 157.351C201.914 157.351 202.344 157.249 202.741 157.053L209.511 153.694L230.7 143.181L250.449 133.38L271.799 122.791V58.5999C271.798 57.5228 271.407 56.4901 270.711 55.7285C270.016 54.9669 269.072 54.5388 268.088 54.5381Z" fill="#10B981"/>
<path d="M246.262 109.014H184.276C182.866 109.015 181.512 109.613 180.496 110.683C179.481 111.753 178.883 113.211 178.828 114.753C178.821 114.831 178.818 114.909 178.819 114.987C178.821 116.571 179.397 118.089 180.42 119.208C181.443 120.328 182.829 120.958 184.276 120.96H246.262C247.709 120.96 249.097 120.331 250.121 119.211C251.144 118.091 251.719 116.571 251.719 114.987C251.719 113.403 251.144 111.884 250.121 110.763C249.097 109.643 247.709 109.014 246.262 109.014Z" fill="white"/>
<path d="M249.794 132.658C248.81 131.737 247.557 131.232 246.262 131.234H184.276C182.829 131.234 181.441 131.864 180.418 132.984C179.394 134.104 178.819 135.623 178.819 137.208C178.819 138.792 179.394 140.311 180.418 141.431C181.441 142.551 182.829 143.181 184.276 143.181H230.7L250.449 133.38C250.249 133.12 250.03 132.878 249.794 132.658Z" fill="white"/>
<path d="M193.447 153.694L200.218 157.053C200.614 157.249 201.044 157.35 201.479 157.35C201.914 157.35 202.344 157.249 202.741 157.053L209.511 153.694H193.447Z" fill="white"/>
<path d="M232.398 83.5488C232.014 82.3989 231.317 81.406 230.4 80.7043C229.483 80.0026 228.392 79.6261 227.273 79.6256H203.265C202.216 79.6267 201.191 79.9579 200.31 80.5799C199.429 81.2019 198.73 82.0882 198.297 83.1331C197.974 83.9068 197.807 84.748 197.808 85.5988C197.81 87.1824 198.386 88.7004 199.409 89.8201C200.431 90.9398 201.818 91.5698 203.265 91.5721H227.273C228.151 91.5722 229.016 91.3404 229.795 90.8965C230.573 90.4525 231.242 89.8095 231.745 89.022C232.248 88.2345 232.57 87.3258 232.684 86.373C232.798 85.4201 232.7 84.4513 232.398 83.5488Z" fill="white"/>
<path d="M228.583 143.181L207.394 153.694L202.378 156.183C202.096 156.323 201.789 156.395 201.479 156.395C201.169 156.395 200.863 156.323 200.58 156.183L195.564 153.694H193.447L200.218 157.053C200.614 157.249 201.044 157.351 201.479 157.351C201.914 157.351 202.344 157.249 202.741 157.053L209.511 153.694L230.7 143.181H228.583ZM228.583 143.181L207.394 153.694L202.378 156.183C202.096 156.323 201.789 156.395 201.479 156.395C201.169 156.395 200.863 156.323 200.58 156.183L195.564 153.694H193.447L200.218 157.053C200.614 157.249 201.044 157.351 201.479 157.351C201.914 157.351 202.344 157.249 202.741 157.053L209.511 153.694L230.7 143.181H228.583ZM228.583 143.181L207.394 153.694L202.378 156.183C202.096 156.323 201.789 156.395 201.479 156.395C201.169 156.395 200.863 156.323 200.58 156.183L195.564 153.694H193.447L200.218 157.053C200.614 157.249 201.044 157.351 201.479 157.351C201.914 157.351 202.344 157.249 202.741 157.053L209.511 153.694L230.7 143.181H228.583ZM299.697 110.309C299.536 110.134 299.359 109.977 299.169 109.841C298.74 109.536 298.248 109.355 297.738 109.314C297.229 109.273 296.718 109.374 296.253 109.607L249.794 132.658L228.583 143.181L207.394 153.694L202.378 156.183C202.096 156.323 201.789 156.395 201.479 156.395C201.169 156.395 200.863 156.323 200.58 156.183L195.564 153.694L190.339 151.099L158.748 135.43L158.739 135.425L150.126 131.148L124.411 118.39L106.705 109.607C106.525 109.515 106.336 109.446 106.142 109.401C105.715 109.284 105.269 109.274 104.837 109.372C104.147 109.527 103.526 109.938 103.08 110.535C102.634 111.132 102.39 111.879 102.388 112.65V232.655C102.389 233.542 102.711 234.392 103.284 235.019C103.857 235.646 104.634 235.999 105.444 236H297.514C298.325 235.999 299.101 235.646 299.674 235.019C300.247 234.392 300.569 233.542 300.57 232.655V112.65C300.572 111.775 300.258 110.934 299.697 110.309ZM299.697 232.655C299.697 233.289 299.467 233.896 299.058 234.344C298.648 234.792 298.093 235.044 297.514 235.044H105.444C104.865 235.044 104.31 234.792 103.901 234.344C103.491 233.896 103.261 233.289 103.261 232.655V112.65C103.261 112.251 103.353 111.858 103.528 111.508C103.702 111.157 103.954 110.86 104.261 110.643C104.477 110.492 104.714 110.382 104.964 110.319C105.037 110.301 105.111 110.288 105.186 110.28C105.272 110.267 105.358 110.26 105.444 110.261C105.754 110.262 106.061 110.335 106.343 110.476L124.825 119.646L150.388 132.329L157.574 135.893L158.739 136.472L189.161 151.567L193.447 153.694L200.218 157.053C200.614 157.249 201.044 157.351 201.479 157.351C201.914 157.351 202.344 157.249 202.741 157.053L209.511 153.694L230.7 143.181L250.448 133.38L296.615 110.476C296.947 110.311 297.312 110.24 297.676 110.27C298.039 110.299 298.391 110.427 298.697 110.643C298.733 110.666 298.766 110.692 298.798 110.72C298.833 110.744 298.865 110.773 298.894 110.806C299.145 111.028 299.347 111.309 299.486 111.629C299.625 111.948 299.697 112.297 299.697 112.65L299.697 232.655ZM228.583 143.181L207.394 153.694L202.378 156.183C202.096 156.323 201.789 156.395 201.479 156.395C201.169 156.395 200.863 156.323 200.58 156.183L195.564 153.694H193.447L200.218 157.053C200.614 157.249 201.044 157.351 201.479 157.351C201.914 157.351 202.344 157.249 202.741 157.053L209.511 153.694L230.7 143.181H228.583ZM228.583 143.181L207.394 153.694L202.378 156.183C202.096 156.323 201.789 156.395 201.479 156.395C201.169 156.395 200.863 156.323 200.58 156.183L195.564 153.694H193.447L200.218 157.053C200.614 157.249 201.044 157.351 201.479 157.351C201.914 157.351 202.344 157.249 202.741 157.053L209.511 153.694L230.7 143.181H228.583ZM157.574 135.893L158.739 136.472V135.43L157.574 135.893ZM228.583 143.181L207.394 153.694L202.378 156.183C202.096 156.323 201.789 156.395 201.479 156.395C201.169 156.395 200.863 156.323 200.58 156.183L195.564 153.694H193.447L200.218 157.053C200.614 157.249 201.044 157.351 201.479 157.351C201.914 157.351 202.344 157.249 202.741 157.053L209.511 153.694L230.7 143.181H228.583Z" fill="#3F3D56"/>
<path d="M76.6214 236H27.2942C27.1784 236 27.0674 235.95 26.9855 235.86C26.9036 235.77 26.8577 235.649 26.8577 235.522C26.8577 235.395 26.9036 235.274 26.9855 235.184C27.0674 235.095 27.1784 235.044 27.2942 235.044H76.6214C76.7372 235.044 76.8482 235.095 76.9301 235.184C77.0119 235.274 77.0579 235.395 77.0579 235.522C77.0579 235.649 77.0119 235.77 76.9301 235.86C76.8482 235.95 76.7372 236 76.6214 236Z" fill="#3F3D56"/>
<path d="M49.0599 81.9458C48.2546 81.4984 47.5849 80.8051 47.1321 79.9498C46.6792 79.0945 46.4625 78.1139 46.5082 77.1265C46.5539 76.1392 46.8601 75.1875 47.3896 74.3867C47.9192 73.5859 48.6494 72.9703 49.4919 72.6144C52.7272 71.2477 56.3542 74.0369 59.7456 73.2439C63.1257 72.4535 65.0811 68.0298 64.2742 64.3507C63.4674 60.6715 60.5309 57.9003 57.2928 56.5768C55.178 55.7146 52.9132 55.3841 50.6659 55.6096C48.4186 55.8351 46.2464 56.6108 44.3101 57.8795C42.3937 59.1854 40.7976 60.9839 39.6607 63.1187C38.5238 65.2534 37.8804 67.6599 37.7864 70.1288C37.7424 72.6 38.2939 75.0402 39.3854 77.2038C40.477 79.3674 42.07 81.1779 44.0041 82.4532C44.866 82.997 45.8693 83.4337 46.8387 83.1888C47.6346 82.9058 48.3843 82.4863 49.0599 81.9458Z" fill="#2F2E41"/>
<path d="M45.5855 57.5935C42.7326 53.4512 38.8815 50.0483 34.4002 48.3611C29.9189 46.674 24.7979 46.8094 20.5891 49.1937C16.3804 51.5779 13.2417 56.3131 12.914 61.4884C12.3688 70.1016 19.0919 77.4232 19.7819 86.024C20.0006 88.7502 19.5964 91.4931 18.6057 94.0057C17.615 96.5183 16.0689 98.7217 14.1066 100.417C12.1444 102.113 9.82767 103.248 7.36512 103.719C4.90257 104.191 2.37154 103.984 0 103.119C1.68915 104.641 3.64758 105.764 5.75227 106.418C7.85696 107.072 10.0624 107.242 12.2301 106.918C14.3943 106.563 16.459 105.684 18.2747 104.347C20.0903 103.009 21.6113 101.246 22.7273 99.1858C24.2404 96.3079 24.8618 92.9649 25.1031 89.6549C25.4822 84.4212 24.9688 79.156 23.5894 74.1277C22.8352 71.3843 21.8125 68.561 22.2908 65.7443C22.5633 64.2792 23.2232 62.9341 24.1883 61.8761C25.1533 60.818 26.3812 60.0938 27.7191 59.7932C29.8814 59.3497 32.0921 60.0721 34.1567 60.9035C36.2213 61.7349 38.3029 62.697 40.5022 62.752C42.7015 62.8071 45.097 61.7051 45.9469 59.4839L45.5855 57.5935Z" fill="#2F2E41"/>
</g>
<defs>
<clipPath id="clip0_160_240">
<rect width="332" height="236" fill="white"/>
</clipPath>
</defs>
</svg>
