<svg width="363" height="254" viewBox="0 0 363 254" fill="none" xmlns="http://www.w3.org/2000/svg">
<g clip-path="url(#clip0_2_168)">
<path d="M303.939 19.8854H0.338013C0.766824 17.1968 1.60427 14.6533 2.77471 12.3496C6.51304 4.98668 13.6416 0 21.8094 0H282.467C290.63 0 297.764 4.98668 301.497 12.3496C302.667 14.6533 303.51 17.1968 303.939 19.8854Z" fill="#F2F2F2"/>
<path d="M363 253.071C363 253.44 362.733 253.735 362.4 253.735H237.643C237.31 253.735 237.042 253.44 237.042 253.071C237.042 252.893 237.103 252.737 237.204 252.62H282.467C283.431 252.62 284.374 252.547 285.303 252.408H362.4C362.733 252.408 363 252.703 363 253.071Z" fill="#3F3D56"/>
<path d="M223.097 117.773H81.1756C79.8566 117.773 78.7837 116.271 78.7837 114.426C78.7837 112.58 79.8566 111.079 81.1756 111.079H223.097C224.416 111.079 225.489 112.58 225.489 114.426C225.489 116.271 224.416 117.773 223.097 117.773Z" fill="#E6E6E6"/>
<path d="M303.939 19.8854C303.51 17.1968 302.667 14.6533 301.497 12.3496C297.764 4.98668 290.63 0 282.467 0H21.8094C13.6416 0 6.51306 4.98668 2.77473 12.3496C1.60429 14.6533 0.766844 17.1968 0.338032 19.8854C0.116054 21.2575 0 22.6688 0 24.1134V229.622C0 242.92 9.78218 253.735 21.8094 253.735H282.467C284.959 253.735 287.361 253.267 289.596 252.408C298.132 249.139 304.277 240.158 304.277 229.622V24.1134C304.277 22.6744 304.161 21.2575 303.939 19.8854ZM303.268 229.622C303.268 241.257 295.448 250.879 285.303 252.408C284.374 252.547 283.431 252.62 282.467 252.62H52.7905C24.1906 252.62 1.00899 226.983 1.00899 195.362V24.1134C1.00899 22.6688 1.13007 21.2575 1.36214 19.8854C1.8162 17.1745 2.69907 14.6365 3.93506 12.3496C7.56239 5.62258 14.2117 1.11559 21.8094 1.11559H282.467C290.065 1.11559 296.714 5.62258 300.342 12.3496C301.578 14.6365 302.46 17.1745 302.914 19.8854C303.147 21.2575 303.268 22.6688 303.268 24.1134V229.622Z" fill="#3F3D56"/>
<path d="M290.552 120.528L288.845 113.607L296.527 110.461L297.381 116.753L290.552 120.528Z" fill="#FFB6B6"/>
<path opacity="0.1" d="M290.552 120.528L288.845 113.607L293.369 111.497L291.964 119.656L290.552 120.528Z" fill="black"/>
<path d="M268.064 179.843C266.596 178.877 266.519 176.028 267.891 173.479C268.491 172.363 269.27 171.489 270.079 170.941L270.885 169.485L281.076 149.284C281.076 149.284 285.538 130.232 287.354 127.929C289.17 125.625 291.796 126.168 291.796 126.168L294.126 128.455L285.812 155.44L275.553 171.414L274.178 173.637C274.128 174.685 273.805 175.858 273.204 176.974C271.833 179.524 269.531 180.808 268.064 179.843Z" fill="#FFB6B6"/>
<path d="M290.132 118.551C290.132 118.551 293.374 118.413 295.419 121.197C297.465 123.981 286.75 155.361 286.75 155.361L278.022 155.019L290.132 118.551Z" fill="#10B981"/>
<path d="M290.979 114.708C295.379 114.708 298.946 110.765 298.946 105.9C298.946 101.035 295.379 97.0913 290.979 97.0913C286.579 97.0913 283.012 101.035 283.012 105.9C283.012 110.765 286.579 114.708 290.979 114.708Z" fill="#FFB6B6"/>
<path d="M272.343 233.779L266.937 248.565L263.807 245.104L262.669 238.498L267.221 232.206L272.343 233.779Z" fill="#FFB6B6"/>
<path d="M322.989 228.431L328.395 235.352L325.834 241.015L320.143 240.071L317.298 231.263L322.989 228.431Z" fill="#FFB6B6"/>
<path d="M286.996 145.852L286.284 158.593L303.925 155.133L302.787 147.268L286.996 145.852Z" fill="#FFB6B6"/>
<path d="M286.142 158.75L303.925 152.301C303.925 152.301 310.469 166.772 303.356 175.895C296.243 185.018 272.627 236.925 272.627 236.925L265.514 233.15L275.757 200.118L287.138 169.604L286.142 158.75Z" fill="#2F2E41"/>
<path d="M303.356 170.547L310.185 203.579L324.411 229.061L317.013 233.779L297.096 203.579L290.552 180.3L303.356 170.547Z" fill="#2F2E41"/>
<path d="M260.108 237.24H255.18C255.18 237.24 249.43 234.723 248.083 237.24C246.735 239.757 254.095 246.894 254.095 246.894C254.095 246.894 264.376 253.284 265.799 252.969C267.221 252.655 267.79 248.88 267.79 248.88L269.497 244.475L266.937 245.419C266.937 245.419 263.522 243.217 264.376 239.442L260.108 237.24Z" fill="#2F2E41"/>
<path d="M327.256 236.296V233.15L330.564 236.296C330.564 236.296 336.077 238.498 331.809 243.217C327.541 247.936 322.135 252.969 322.135 252.969C322.135 252.969 313.599 255.486 313.03 252.655C312.461 249.823 313.03 248.678 313.03 248.678L316.16 246.992L319.005 238.813L323.558 239.442L327.256 236.296Z" fill="#2F2E41"/>
<path d="M293.398 107.63L290.837 107.315L286.142 102.125C286.142 102.125 281.874 104.641 281.874 102.754C281.874 93.9453 286.711 94.2599 290.695 93.6307C294.678 93.0016 294.251 92.8443 295.532 95.2037C296.117 96.2827 298.235 96.9339 298.235 96.9339C298.235 96.9339 302.218 90.9568 304.21 98.1923C306.201 105.428 303.641 127.763 305.632 129.651C307.624 131.538 297.454 133.423 298.556 126.032C299.657 118.64 301.649 107.315 300.511 104.799C299.373 102.282 299.088 102.911 299.088 102.911C300.499 102.274 301.42 113.489 296.102 114.038L295.958 108.574C295.958 108.574 295.105 105.742 293.398 107.63Z" fill="#2F2E41"/>
<path d="M289.841 118.483L298.377 114.708L309.758 152.458L286.341 151.515L284.233 140.248C284.233 140.248 282.174 134.384 283.881 130.923C285.589 127.463 289.841 118.483 289.841 118.483Z" fill="#10B981"/>
<path d="M312.053 181.72C310.351 181.881 308.786 179.616 308.557 176.661C308.456 175.367 308.628 174.155 308.996 173.188L308.883 171.486L306.513 148.504C306.513 148.504 302.099 129.705 302.36 126.662C302.621 123.62 303.034 122.812 303.034 122.812L306.132 123.169L313.606 150.453L313.693 170.045L313.748 172.737C314.26 173.62 314.617 174.782 314.717 176.076C314.947 179.031 313.754 181.558 312.053 181.72Z" fill="#FFB6B6"/>
<path d="M297.666 117.697C297.666 117.697 300.226 115.494 303.356 116.438C306.486 117.382 314.326 149.784 314.326 149.784L307.055 155.132L297.666 117.697Z" fill="#10B981"/>
<path d="M149.434 172.158H115.302C113.219 172.158 111.525 170.284 111.525 167.981V164.206C111.525 161.903 113.219 160.03 115.302 160.03H149.434C151.517 160.03 153.212 161.903 153.212 164.206V167.981C153.212 170.284 151.517 172.158 149.434 172.158Z" fill="#10B981"/>
<path d="M280.603 48.8132H246.471C244.388 48.8132 242.694 46.9394 242.694 44.6363V40.8619C242.694 38.5588 244.388 36.6855 246.471 36.6855H280.603C282.686 36.6855 284.381 38.5588 284.381 40.8619V44.6363C284.381 46.9394 282.686 48.8132 280.603 48.8132Z" fill="#10B981"/>
<path d="M200.07 172.437H165.938C163.715 172.437 161.907 170.438 161.907 167.981V164.206C161.907 161.75 163.715 159.751 165.938 159.751H200.07C202.292 159.751 204.1 161.75 204.1 164.206V167.981C204.1 170.438 202.292 172.437 200.07 172.437ZM165.938 160.867C164.272 160.867 162.916 162.365 162.916 164.206V167.981C162.916 169.823 164.272 171.321 165.938 171.321H200.07C201.735 171.321 203.091 169.823 203.091 167.981V164.206C203.091 162.365 201.735 160.867 200.07 160.867H165.938Z" fill="#10B981"/>
<path d="M241.937 100.481H62.3363C60.6671 100.481 59.3093 98.9799 59.3093 97.1344C59.3093 95.2889 60.6671 93.7876 62.3363 93.7876H241.937C243.606 93.7876 244.964 95.2889 244.964 97.1344C244.964 98.9799 243.606 100.481 241.937 100.481Z" fill="#E6E6E6"/>
<path d="M50.8986 46.0961H28.1963C26.5271 46.0961 25.1693 44.5949 25.1693 42.7494C25.1693 40.9038 26.5271 39.4026 28.1963 39.4026H50.8986C52.5678 39.4026 53.9256 40.9038 53.9256 42.7494C53.9256 44.5949 52.5678 46.0961 50.8986 46.0961Z" fill="#E6E6E6"/>
<path d="M186.608 46.0961H163.906C162.236 46.0961 160.879 44.5949 160.879 42.7494C160.879 40.9038 162.236 39.4026 163.906 39.4026H186.608C188.277 39.4026 189.635 40.9038 189.635 42.7494C189.635 44.5949 188.277 46.0961 186.608 46.0961Z" fill="#E6E6E6"/>
<path d="M229.49 46.0961H206.788C205.119 46.0961 203.761 44.5949 203.761 42.7494C203.761 40.9038 205.119 39.4026 206.788 39.4026H229.49C231.159 39.4026 232.517 40.9038 232.517 42.7494C232.517 44.5949 231.159 46.0961 229.49 46.0961Z" fill="#E6E6E6"/>
<path d="M202.082 135.064H102.191C100.522 135.064 99.1644 133.563 99.1644 131.718C99.1644 129.872 100.522 128.371 102.191 128.371H202.082C203.751 128.371 205.109 129.872 205.109 131.718C205.109 133.563 203.751 135.064 202.082 135.064Z" fill="#E6E6E6"/>
<path d="M206.434 208.278H97.8387C96.8294 208.278 96.0084 207.37 96.0084 206.255C96.0084 205.139 96.8294 204.231 97.8387 204.231H206.434C207.444 204.231 208.265 205.139 208.265 206.255C208.265 207.37 207.444 208.278 206.434 208.278Z" fill="#E6E6E6"/>
<path d="M207.445 11.9345H98.8494C97.8402 11.9345 97.0192 11.0267 97.0192 9.91084C97.0192 8.79494 97.8402 7.88721 98.8494 7.88721H207.445C208.454 7.88721 209.275 8.79494 209.275 9.91084C209.275 11.0267 208.454 11.9345 207.445 11.9345Z" fill="white"/>
</g>
<defs>
<clipPath id="clip0_2_168">
<rect width="363" height="254" fill="white"/>
</clipPath>
</defs>
</svg>
