<svg width="332" height="236" viewBox="0 0 332 236" fill="none" xmlns="http://www.w3.org/2000/svg">
<g clip-path="url(#clip0_63_300)">
<path d="M290.931 217.899C301.607 206.086 301.607 186.933 290.931 175.119C280.254 163.306 262.944 163.306 252.267 175.119C241.591 186.933 241.591 206.086 252.267 217.899C262.944 229.712 280.254 229.712 290.931 217.899Z" fill="#2F2E41"/>
<path d="M271.446 199.292C276.485 198.058 279.665 192.538 278.55 186.963C277.435 181.388 272.446 177.869 267.408 179.103C262.369 180.337 259.189 185.857 260.304 191.432C261.419 197.007 266.408 200.526 271.446 199.292Z" fill="white"/>
<path d="M266.315 189.892C267.994 189.481 269.055 187.641 268.683 185.783C268.311 183.924 266.648 182.751 264.969 183.163C263.289 183.574 262.229 185.414 262.601 187.272C262.973 189.131 264.635 190.303 266.315 189.892Z" fill="#3F3D56"/>
<path d="M270.518 176.059C259.338 176.036 251.489 173.826 251.507 162.618C251.526 151.41 260.605 142.343 271.786 142.365C282.967 142.388 292.016 151.493 291.997 162.701C291.978 173.909 281.699 176.082 270.518 176.059Z" fill="#10B981"/>
<path d="M314.449 201.565C311.242 213.876 301.877 222.493 292.109 229.813C290.745 230.836 289.381 231.834 288.016 232.81C288.007 232.814 287.998 232.824 287.988 232.828C287.923 232.875 287.857 232.922 287.796 232.969C287.514 233.169 287.232 233.37 286.953 233.569L287.106 233.645C287.106 233.645 287.257 233.734 287.092 233.66C287.043 233.637 286.992 233.616 286.943 233.594C281.268 231.061 275.493 228.342 271.144 223.598C266.633 218.672 263.996 210.946 266.439 204.474C266.76 203.626 267.166 202.821 267.648 202.073C267.846 201.759 268.06 201.459 268.282 201.164C269.629 199.344 271.391 197.955 273.384 197.138C275.378 196.321 277.533 196.106 279.626 196.516C281.72 196.926 283.677 197.946 285.296 199.47C286.916 200.994 288.139 202.968 288.84 205.189C289.558 197.795 284.048 191.603 278.746 187.033C273.442 182.466 267.414 177.492 266.389 170.14C265.816 166.05 267.102 162.086 269.443 158.903C269.516 158.807 269.588 158.71 269.663 158.616C272.514 154.91 276.523 152.53 280.891 151.951C289.025 151.016 296.925 155.78 302.834 162.037C312.345 172.105 318.095 187.569 314.449 201.565Z" fill="#E6E6E6"/>
<path d="M299.16 185.464C300.721 188.151 301.92 191.076 302.718 194.146C303.393 196.89 303.693 199.73 303.609 202.572C303.392 208.421 301.908 214.126 299.282 219.208C297.305 223.063 294.895 226.626 292.11 229.813C290.746 230.835 289.381 231.834 288.017 232.809C288.007 232.814 287.998 232.824 287.988 232.828C287.923 232.875 287.857 232.922 287.796 232.968C287.514 233.169 287.232 233.37 286.953 233.569C286.953 233.569 287.257 233.734 287.092 233.66C287.043 233.637 286.992 233.616 286.943 233.594C287.452 228.98 286.953 224.298 285.49 219.942C284.027 215.585 281.641 211.68 278.532 208.553C275.417 205.474 271.687 203.254 267.648 202.073C267.847 201.759 268.06 201.459 268.282 201.164C269.842 201.648 271.36 202.284 272.819 203.063C278.033 205.834 282.303 210.389 284.995 216.053C287.412 221.196 288.452 226.996 287.993 232.77C288.226 232.537 288.46 232.298 288.686 232.061C292.998 227.613 296.828 222.507 299.42 216.615C301.669 211.624 302.774 206.099 302.639 200.525C302.427 194.447 300.239 188.817 297.07 183.916C293.597 178.688 289.494 174.009 284.875 170.01C280.22 165.885 275.127 162.406 269.708 159.65C269.586 159.587 269.49 159.474 269.441 159.335C269.392 159.196 269.393 159.041 269.444 158.903C269.48 158.779 269.559 158.676 269.663 158.616C269.717 158.59 269.775 158.578 269.834 158.581C269.892 158.584 269.95 158.601 270.001 158.632C270.67 158.973 271.335 159.318 271.994 159.678C277.483 162.68 282.614 166.425 287.269 170.827C291.765 175.069 295.998 179.914 299.16 185.464Z" fill="white"/>
<path d="M46.7934 235.683C50.6159 235.683 53.7147 234.397 53.7147 232.811C53.7147 231.225 50.6159 229.94 46.7934 229.94C42.9708 229.94 39.8721 231.225 39.8721 232.811C39.8721 234.397 42.9708 235.683 46.7934 235.683Z" fill="#2F2E41"/>
<path d="M63.4047 235.3C67.2272 235.3 70.326 234.015 70.326 232.428C70.326 230.842 67.2272 229.557 63.4047 229.557C59.5822 229.557 56.4834 230.842 56.4834 232.428C56.4834 234.015 59.5822 235.3 63.4047 235.3Z" fill="#2F2E41"/>
<path d="M85.4567 187.031C91.9972 182.859 96.3398 177.635 95.1562 175.363C93.9725 173.091 87.7108 174.632 81.1703 178.804C74.6298 182.975 70.2872 188.199 71.4709 190.471C72.6545 192.743 78.9162 191.203 85.4567 187.031Z" fill="#2F2E41"/>
<path d="M79.3168 197.26C81.7354 180.769 71.614 165.232 56.7099 162.556C41.8059 159.88 27.7632 171.079 25.3446 187.569C22.926 204.06 33.0474 219.598 47.9515 222.274C62.8555 224.95 76.8982 213.751 79.3168 197.26Z" fill="#2F2E41"/>
<path d="M48.1776 216.155H39.8721V232.62H48.1776V216.155Z" fill="#2F2E41"/>
<path d="M64.7889 216.155H56.4834V232.62H64.7889V216.155Z" fill="#2F2E41"/>
<path d="M53.023 195.095C58.1834 195.095 62.3667 190.466 62.3667 184.757C62.3667 179.047 58.1834 174.418 53.023 174.418C47.8625 174.418 43.6792 179.047 43.6792 184.757C43.6792 190.466 47.8625 195.095 53.023 195.095Z" fill="white"/>
<path d="M53.0228 188.203C54.7429 188.203 56.1374 186.66 56.1374 184.756C56.1374 182.853 54.7429 181.31 53.0228 181.31C51.3027 181.31 49.9082 182.853 49.9082 184.756C49.9082 186.66 51.3027 188.203 53.0228 188.203Z" fill="#3F3D56"/>
<path d="M25.8109 164.283C23.6034 153.345 30.6599 142.292 41.5721 139.596C52.4843 136.9 63.1199 143.582 65.3274 154.52C67.5349 165.459 60.303 169.493 49.3908 172.189C38.4786 174.885 28.0184 175.222 25.8109 164.283Z" fill="#E6E6E6"/>
<path d="M33.8885 184.86C34.9041 182.491 30.1978 177.668 23.3766 174.089C16.5554 170.509 10.2025 169.528 9.18684 171.897C8.17122 174.267 12.8775 179.089 19.6987 182.669C26.5199 186.248 32.8729 187.23 33.8885 184.86Z" fill="#2F2E41"/>
<path d="M38.9019 203.328C38.9019 206.288 45.7915 212.134 53.4365 212.134C61.0816 212.134 68.2497 203.799 68.2497 200.839C68.2497 197.878 61.0816 201.413 53.4365 201.413C45.7915 201.413 38.9019 200.367 38.9019 203.328Z" fill="white"/>
<path d="M147.66 235.683C151.483 235.683 154.581 234.397 154.581 232.811C154.581 231.225 151.483 229.94 147.66 229.94C143.838 229.94 140.739 231.225 140.739 232.811C140.739 234.397 143.838 235.683 147.66 235.683Z" fill="#2F2E41"/>
<path d="M131.049 235.3C134.871 235.3 137.97 234.015 137.97 232.428C137.97 230.842 134.871 229.557 131.049 229.557C127.226 229.557 124.127 230.842 124.127 232.428C124.127 234.015 127.226 235.3 131.049 235.3Z" fill="#2F2E41"/>
<path d="M122.983 190.471C124.166 188.199 119.824 182.975 113.283 178.804C106.743 174.632 100.481 173.091 99.2975 175.363C98.1138 177.635 102.456 182.859 108.997 187.031C115.537 191.203 121.799 192.743 122.983 190.471Z" fill="#2F2E41"/>
<path d="M142.123 222.664C157.222 222.664 169.462 209.121 169.462 192.415C169.462 175.708 157.222 162.165 142.123 162.165C127.024 162.165 114.784 175.708 114.784 192.415C114.784 209.121 127.024 222.664 142.123 222.664Z" fill="#2F2E41"/>
<path d="M154.581 216.155H146.276V232.62H154.581V216.155Z" fill="#2F2E41"/>
<path d="M137.97 216.155H129.665V232.62H137.97V216.155Z" fill="#2F2E41"/>
<path d="M135.718 195.095C140.878 195.095 145.062 190.466 145.062 184.757C145.062 179.047 140.878 174.418 135.718 174.418C130.557 174.418 126.374 179.047 126.374 184.757C126.374 190.466 130.557 195.095 135.718 195.095Z" fill="white"/>
<path d="M133.466 185.779C134.686 184.43 134.694 182.25 133.484 180.909C132.273 179.568 130.302 179.575 129.082 180.924C127.861 182.273 127.854 184.454 129.064 185.794C130.275 187.135 132.246 187.129 133.466 185.779Z" fill="#3F3D56"/>
<path d="M145.063 172.189C134.151 169.493 126.919 165.459 129.126 154.52C131.334 143.581 141.97 136.899 152.882 139.595C163.794 142.291 170.85 153.345 168.643 164.283C166.435 175.222 155.975 174.885 145.063 172.189Z" fill="#10B981"/>
<path d="M170.711 215.473C173.002 214.8 173.288 207.709 171.35 199.636C169.412 191.563 165.984 185.564 163.693 186.237C161.403 186.91 161.117 194.001 163.055 202.074C164.993 210.147 168.421 216.146 170.711 215.473Z" fill="#2F2E41"/>
<path d="M135.929 201.414C130.91 201.414 126.204 197.879 126.204 200.839C126.204 203.8 130.91 212.135 135.929 212.135C140.948 212.135 145.472 206.289 145.472 203.328C145.472 200.367 140.948 201.414 135.929 201.414Z" fill="white"/>
<path d="M100.597 142.26H98.1696C95.9947 142.257 93.9095 141.3 92.3716 139.598C90.8337 137.896 89.9686 135.589 89.9662 133.183V130.928C89.9662 125.341 90.9227 120.664 92.8094 117.026C95.0959 112.793 97.7633 108.828 100.771 105.189C102.768 102.968 104.58 100.551 106.185 97.9698C107.336 95.9643 107.93 93.629 107.894 91.2533C107.894 85.6497 104.595 82.9256 97.8069 82.9256C94.0416 82.9727 90.3002 83.594 86.6883 84.7721C85.2954 85.212 83.8292 85.2882 82.4051 84.9948C80.9811 84.7013 79.638 84.0461 78.4816 83.0808C77.3253 82.1155 76.3872 80.8664 75.7412 79.4318C75.0952 77.9972 74.7589 76.4163 74.7589 74.8136V70.2481C74.7509 68.2827 75.2583 66.357 76.2197 64.7043C77.1811 63.0517 78.5551 61.743 80.1751 60.9371C86.5541 57.925 93.4333 56.4276 100.368 56.5417C107.633 56.5417 114.191 57.8919 119.861 60.5543C125.541 63.2229 130.029 66.9859 133.199 71.7389C136.36 76.4583 138.04 82.1915 137.983 88.0652C137.983 94.3726 136.426 99.8661 133.357 104.393C130.321 108.874 125.97 113.78 120.423 118.975C117.5 121.664 114.73 124.551 112.13 127.619C110.45 129.62 109.263 132.066 108.682 134.721C108.359 136.833 107.369 138.749 105.888 140.129C104.408 141.51 102.533 142.264 100.597 142.26Z" fill="#10B981"/>
<path d="M99.248 184.944H98.9278C94.8971 184.941 91.0323 183.168 88.1831 180.013C85.3339 176.859 83.7334 172.581 83.7334 168.121C83.7334 163.662 85.3339 159.384 88.1831 156.23C91.0323 153.075 94.8971 151.301 98.9278 151.299H99.248C101.245 151.297 103.224 151.731 105.069 152.576C106.915 153.421 108.592 154.66 110.005 156.222C111.418 157.784 112.539 159.639 113.304 161.681C114.068 163.723 114.462 165.911 114.462 168.121C114.462 170.332 114.068 172.52 113.304 174.562C112.539 176.604 111.418 178.459 110.005 180.021C108.592 181.583 106.915 182.822 105.069 183.667C103.224 184.512 101.245 184.946 99.248 184.944Z" fill="#10B981"/>
<path d="M198.057 236H0.634799C0.46644 236 0.304986 235.926 0.185938 235.794C0.0668897 235.663 0 235.484 0 235.298C0 235.111 0.0668897 234.933 0.185938 234.801C0.304986 234.669 0.46644 234.595 0.634799 234.595H198.057C198.226 234.595 198.387 234.669 198.506 234.801C198.625 234.933 198.692 235.111 198.692 235.298C198.692 235.484 198.625 235.663 198.506 235.794C198.387 235.926 198.226 236 198.057 236Z" fill="#CCCCCC"/>
<path d="M331.365 236H225.988C225.82 236 225.659 235.926 225.539 235.794C225.42 235.663 225.354 235.484 225.354 235.298C225.354 235.111 225.42 234.933 225.539 234.801C225.659 234.669 225.82 234.595 225.988 234.595H331.365C331.533 234.595 331.695 234.669 331.814 234.801C331.933 234.933 332 235.111 332 235.298C332 235.484 331.933 235.663 331.814 235.794C331.695 235.926 331.533 236 331.365 236Z" fill="#CCCCCC"/>
<path d="M265.962 215.484C273.51 215.32 279.592 213.062 279.545 210.441C279.499 207.819 273.342 205.826 265.794 205.989C258.246 206.153 252.165 208.41 252.211 211.032C252.258 213.654 258.414 215.647 265.962 215.484Z" fill="#2F2E41"/>
<path d="M259.101 104.655H242.596C241.754 104.654 240.948 104.283 240.353 103.625C239.758 102.967 239.423 102.074 239.422 101.143V82.8809C239.423 81.9498 239.758 81.0572 240.353 80.3988C240.948 79.7404 241.754 79.3701 242.596 79.369H259.101C259.942 79.3701 260.749 79.7404 261.344 80.3988C261.939 81.0572 262.274 81.9498 262.275 82.8809V101.143C262.274 102.074 261.939 102.967 261.344 103.625C260.749 104.283 259.942 104.654 259.101 104.655ZM242.596 80.7738C242.091 80.7744 241.607 80.9966 241.25 81.3916C240.893 81.7867 240.692 82.3223 240.691 82.8809V101.143C240.692 101.701 240.893 102.237 241.25 102.632C241.607 103.027 242.091 103.249 242.596 103.25H259.101C259.606 103.249 260.09 103.027 260.447 102.632C260.804 102.237 261.004 101.701 261.005 101.143V82.8809C261.004 82.3223 260.804 81.7867 260.447 81.3916C260.09 80.9966 259.606 80.7744 259.101 80.7738H242.596Z" fill="#F2F2F2"/>
<path d="M266.718 92.7143H250.214C249.372 92.7132 248.565 92.3429 247.97 91.6845C247.375 91.0261 247.041 90.1335 247.04 89.2024V70.9405C247.041 70.0094 247.375 69.1168 247.97 68.4584C248.565 67.8 249.372 67.4297 250.214 67.4286H266.718C267.56 67.4297 268.367 67.8 268.962 68.4584C269.557 69.1168 269.891 70.0094 269.892 70.9405V89.2024C269.891 90.1335 269.557 91.0261 268.962 91.6845C268.367 92.3429 267.56 92.7132 266.718 92.7143ZM250.214 68.8334C249.709 68.834 249.225 69.0562 248.868 69.4512C248.511 69.8462 248.31 70.3818 248.309 70.9405V89.2024C248.31 89.7611 248.511 90.2967 248.868 90.6917C249.225 91.0867 249.709 91.3089 250.214 91.3095H266.718C267.223 91.3089 267.707 91.0867 268.064 90.6917C268.421 90.2967 268.622 89.7611 268.623 89.2024V70.9405C268.622 70.3818 268.421 69.8462 268.064 69.4512C267.707 69.0562 267.223 68.834 266.718 68.8334H250.214Z" fill="#F2F2F2"/>
<path d="M136.585 34.4167H120.08C119.238 34.4156 118.431 34.0453 117.836 33.3869C117.241 32.7285 116.907 31.8359 116.906 30.9048V12.6429C116.907 11.7118 117.241 10.8192 117.836 10.1608C118.431 9.5024 119.238 9.13205 120.08 9.13098H136.585C137.426 9.13205 138.233 9.5024 138.828 10.1608C139.423 10.8192 139.758 11.7118 139.759 12.6429V30.9048C139.758 31.8359 139.423 32.7285 138.828 33.3869C138.233 34.0453 137.426 34.4156 136.585 34.4167ZM120.08 10.5357C119.575 10.5364 119.091 10.7586 118.734 11.1536C118.377 11.5486 118.176 12.0842 118.175 12.6429V30.9048C118.176 31.4635 118.377 31.9991 118.734 32.3941C119.091 32.7891 119.575 33.0113 120.08 33.0119H136.585C137.089 33.0113 137.574 32.7891 137.931 32.3941C138.288 31.9991 138.488 31.4635 138.489 30.9048V12.6429C138.488 12.0842 138.288 11.5486 137.931 11.1536C137.574 10.7586 137.089 10.5364 136.585 10.5357H120.08Z" fill="#F2F2F2"/>
<path d="M126.427 25.2857H109.923C109.081 25.2846 108.274 24.9143 107.679 24.2559C107.084 23.5975 106.749 22.7049 106.749 21.7738V3.5119C106.749 2.58082 107.084 1.68818 107.679 1.0298C108.274 0.371421 109.081 0.0010652 109.923 0H126.427C127.269 0.0010652 128.076 0.371421 128.671 1.0298C129.266 1.68818 129.6 2.58082 129.601 3.5119V21.7738C129.6 22.7049 129.266 23.5975 128.671 24.2559C128.076 24.9143 127.269 25.2846 126.427 25.2857ZM109.923 1.40476C109.418 1.40537 108.934 1.62757 108.577 2.0226C108.22 2.41764 108.019 2.95324 108.018 3.5119V21.7738C108.019 22.3325 108.22 22.8681 108.577 23.2631C108.934 23.6581 109.418 23.8803 109.923 23.881H126.427C126.932 23.8803 127.416 23.6581 127.773 23.2631C128.13 22.8681 128.331 22.3325 128.332 21.7738V3.5119C128.331 2.95324 128.13 2.41764 127.773 2.0226C127.416 1.62757 126.932 1.40537 126.427 1.40476H109.923Z" fill="#F2F2F2"/>
<path d="M203.91 133.197C206.178 133.197 208.016 131.164 208.016 128.655C208.016 126.147 206.178 124.113 203.91 124.113C201.643 124.113 199.805 126.147 199.805 128.655C199.805 131.164 201.643 133.197 203.91 133.197Z" fill="#F2F2F2"/>
<path d="M38.8625 117.043C41.1297 117.043 42.9677 115.009 42.9677 112.5C42.9677 109.992 41.1297 107.958 38.8625 107.958C36.5953 107.958 34.7573 109.992 34.7573 112.5C34.7573 115.009 36.5953 117.043 38.8625 117.043Z" fill="#F2F2F2"/>
<path d="M315.635 156.376C317.902 156.376 319.74 154.342 319.74 151.834C319.74 149.325 317.902 147.292 315.635 147.292C313.368 147.292 311.53 149.325 311.53 151.834C311.53 154.342 313.368 156.376 315.635 156.376Z" fill="#F2F2F2"/>
</g>
<defs>
<clipPath id="clip0_63_300">
<rect width="332" height="236" fill="white"/>
</clipPath>
</defs>
</svg>
