<svg width="236" height="236" viewBox="0 0 236 236" fill="none" xmlns="http://www.w3.org/2000/svg">
<g clip-path="url(#clip0_68_704)">
<path d="M189.282 81.5431H165.999V75.1339C165.999 64.391 176.432 55.669 189.282 55.669L189.282 81.5431Z" fill="#2F2E41"/>
<path d="M184.122 69.5785L188.125 84.6315L164.667 81.3751L174.226 67.1387L184.122 69.5785Z" fill="#A0616A"/>
<path opacity="0.1" d="M184.122 69.5785L188.125 84.6315L164.667 81.3751L174.226 67.1387L184.122 69.5785Z" fill="black"/>
<path d="M161.631 129.562H184.122V101.735H161.631V129.562Z" fill="#A0616A"/>
<path d="M198.74 152.313L193.792 174.5C193.792 174.5 196.941 189.918 187.495 205.711L181.198 221.881L171.752 220.753C171.752 220.753 177.599 208.72 177.599 203.455C177.599 198.191 178.949 177.884 178.949 177.884L178.274 154.713L198.74 152.313Z" fill="#2F2E41"/>
<path d="M170.402 220.377C170.402 220.377 181.198 216.993 182.097 221.881L181.648 224.138C181.648 224.138 185.696 234.291 179.848 235.043C174.001 235.795 168.603 236.923 168.153 234.667C167.704 232.411 167.711 229.594 168.832 227.618C169.953 225.642 170.402 220.377 170.402 220.377Z" fill="#2F2E41"/>
<path d="M164.689 148.871L162.061 171.333C162.061 171.333 153.908 185.411 157.727 202.778L158.397 219.774L167.846 220.887C167.846 220.887 166.232 207.968 167.983 202.911C169.735 197.854 175.194 178.035 175.194 178.035L183.55 155.935L164.689 148.871Z" fill="#2F2E41"/>
<path d="M169.267 220.839C169.267 220.839 160.024 215.078 157.533 219.565L157.215 221.837C157.215 221.837 149.949 230.648 155.315 232.73C160.682 234.812 165.491 237.151 166.674 235.088C167.857 233.025 168.787 230.318 168.367 228.159C167.948 226.001 169.267 220.839 169.267 220.839Z" fill="#2F2E41"/>
<path d="M193.343 116.777C203.922 125.03 204.707 138.089 198.515 153.629C198.515 153.629 178.724 164.911 164.33 150.621L157.133 121.665L193.343 116.777Z" fill="#2F2E41"/>
<path d="M175.575 76.5398L186.821 78.044L185.921 101.735L198.515 122.793L182.322 129.562C182.322 129.562 169.728 109.632 167.479 97.2223C165.23 84.8128 166.579 75.7877 166.579 75.7877L175.575 76.5398Z" fill="#10B981"/>
<path d="M167.029 77.2919L155.784 78.7961L156.683 102.487L153.984 124.298L160.282 130.314C160.282 130.314 172.876 110.384 175.125 97.9744C177.374 85.5649 176.025 76.5398 176.025 76.5398L167.029 77.2919Z" fill="#10B981"/>
<path d="M180.523 77.856L182.997 77.2919C182.997 77.2919 191.768 76.3518 193.118 79.3602C194.467 82.3685 194.017 100.043 194.017 100.043C194.017 100.043 196.338 121.735 187.306 121.982C178.274 122.229 180.073 104.179 180.073 104.179L180.523 77.856Z" fill="#10B981"/>
<path d="M180.196 73.7096C186.626 73.7096 191.838 69.3523 191.838 63.9772C191.838 58.6021 186.626 54.2448 180.196 54.2448C173.767 54.2448 168.555 58.6021 168.555 63.9772C168.555 69.3523 173.767 73.7096 180.196 73.7096Z" fill="#A0616A"/>
<path d="M165.68 78.608L163.206 78.044C163.206 78.044 154.434 77.1039 153.085 80.1122C151.736 83.1206 152.185 100.795 152.185 100.795C152.185 100.795 149.864 122.487 158.897 122.734C167.929 122.981 166.129 104.931 166.129 104.931L165.68 78.608Z" fill="#10B981"/>
<path d="M173.471 77.3715C170.974 76.8418 168.143 79.0718 167.146 82.3536C166.727 83.66 166.688 85.0314 167.032 86.353L165.959 90.0835L165.88 90.08L157.416 106.757C155.448 110.635 155.656 115.087 158.166 118.739C159.659 120.911 161.62 122.372 163.921 120.881C167.74 118.407 170.235 104.241 171.374 96.1041L174.008 87.8326C175.065 86.808 175.813 85.5866 176.19 84.2707C177.186 80.9902 175.969 77.9013 173.471 77.3715Z" fill="#A0616A"/>
<path d="M157.909 71.8508C158.501 70.3455 159.67 69.0277 160.193 67.5046C160.888 65.4824 162.366 69.9687 162.51 67.8682C162.785 63.8758 170.073 53.6062 174.234 51.6335C178.395 49.6609 180.784 50.2556 185.023 52.1083C185.023 52.1083 187.081 52.2177 189.643 53.275C192.205 54.3324 194.51 56.0258 195.507 58.2642C196.297 60.0385 196.209 61.987 196.473 63.8673C197.208 69.1056 200.721 74.0874 199.967 79.3239C199.732 80.9576 198.989 82.647 197.391 83.608C195.793 84.5689 193.212 84.4643 192.16 83.0734C191.801 82.5988 191.649 82.0357 191.342 81.5365C191.034 81.0373 190.478 80.5719 189.807 80.5875C188.798 80.6108 188.284 81.7429 188.682 82.5186C189.08 83.2943 190.015 83.7626 190.893 84.1792C188.802 84.9657 186.208 84.7208 184.379 83.5642C182.551 82.4076 181.563 80.3872 181.9 78.491C182.374 75.8187 187.03 76.3718 187.579 73.7096C187.978 71.7715 189.381 68.5287 188.999 66.5883C188.617 64.6478 186.782 66.9973 188.715 65.8761C186.588 66.733 182.041 60.871 179.815 60.2144C177.589 59.5579 175.702 58.1362 174.69 56.3535C172.329 59.2146 170.252 58.4376 169.407 61.8407C168.561 65.2438 169.343 72.9754 172.824 74.8753C171.431 75.67 170.321 76.8065 169.667 78.1064C169.297 78.8427 169.056 79.6485 168.442 80.26C167.268 81.4281 165.1 81.4992 163.372 81.008C161.23 80.3991 159.398 79.0615 158.388 77.3686C157.378 75.6757 157.202 73.6478 157.909 71.8508Z" fill="#2F2E41"/>
<path d="M0 235.456C0 235.704 0.238411 235.903 0.535297 235.903H235.465C235.762 235.903 236 235.704 236 235.456C236 235.207 235.762 235.008 235.465 235.008H0.535297C0.238411 235.008 0 235.207 0 235.456Z" fill="#3F3D56"/>
<path d="M152.951 0.375977H60.4401C49.9493 0.375977 41.4448 7.48587 41.4448 16.2564V219.484C41.4448 228.254 49.9493 235.364 60.4401 235.364H152.951C163.442 235.364 171.947 228.254 171.947 219.484V16.2564C171.947 7.48587 163.442 0.375977 152.951 0.375977Z" fill="white"/>
<path d="M152.951 235.74H60.4402C49.7182 235.74 40.9951 228.448 40.9951 219.484V16.2565C40.9951 7.29268 49.7182 0 60.4402 0H152.951C163.673 0 172.397 7.29268 172.397 16.2565V219.484C172.397 228.448 163.673 235.74 152.951 235.74ZM60.4402 0.752092C50.2142 0.752092 41.8947 7.70729 41.8947 16.2565V219.484C41.8947 228.033 50.2142 234.988 60.4402 234.988H152.951C163.178 234.988 171.497 228.033 171.497 219.484V16.2565C171.497 7.70728 163.178 0.752092 152.951 0.752092H60.4402Z" fill="#3F3D56"/>
<path d="M33.8003 35.5613C32.9881 35.5613 32.3276 36.1134 32.3276 36.7924V46.6416C32.3276 47.3206 32.9881 47.8727 33.8003 47.8727C34.6124 47.8727 35.2729 47.3206 35.2729 46.6416V36.7924C35.2729 36.1134 34.6124 35.5613 33.8003 35.5613Z" fill="#3F3D56"/>
<path d="M159.652 32.8894H122.468C120.891 32.8894 119.607 31.8167 119.607 30.4981C119.607 29.1796 120.891 28.1068 122.468 28.1068H159.652C161.229 28.1068 162.513 29.1796 162.513 30.4981C162.513 31.8167 161.229 32.8894 159.652 32.8894Z" fill="#E6E6E6"/>
<path d="M124.769 51.6945H88.6234C87.7122 51.6945 86.9707 51.0746 86.9707 50.3128C86.9707 49.551 87.7122 48.9314 88.6234 48.9314H124.769C125.68 48.9314 126.421 49.551 126.421 50.3128C126.421 51.0746 125.68 51.6945 124.769 51.6945Z" fill="#10B981"/>
<path d="M35.2301 58.5134C51.3524 58.5134 64.4221 47.8171 64.4221 34.6226C64.4221 21.4281 51.3524 10.7318 35.2301 10.7318C19.1078 10.7318 6.03809 21.4281 6.03809 34.6226C6.03809 47.8171 19.1078 58.5134 35.2301 58.5134Z" fill="#10B981"/>
<path d="M45.1381 22.5719C41.2517 28.4881 37.3653 34.4044 33.4789 40.3206C31.002 36.6619 28.5386 32.9966 26.0556 29.3408C25.1981 28.0782 22.8655 29.2138 23.7252 30.4795C26.6036 34.7175 29.4521 38.9696 32.3305 43.2076C32.8226 43.9323 34.1738 43.9491 34.6609 43.2076C38.9301 36.7087 43.1992 30.2097 47.4684 23.7107C48.305 22.4373 45.9752 21.2975 45.1381 22.5719Z" fill="white"/>
<path d="M73.6809 5.51196H53.0448C52.9677 5.51196 52.9053 5.56419 52.9053 5.62862V7.63703C52.9053 7.70145 52.9677 7.75368 53.0448 7.75368H73.6809C73.7579 7.75368 73.8204 7.70145 73.8204 7.63703V5.62862C73.8204 5.56419 73.7579 5.51196 73.6809 5.51196Z" fill="#E6E6E6"/>
<path d="M143.19 7.75374C144.375 7.75374 145.335 6.95082 145.335 5.96037C145.335 4.96991 144.375 4.16699 143.19 4.16699C142.005 4.16699 141.045 4.96991 141.045 5.96037C141.045 6.95082 142.005 7.75374 143.19 7.75374Z" fill="#E6E6E6"/>
<path d="M149.089 7.75374C150.274 7.75374 151.234 6.95082 151.234 5.96037C151.234 4.96991 150.274 4.16699 149.089 4.16699C147.904 4.16699 146.944 4.96991 146.944 5.96037C146.944 6.95082 147.904 7.75374 149.089 7.75374Z" fill="#E6E6E6"/>
<path d="M154.988 7.75374C156.173 7.75374 157.134 6.95082 157.134 5.96037C157.134 4.96991 156.173 4.16699 154.988 4.16699C153.804 4.16699 152.843 4.96991 152.843 5.96037C152.843 6.95082 153.804 7.75374 154.988 7.75374Z" fill="#E6E6E6"/>
<path d="M60.2148 59.0902C60.2148 59.3384 60.4533 59.5377 60.7501 59.5377H152.641C152.938 59.5377 153.176 59.3384 153.176 59.0902C153.176 58.842 152.938 58.6427 152.641 58.6427H60.7501C60.4533 58.6427 60.2148 58.842 60.2148 59.0902Z" fill="#3F3D56"/>
<path d="M143.829 94.2621H88.684C87.7727 94.2621 87.0312 93.6422 87.0312 92.8804C87.0312 92.1186 87.7727 91.499 88.684 91.499H143.829C144.741 91.499 145.482 92.1186 145.482 92.8804C145.482 93.6423 144.741 94.2621 143.829 94.2621Z" fill="#10B981"/>
<path d="M143.829 114.193H88.684C87.7727 114.193 87.0312 113.573 87.0312 112.811C87.0312 112.049 87.7727 111.429 88.684 111.429H143.829C144.741 111.429 145.482 112.049 145.482 112.811C145.482 113.573 144.741 114.193 143.829 114.193Z" fill="#10B981"/>
<path d="M143.829 134.123H88.684C87.7727 134.123 87.0312 133.503 87.0312 132.741C87.0312 131.979 87.7727 131.36 88.684 131.36H143.829C144.741 131.36 145.482 131.979 145.482 132.741C145.482 133.503 144.741 134.123 143.829 134.123Z" fill="#10B981"/>
<path d="M71.9579 96.0941C74.1937 96.0941 76.0062 94.5789 76.0062 92.7097C76.0062 90.8406 74.1937 89.3253 71.9579 89.3253C69.7221 89.3253 67.9097 90.8406 67.9097 92.7097C67.9097 94.5789 69.7221 96.0941 71.9579 96.0941Z" fill="#10B981"/>
<path d="M71.5083 98.3504V97.5983C74.8566 97.5983 77.5807 95.3209 77.5807 92.5217C77.5807 89.7225 74.8566 87.4451 71.5083 87.4451V86.693C75.3527 86.693 78.4803 89.3077 78.4803 92.5217C78.4803 95.7357 75.3527 98.3504 71.5083 98.3504Z" fill="#3F3D56"/>
<path d="M71.9579 116.025C74.1937 116.025 76.0062 114.509 76.0062 112.64C76.0062 110.771 74.1937 109.256 71.9579 109.256C69.7221 109.256 67.9097 110.771 67.9097 112.64C67.9097 114.509 69.7221 116.025 71.9579 116.025Z" fill="#10B981"/>
<path d="M71.5083 118.281V117.529C74.8566 117.529 77.5807 115.252 77.5807 112.452C77.5807 109.653 74.8566 107.376 71.5083 107.376V106.623C75.3527 106.623 78.4803 109.238 78.4803 112.452C78.4803 115.666 75.3527 118.281 71.5083 118.281Z" fill="#3F3D56"/>
<path d="M71.9579 135.955C74.1937 135.955 76.0062 134.44 76.0062 132.571C76.0062 130.701 74.1937 129.186 71.9579 129.186C69.7221 129.186 67.9097 130.701 67.9097 132.571C67.9097 134.44 69.7221 135.955 71.9579 135.955Z" fill="#10B981"/>
<path d="M71.5083 138.211V137.459C74.8566 137.459 77.5807 135.182 77.5807 132.383C77.5807 129.583 74.8566 127.306 71.5083 127.306V126.554C75.3527 126.554 78.4803 129.169 78.4803 132.383C78.4803 135.597 75.3527 138.211 71.5083 138.211Z" fill="#3F3D56"/>
<path d="M172.731 76.6195C175.228 76.0898 178.06 78.3197 179.056 81.6015C179.475 82.9079 179.514 84.2793 179.17 85.6009L180.243 89.3314L180.322 89.328L188.787 106.005C190.755 109.883 190.547 114.334 188.036 117.987C186.543 120.159 184.583 121.62 182.281 120.129C178.462 117.655 175.967 103.489 174.828 95.352L172.195 87.0805C171.138 86.0559 170.389 84.8346 170.013 83.5187C169.017 80.2381 170.234 77.1492 172.731 76.6195Z" fill="#A0616A"/>
<path d="M182.347 85.7583L172.876 91.3862L177.612 116.316L183.55 122.737L190.468 120.736L192.491 108.952L190.11 97.5549L182.347 85.7583Z" fill="#10B981"/>
</g>
<defs>
<clipPath id="clip0_68_704">
<rect width="236" height="236" fill="white"/>
</clipPath>
</defs>
</svg>
