<svg width="333" height="236" viewBox="0 0 333 236" fill="none" xmlns="http://www.w3.org/2000/svg">
<g clip-path="url(#clip0_1219_1094)">
<path d="M41.8632 209.933L46.9987 210.057L45.0589 226.002L41.579 225.919L41.8632 209.933Z" fill="#FFB6B6"/>
<path d="M53.5181 233.323C53.5181 232.89 53.2973 232.499 52.9561 232.327L49.1235 230.396L46.5104 224.215L46.4708 217.987L41.0864 217.342L40.3077 221.309C40.3077 221.309 41.9111 221.065 39.9315 222.818C37.9519 224.57 38.9051 228 38.9051 228L38.4734 234.409H42.0366L42.2279 230.423C44.9993 231.622 45.679 234.409 45.679 234.409H52.5863C53.1009 234.409 53.5181 233.923 53.5181 233.323Z" fill="#2F2E41"/>
<path d="M49.3856 210.108L54.521 210.232L52.5813 226.178L49.1014 226.094L49.3856 210.108Z" fill="#FFB6B6"/>
<path d="M61.0405 233.499C61.0405 233.066 60.8196 232.674 60.4785 232.502L56.6458 230.571L54.0328 224.39L53.9932 218.163L48.6088 217.517L47.83 221.484C47.83 221.484 49.4334 221.24 47.4539 222.993C45.4743 224.746 46.4275 228.175 46.4275 228.175L45.9958 234.585H49.559L49.7503 230.598C52.5216 231.798 53.2014 234.585 53.2014 234.585H60.1087C60.6233 234.585 61.0405 234.099 61.0405 233.499Z" fill="#2F2E41"/>
<path d="M43.4963 116.579L37.6745 130.757C35.7339 135.483 35.1189 140.666 35.8981 145.728L38.7276 215.381H49.9148L54.7979 153.355L55.7615 177.856L44.5622 212.764H55.5771L69.7154 177.856L70.7635 150.976L65.7406 130.118L43.4963 116.579Z" fill="#2F2E41"/>
<path d="M201.217 55.9114V20.4969C201.217 9.17676 192.22 2.85823e-09 181.121 2.85823e-09H107.556C96.4568 -0.000187006 87.4593 9.17643 87.4591 20.4965V214.784C87.4591 226.104 96.4565 235.28 107.555 235.28H181.12C192.219 235.28 201.216 226.104 201.216 214.784V81.1201C201.915 81.1201 202.482 80.5421 202.482 79.8291L202.483 57.2025C202.483 56.4895 201.916 55.9114 201.217 55.9114Z" fill="#3F3D56"/>
<path d="M197.443 18.7926V215.824C185.699 215.089 191.673 230.872 182.207 231.368H107.132C98.7142 231.369 91.8885 224.41 91.886 215.824V18.7926C91.8885 10.2069 98.7138 3.24847 107.132 3.24957H112.668C111.161 7.03134 123.329 8.26173 124.262 8.26294H162.711C166.714 8.25777 176.371 4.13094 176.019 3.24957H182.204C190.619 3.25104 197.44 10.2072 197.443 18.7897V18.7926Z" fill="white"/>
<path d="M86.8674 60.2493C86.332 60.2493 85.8967 60.6934 85.8967 61.2394V69.1605C85.8967 69.7065 86.332 70.1506 86.8674 70.1506C87.4028 70.1506 87.8382 69.7065 87.8382 69.1605V61.2394C87.8382 60.6933 87.4028 60.2493 86.8674 60.2493Z" fill="#3F3D56"/>
<path d="M86.8674 84.0124C86.332 84.0124 85.8967 84.4565 85.8967 85.0025V100.35C85.8967 100.896 86.332 101.34 86.8674 101.34C87.4028 101.34 87.8382 100.896 87.8382 100.35V85.0025C87.8382 84.4564 87.4028 84.0124 86.8674 84.0124Z" fill="#3F3D56"/>
<path d="M86.8674 105.795C86.332 105.795 85.8967 106.239 85.8967 106.785V122.132C85.8967 122.678 86.332 123.122 86.8674 123.122C87.4028 123.122 87.8382 122.678 87.8382 122.132V106.785C87.8382 106.239 87.4028 105.795 86.8674 105.795Z" fill="#3F3D56"/>
<path d="M315.841 222.757L311.234 225.975L296.87 209.384L303.669 204.634L315.841 222.757Z" fill="#FFB6B6"/>
<path d="M299.987 233.678C300.009 234.025 300.467 234.873 300.66 235.159C301.251 236.04 302.431 236.265 303.294 235.661L317.56 225.693C318.149 225.282 318.3 224.461 317.896 223.86L317.489 223.254C317.489 223.254 316.972 220.941 314.012 219.712C314.012 219.712 313.386 222.731 308.839 221.864L307.056 220.95L304.182 229.271L301.259 231.903C300.619 232.478 299.932 232.81 299.987 233.678Z" fill="#2F2E41"/>
<path d="M281.877 231.301L276.293 231.3L273.637 209.333L280.472 210.201L281.877 231.301Z" fill="#FFB6B6"/>
<path d="M262.746 231.172C262.572 231.47 262.48 232.434 262.48 232.782C262.48 233.849 263.329 234.714 264.376 234.714H281.668C282.382 234.714 282.961 234.124 282.961 233.396V232.662C282.961 232.662 283.816 230.455 282.055 227.734C282.055 227.734 279.866 229.864 276.595 226.528L275.631 224.746L268.649 229.954L264.779 230.44C263.932 230.546 263.182 230.424 262.746 231.172Z" fill="#2F2E41"/>
<path d="M262.299 147.819L262.72 152.999L261.883 157.118L263.406 161.461L265.269 184.424L274.976 224.013L282.388 225.605L278.83 186.06L281.59 153.441L262.299 147.819Z" fill="#2F2E41"/>
<path d="M293.797 125.33L265.449 125.731L262.299 147.818L281.59 157.054L280.975 188.597L302.459 220.317L313.901 213.649L294.728 186.712L300.097 141.794L293.797 125.33Z" fill="#2F2E41"/>
<path d="M272.813 73.4058L267.811 79.9523L270.174 130.148L288.679 129.747L291.828 85.976L287.891 74.732L286.467 72.2122L284.763 68.9495L273.84 69.7452L272.813 73.4058Z" fill="#E6E6E6"/>
<path d="M265.427 104.448L266.427 114.707L265.199 126.512L263.663 129.713L260.152 142.445C260.152 142.445 256.569 148.013 264.443 148.414C272.318 148.814 298.128 146.209 298.128 146.209C298.128 146.209 301.346 146.128 299.943 139.262C297.678 135.291 299.139 129.695 299.139 129.695L296.159 118.501L296.947 108.06L302.459 80.7529C297.563 76.8291 292.08 74.0207 286.119 72.1187L280.899 86.1205L273.125 73.3235L270.173 75.5322C266.19 76.5974 262.685 78.2354 259.913 80.7525L265.427 104.448Z" fill="#2F2E41"/>
<path d="M171.973 80.092H116.407C112.598 80.0876 109.512 76.9396 109.508 73.0549V48.694C109.512 44.8093 112.598 41.6612 116.407 41.6568C134.138 36.6466 152.734 37.1161 171.973 41.6568C175.782 41.6614 178.868 44.8094 178.872 48.694V73.0549C178.868 76.9394 175.782 80.0874 171.973 80.092Z" fill="#F2F2F2"/>
<path d="M177.634 105.623H110.747C110.063 105.622 109.509 105.057 109.508 104.36V87.4375C109.509 86.7402 110.063 86.1751 110.747 86.1742H177.634C178.318 86.1751 178.872 86.7402 178.872 87.4375V104.36C178.872 105.058 178.318 105.623 177.634 105.624V105.623ZM110.747 86.6795C110.336 86.6799 110.004 87.019 110.003 87.4375V104.36C110.004 104.779 110.336 105.118 110.747 105.118H177.634C178.044 105.118 178.377 104.779 178.377 104.36V87.4375C178.377 87.019 178.044 86.6799 177.634 86.6795H110.747Z" fill="#E6E6E6"/>
<path d="M131.432 92.3598C130.953 92.3701 130.573 92.7744 130.583 93.2628C130.593 93.7367 130.967 94.1184 131.432 94.1284H172.307C172.786 94.1471 173.189 93.7665 173.207 93.2783C173.225 92.7902 172.852 92.3793 172.374 92.3606H131.432V92.3598Z" fill="#E6E6E6"/>
<path d="M131.432 97.6673C130.953 97.6776 130.573 98.0819 130.583 98.5703C130.593 99.0442 130.967 99.4259 131.432 99.4359H172.307C172.786 99.4546 173.189 99.074 173.207 98.5858C173.225 98.0977 172.852 97.6868 172.374 97.6681H131.432V97.6673Z" fill="#E6E6E6"/>
<path d="M119.95 99.4367C121.865 99.4367 123.418 97.8528 123.418 95.899C123.418 93.9453 121.865 92.3614 119.95 92.3614C118.034 92.3614 116.481 93.9453 116.481 95.899C116.481 97.8528 118.034 99.4367 119.95 99.4367Z" fill="#E6E6E6"/>
<path d="M177.634 188.685H110.747C110.063 188.685 109.509 188.12 109.508 187.422V170.5C109.509 169.802 110.063 169.237 110.747 169.237H177.634C178.318 169.237 178.872 169.802 178.872 170.5V187.423C178.872 188.12 178.318 188.685 177.634 188.686V188.685ZM110.747 169.742C110.336 169.742 110.004 170.081 110.003 170.5V187.423C110.004 187.841 110.336 188.18 110.747 188.181L170.036 187.585C170.446 187.584 176.667 185.218 176.668 184.799L178.377 170.5C178.377 170.081 178.044 169.742 177.634 169.742H110.747Z" fill="#E6E6E6"/>
<path d="M131.432 177.945C130.953 177.934 130.557 178.322 130.547 178.81C130.536 179.299 130.916 179.703 131.395 179.713C131.407 179.714 131.42 179.714 131.432 179.713H172.307C172.786 179.732 173.189 179.351 173.207 178.863C173.225 178.375 172.852 177.964 172.374 177.946H131.432V177.945Z" fill="#E6E6E6"/>
<path d="M119.95 182.499C121.865 182.499 123.418 180.915 123.418 178.961C123.418 177.008 121.865 175.424 119.95 175.424C118.034 175.424 116.481 177.008 116.481 178.961C116.481 180.915 118.034 182.499 119.95 182.499Z" fill="#E6E6E6"/>
<path d="M177.634 153.671H110.747C110.063 153.67 109.509 153.105 109.508 152.408V135.485C109.509 134.788 110.063 134.223 110.747 134.222H177.634C178.318 134.223 178.872 134.788 178.872 135.485V152.408C178.872 153.105 178.318 153.671 177.634 153.671V153.671ZM110.747 134.727C110.336 134.728 110.004 135.067 110.003 135.485V152.408C110.004 152.827 110.336 153.166 110.747 153.166L170.036 152.57C170.446 152.57 176.667 150.203 176.668 149.785L178.377 135.485C178.377 135.067 178.044 134.728 177.634 134.727H110.747Z" fill="#E6E6E6"/>
<path d="M131.432 142.93C130.953 142.92 130.557 143.308 130.547 143.796C130.536 144.284 130.916 144.689 131.395 144.699C131.407 144.699 131.42 144.699 131.432 144.699H172.307C172.786 144.718 173.189 144.337 173.207 143.849C173.225 143.361 172.852 142.95 172.374 142.931H131.432V142.93Z" fill="#E6E6E6"/>
<path d="M119.95 147.485C121.865 147.485 123.418 145.901 123.418 143.947C123.418 141.993 121.865 140.409 119.95 140.409C118.034 140.409 116.481 141.993 116.481 143.947C116.481 145.901 118.034 147.485 119.95 147.485Z" fill="#E6E6E6"/>
<path d="M278.327 68.4852C283.724 68.4852 288.099 64.0229 288.099 58.5183C288.099 53.0137 283.724 48.5514 278.327 48.5514C272.93 48.5514 268.555 53.0137 268.555 58.5183C268.555 64.0229 272.93 68.4852 278.327 68.4852Z" fill="#FFB6B6"/>
<path d="M285.504 66.7076C286.042 66.8012 286.674 65.4705 287.278 64.1745C288.542 61.4614 289.346 59.7367 289.407 57.2988C289.459 55.221 288.893 55.7663 288.343 51.1469C288.161 49.6233 285.609 49.6262 285.09 48.9027C284.212 47.6806 285.558 47.1766 283.375 46.4425C279.287 45.0674 277.438 47.2035 274.841 47.3876C274.775 47.3922 273.488 48.6762 272.769 48.7426C271.51 48.8589 269.692 48.6588 268.878 46.7014C268.116 44.8713 267.612 50.2194 268.292 50.8813C268.87 51.4432 269.867 52.8537 269.893 52.9563C269.922 53.0724 267.522 50.3611 267.121 51.4784C266.833 52.2825 267.741 56.4195 268.474 56.575C269.087 56.705 270.586 54.6442 270.248 55.4894C269.463 57.4496 274.18 58.7004 279.827 54.7657C280.028 54.6261 279.838 54.8487 280.537 56.575C281.418 58.7524 281.617 58.8703 281.601 59.4701C281.568 60.7683 280.612 61.1505 280.892 62.0032C281.118 62.6938 282.002 63.2285 282.666 63.0888C283.415 62.9312 283.543 61.9864 284.085 62.0032C284.549 62.0176 285.1 62.7308 285.149 63.4507C285.253 64.9672 283.052 65.3843 282.666 67.4313C282.448 68.5866 285.01 66.6216 285.504 66.7076Z" fill="#2F2E41"/>
<path d="M307.619 146.376C307.661 145.26 307.441 144.15 306.976 143.138L307.983 131.507L302.541 131.181L302.106 143.017C301.592 144.003 301.318 145.101 301.306 146.218C301.237 149.012 302.595 151.313 304.338 151.357C306.081 151.402 307.55 149.173 307.618 146.379L307.619 146.376Z" fill="#FFB6B6"/>
<path d="M296.042 99.473L300.334 113.001L301.566 140.631L308.749 140.482L309.306 110.216C309.306 110.216 305.726 87.8524 304.527 82.8259C303.329 77.7993 292.275 79.6621 292.275 79.6621L296.042 99.473Z" fill="#2F2E41"/>
<path d="M118.049 64.2024C120.079 64.8896 122.206 65.5853 124.372 65.4679C125.358 65.4145 126.306 65.1747 127.201 64.7482C128.118 64.3108 128.956 63.7168 129.884 63.3024C133.296 61.7793 136.679 64.3811 139.861 65.3577C141.449 65.8449 143.118 65.9615 144.671 65.2829C146.387 64.5331 147.681 63.1024 149.093 61.9078C152.26 59.2294 156.393 57.7854 160.503 57.8946C165.012 58.0143 169.377 60.0457 172.482 63.3685C172.743 63.6471 173.156 63.2246 172.896 62.9465C170.182 60.0426 166.526 58.0848 162.632 57.4915C158.729 56.897 154.678 57.6914 151.247 59.6735C149.511 60.6765 148.118 62.0494 146.589 63.3307C145.099 64.5784 143.443 65.3825 141.479 65.1173C138.096 64.6605 135.186 62.0016 131.678 62.2427C129.437 62.3967 127.836 64.1163 125.728 64.6645C123.212 65.3185 120.583 64.4321 118.205 63.6269C117.847 63.5055 117.693 64.0817 118.049 64.2024Z" fill="#3F3D56"/>
<path d="M124.401 67.3825C125.598 67.3825 126.568 66.3928 126.568 65.1718C126.568 63.9509 125.598 62.9612 124.401 62.9612C123.204 62.9612 122.233 63.9509 122.233 65.1718C122.233 66.3928 123.204 67.3825 124.401 67.3825Z" fill="#10B981"/>
<path d="M143.112 67.4804C144.309 67.4804 145.28 66.4906 145.28 65.2697C145.28 64.0488 144.309 63.059 143.112 63.059C141.915 63.059 140.945 64.0488 140.945 65.2697C140.945 66.4906 141.915 67.4804 143.112 67.4804Z" fill="#10B981"/>
<path d="M162.115 59.9813C163.312 59.9813 164.282 58.9916 164.282 57.7706C164.282 56.5497 163.312 55.5599 162.115 55.5599C160.918 55.5599 159.947 56.5497 159.947 57.7706C159.947 58.9916 160.918 59.9813 162.115 59.9813Z" fill="#10B981"/>
<path d="M36.3459 134.467C29.9375 153.077 38.1025 167.739 36.4081 158.281C34.992 150.377 59.1215 126.325 66.3847 131.284C66.2325 130.482 61.6159 116.01 61.1634 115.943C61.7965 114.317 60.9141 114.302 60.8782 113.469C60.7409 110.25 61.4743 106.91 62.9029 103.471C63.8392 100.815 63.8556 98.5328 62.9482 96.6926C62.1674 95.18 60.8557 94.0238 59.2752 93.4549L54.5159 87.5924C53.2761 86.0665 51.4476 82.7739 49.5049 82.7863L39.076 82.4063C38.7779 82.2236 35.1159 85.4354 31.5503 87.0115C27.6831 88.7224 28.4809 93.3921 28.4906 93.4518L28.4996 93.5075L28.5421 93.5473L34.2264 110.612L39.3623 115.521C39.1021 116.291 39.1673 116.869 39.6545 117.2C38.955 117.728 35.8435 133.516 36.3459 134.069L36.3459 134.467Z" fill="#10B981"/>
<path d="M89.9336 100.695C89.1581 101.01 88.468 101.511 87.921 102.154L79.6623 105.042L81.1244 109.009L89.3445 105.653C90.1775 105.713 91.0124 105.568 91.7792 105.231C93.7091 104.414 94.8611 102.736 94.3508 101.484C93.8406 100.231 91.8635 99.8777 89.9336 100.695Z" fill="#FFB6B6"/>
<path d="M45.8783 87.9608L64.7189 113.899L86.8036 107.696L85.8436 101.82L69.0265 105.069L59.6447 90.3581C56.5811 84.3181 50.5429 83.1018 45.8783 87.9604V87.9608Z" fill="#10B981"/>
<path d="M181.195 218.756H172.598C171.096 218.756 169.874 217.51 169.874 215.978C168.244 211.462 168.039 207.41 169.874 204.026C169.874 202.495 171.096 201.249 172.598 201.249C175.14 199.368 178.104 199.939 181.195 201.249C182.697 201.249 183.918 202.495 183.918 204.026C182.875 207.855 182.951 211.851 183.918 215.978C183.918 217.51 182.697 218.756 181.195 218.756Z" fill="#10B981"/>
<path d="M180.364 206.568H173.42C173.18 206.568 172.986 206.37 172.986 206.125C172.986 205.881 173.18 205.683 173.42 205.683H180.364C180.604 205.683 180.798 205.881 180.798 206.125C180.798 206.37 180.604 206.568 180.364 206.568Z" fill="white"/>
<path d="M180.364 210.108H173.42C173.18 210.108 172.986 209.91 172.986 209.666C172.986 209.421 173.18 209.223 173.42 209.223H180.364C180.604 209.223 180.798 209.421 180.798 209.666C180.798 209.91 180.604 210.108 180.364 210.108Z" fill="white"/>
<path d="M180.364 213.649H173.42C173.18 213.649 172.986 213.451 172.986 213.207C172.986 212.962 173.18 212.764 173.42 212.764H180.364C180.604 212.764 180.798 212.962 180.798 213.207C180.798 213.451 180.604 213.649 180.364 213.649Z" fill="white"/>
<path d="M332.5 234.848H0.5V235.517H332.5V234.848Z" fill="#E6E6E6"/>
<path d="M259.615 145.448C259.897 148.228 261.532 150.333 263.266 150.15C265 149.967 266.178 147.565 265.896 144.785C265.798 143.672 265.44 142.6 264.853 141.657L263.512 129.892L258.112 130.651L260.006 142.166C259.621 143.212 259.486 144.336 259.614 145.445L259.615 145.448Z" fill="#FFB6B6"/>
<path d="M267.562 97.7631L269.799 77.7126C269.799 77.7126 258.637 76.7364 257.827 81.8431C257.017 86.9498 255.161 109.53 255.161 109.53L258.036 139.659L265.209 139.236L264.32 111.592L267.562 97.7631Z" fill="#2F2E41"/>
<path d="M51.9346 80.1979L36.8531 81.5986L36.4081 65.6112L52.8383 65.1354L51.9346 80.1979Z" fill="#2F2E41"/>
<path d="M44.3083 78.052C48.6795 78.052 52.223 74.4378 52.223 69.9794C52.223 65.521 48.6795 61.9068 44.3083 61.9068C39.9371 61.9068 36.3935 65.521 36.3935 69.9794C36.3935 74.4378 39.9371 78.052 44.3083 78.052Z" fill="#FFB6B6"/>
<path d="M50.6751 62.1136C50.6194 60.1106 48.1757 59.8937 46.2717 59.3994L44.5452 58.4855C42.8506 58.0455 41.0526 58.355 39.5933 59.3378L34.9896 62.1823C32.9224 63.5746 32.5941 65.8249 31.7535 68.2016L30.232 71.6806C29.4045 74.0202 30.498 77.1202 31.3345 79.4565L31.685 80.4355L31.1369 83.6395L40.7309 83.1825L41.5836 78.2363L39.946 76.3587C39.3649 75.6925 39.3178 74.7033 39.8328 73.9828C41.6853 71.391 41.3419 67.7588 41.3419 67.7588L43.6864 69.0631C45.2268 69.2775 46.5995 69.254 47.8074 68.9965C49.1357 68.7134 50.2646 68.1473 51.1976 67.3034L52.0335 70.1708C52.2488 73.7396 51.5949 74.6868 48.4762 78.1776L53.9453 81.6795L53.743 79.7844C53.2619 75.2762 54.7288 71.7212 54.5231 68.052C54.3809 65.5149 52.9015 63.2545 50.6751 62.1136Z" fill="#2F2E41"/>
<path d="M51.9852 130.182C51.2125 129.86 50.3753 129.731 49.5435 129.806L41.6372 126.029L39.9855 129.918L48.1833 133.331C48.7419 133.964 49.441 134.451 50.2221 134.752C52.1665 135.533 54.1378 135.143 54.6242 133.88C55.1106 132.618 53.9295 130.963 51.9852 130.182Z" fill="#FFB6B6"/>
<path d="M28.9793 89.8017L24.8562 121.808L44.9641 132.999L48.277 128.093L33.9701 118.511L37.2458 101.282C39.1577 94.7676 35.6442 89.6134 28.9796 89.8015L28.9793 89.8017Z" fill="#10B981"/>
</g>
<defs>
<clipPath id="clip0_1219_1094">
<rect width="332" height="236" fill="white" transform="translate(0.5)"/>
</clipPath>
</defs>
</svg>
