<svg width="332" height="191" viewBox="0 0 332 191" fill="none" xmlns="http://www.w3.org/2000/svg">
<g clip-path="url(#clip0_2_202)">
<path d="M272.096 182.649L268.644 181.898L270.732 167.138L275.825 168.246L272.096 182.649Z" fill="#FFB6B6"/>
<path d="M258.468 186.455C258.318 186.993 258.607 187.528 259.115 187.65L265.924 189.29C265.924 189.29 267.293 186.952 270.326 186.534L269.515 190.154L273.028 191L274.21 185.15C274.21 185.15 276.01 182.301 274.498 180.259C272.986 178.217 274.505 178.817 274.505 178.817L274.733 175.074L269.263 174.375L267.661 179.951L263.535 184.873L259.272 185.695C258.893 185.768 258.577 186.067 258.468 186.455Z" fill="#2F2E41"/>
<path d="M305.185 179.166L302.037 180.679L293.274 168.209L297.92 165.976L305.185 179.166Z" fill="#FFB6B6"/>
<path d="M297.503 190.282C297.766 190.781 298.361 191.012 298.832 190.799L305.153 187.935C305.153 187.935 304.554 185.333 306.565 183.185L308.487 186.424L311.748 184.947L308.544 179.79C308.544 179.79 307.913 176.54 305.334 175.902C302.754 175.263 304.328 174.801 304.328 174.801L301.877 171.822L297.232 174.592L299.925 179.793L300.242 186.022L297.581 189.219C297.344 189.503 297.313 189.921 297.503 190.282Z" fill="#2F2E41"/>
<path d="M120.564 124.346H212.054C213.206 124.346 214.14 123.479 214.14 122.411V2.29682C214.14 1.22815 213.206 0.361816 212.054 0.361816H120.564C119.412 0.361816 118.478 1.22815 118.478 2.29682V122.411C118.478 123.479 119.412 124.346 120.564 124.346Z" fill="white"/>
<path d="M214.53 124.708H118.088V0H214.53V124.708ZM118.868 123.984H213.75V0.723882H118.868V123.984Z" fill="#E6E6E6"/>
<path d="M192.856 19.9778C193.227 19.9778 193.528 20.257 193.528 20.6014V21.8487C193.528 22.1931 193.227 22.4723 192.856 22.4723H139.762C139.391 22.4723 139.09 22.1931 139.09 21.8487V20.6014C139.09 20.257 139.391 19.9778 139.762 19.9778H192.856Z" fill="#E6E6E6"/>
<path d="M192.856 25.9011C193.227 25.9011 193.528 26.1803 193.528 26.5247V27.772C193.528 28.1164 193.227 28.3956 192.856 28.3956H139.762C139.391 28.3956 139.09 28.1164 139.09 27.772V26.5247C139.09 26.1803 139.391 25.9011 139.762 25.9011H192.856Z" fill="#E6E6E6"/>
<path d="M192.856 31.8252C193.227 31.8252 193.528 32.1044 193.528 32.4488V33.6961C193.528 34.0405 193.227 34.3197 192.856 34.3197H139.762C139.391 34.3197 139.09 34.0405 139.09 33.6961V32.4492C139.09 32.1048 139.391 31.8256 139.762 31.8256L192.856 31.8252Z" fill="#10B981"/>
<path d="M290.583 47.3662H308.219C308.193 46.5974 308.369 45.8343 308.732 45.1427C308.742 45.9102 308.924 46.6673 309.266 47.3662H310.067C311.293 47.365 312.286 46.4438 312.287 45.3069V34.6739C312.286 29.4677 307.488 21.6633 302.275 24.9291C302.107 24.921 299.464 23.835 299.296 23.835C294.71 23.8384 293.133 27.6783 291.748 31.7348C290.169 31.0601 289.082 33.8765 288.295 38.8338C288.066 40.2805 287.862 41.9094 287.679 43.6872C287.173 45.1787 288.067 46.7682 289.674 47.2372C289.969 47.3231 290.275 47.3671 290.584 47.3676L290.583 47.3662Z" fill="#2F2E41"/>
<path d="M255.974 108.156C255.1 110.079 255.46 112.056 256.779 112.572C258.098 113.088 259.876 111.948 260.75 110.024C261.111 109.26 261.269 108.427 261.212 107.595L264.806 99.4031L260.627 97.9199L257.526 106.153C256.843 106.696 256.311 107.382 255.973 108.155L255.974 108.156Z" fill="#FFB6B6"/>
<path d="M294.617 43.7671L303.047 45.4031L301.754 49.0019L304.34 76.5272L300.03 85.3901L273.739 83.3906L280.204 71.3937C280.204 71.3937 277.618 61.3969 281.066 59.3967C284.514 57.3965 290.117 47.3998 290.117 47.3998L294.617 43.7671Z" fill="#10B981"/>
<path d="M302.475 46.9949L309.943 49.8002L307.357 84.9891L312.96 115.38L294.858 118.179C294.858 118.179 297.013 50.9999 298.306 49.8002C299.599 48.6005 302.475 46.9932 302.475 46.9932V46.9949Z" fill="#2F2E41"/>
<path d="M287.849 51.3835C287.849 51.3835 282.99 48.5311 280.364 50.6431C277.739 52.7552 257.526 103.809 257.526 103.809L262.978 106.006L275.481 81.6834L287.849 51.3835Z" fill="#2F2E41"/>
<path d="M273.929 137.403L268.999 172.563L275.895 172.963C275.895 172.963 279.481 163.886 283.571 153.193C284.442 150.926 285.334 148.587 286.218 146.244C287.174 143.7 288.127 141.157 289.032 138.702C291.269 132.648 293.23 127.138 294.35 123.539C294.544 122.907 294.716 122.336 294.859 121.831C297.874 111.083 299.599 82.9931 299.599 82.9931L274.601 80.9937L274.334 81.3015L268.999 87.4876L269.249 88.7952L275.895 123.38L273.93 137.404L273.929 137.403Z" fill="#2F2E41"/>
<path d="M275.894 123.38L273.928 137.404L282.768 151.843L283.569 153.194L295.741 173.716L301.753 170.553C301.753 170.553 293.931 153.874 289.03 138.702C288.487 137.035 287.983 135.383 287.53 133.776C286.198 129.069 288.379 120.48 287.526 118.112C284.643 110.123 275.247 94.1398 270.885 86.8992L269.247 88.7946L275.894 123.38Z" fill="#2F2E41"/>
<path d="M278.443 78.0224L278.428 78.0627L278.42 78.105L272.041 113.618L259.338 111.776L281.887 50.5946L289.393 47.9255L278.443 78.0224Z" fill="#2F2E41" stroke="black"/>
<path d="M312.051 114.002C312.273 116.079 313.608 117.656 315.033 117.525C316.457 117.393 317.432 115.603 317.21 113.526C317.133 112.695 316.843 111.893 316.364 111.187L315.304 102.397L310.869 102.947L312.385 111.553C312.064 112.333 311.95 113.173 312.051 114.002Z" fill="#FFB6B6"/>
<path d="M306.925 49.8019C306.925 49.8019 312.528 48.6022 314.252 51.4015C315.976 54.2008 316.838 108.584 316.838 108.584L310.91 108.984L307.788 82.193L306.926 49.803L306.925 49.8019Z" fill="#2F2E41"/>
<path d="M299.775 42.797C304.723 42.797 308.734 39.0755 308.734 34.4848C308.734 29.8941 304.723 26.1726 299.775 26.1726C294.827 26.1726 290.816 29.8941 290.816 34.4848C290.816 39.0755 294.827 42.797 299.775 42.797Z" fill="#FFB6B6"/>
<path d="M303.371 47.3657H307.796C308.02 47.3657 308.212 47.2049 308.222 46.9965L308.223 46.9736C308.247 46.5393 308.904 46.4662 309.057 46.8774C309.118 47.0429 309.188 47.2058 309.266 47.3657H309.701V34.5508C309.701 32.3529 307.781 30.571 305.412 30.571C303.389 30.571 301.641 31.882 301.217 33.7169C301.217 33.7169 298.211 37.1386 299.983 39.0624C301.755 40.9861 299.177 42.552 299.177 42.552C298.604 45.0295 300.64 47.3657 303.371 47.3657Z" fill="#2F2E41"/>
<path d="M156.674 62.293C157.666 61.6989 157.876 60.4275 157.181 59.5409L153.928 55.3875C153.168 54.4164 151.703 54.2006 150.657 54.9056C150.564 54.968 150.476 55.0367 150.394 55.1111C144.886 57.8435 141.92 61.8338 145.217 66.5507C145.217 67.3385 145.279 68.1251 145.403 68.9045C145.456 69.2426 145.579 69.5734 145.787 69.8555C146.404 70.6933 147.494 71.0008 148.452 70.7109L153.773 69.1069C154.904 68.7661 155.516 67.621 155.098 66.5885C154.559 65.2542 154.781 63.4254 156.674 62.293Z" fill="#F2F2F2"/>
<path d="M169.302 74.5448C167.771 74.4046 166.464 75.575 166.464 77.0023V81.2608C166.464 81.3712 166.474 81.4813 166.492 81.5904C166.688 82.7771 167.885 83.5911 169.164 83.4086C176.621 84.2612 181.716 81.2526 182.023 74.6518C182.072 74.5592 182.114 74.4635 182.148 74.3654C182.545 73.2248 181.871 72.0012 180.641 71.6325L176.186 70.2895C174.649 69.8262 173.052 70.752 172.783 72.2304C172.54 73.5658 171.59 74.7544 169.302 74.5448Z" fill="#E6E6E6"/>
<path d="M141.759 78.7087C143.306 87.224 151.359 90.4545 159.758 90.9652C159.922 90.9886 160.088 91.0004 160.255 91.0005C162.066 91.0014 163.536 89.6396 163.537 87.9589V80.8381C163.537 78.8463 161.777 77.295 159.63 77.275C157.555 77.2556 156.202 76.3444 155.647 74.6715C155.012 72.7606 152.749 71.753 150.699 72.371L143.693 74.4831C142.786 74.7565 142.051 75.3825 141.681 76.1983C141.313 77.0059 141.341 77.9222 141.759 78.7087Z" fill="#3F3D56"/>
<path d="M184.919 49.2646C183.626 48.0896 181.551 48.1095 180.285 49.3091C180.172 49.4158 180.068 49.5302 179.974 49.6512L173.749 57.6004C172.953 58.6169 173.408 60.033 174.652 60.5293C177.566 61.6918 177.26 64.3014 176.311 65.8985C175.846 66.6811 176.23 67.6606 177.146 67.9368L187.635 71.0991C189.361 71.616 191.212 70.7371 191.769 69.1359C191.825 68.9747 191.867 68.8095 191.893 68.6418C192.073 67.5276 192.164 66.4025 192.164 65.2758C193.938 59.1367 191.483 53.3495 184.919 49.2646Z" fill="#10B981"/>
<path d="M166.905 58.4818C168.067 59.0889 169.534 58.7953 170.318 57.7942L172.403 55.1313C172.808 54.6149 172.949 53.9599 172.788 53.3391C172.632 52.7296 172.197 52.2141 171.596 51.9286C166.689 47.8148 160.88 47.5623 155.955 51.9076C155.336 52.1974 154.885 52.7249 154.722 53.3503C154.562 53.9668 154.701 54.6177 155.103 55.1304L157.54 58.2424C158.377 59.3113 159.999 59.5909 161.152 58.8162C162.828 57.6905 165.263 57.6242 166.905 58.4818Z" fill="#E6E6E6"/>
<path d="M332 190.368H0V190.977H332V190.368Z" fill="#E6E6E6"/>
<path d="M139.43 112.127C139.617 111.391 140.497 111.149 141.216 111.177C141.67 111.206 142.121 111.272 142.562 111.375C143.024 111.471 143.482 111.584 143.937 111.705C144.772 111.925 145.597 112.192 146.446 112.365C147.158 112.546 147.907 112.556 148.624 112.395C149.314 112.219 149.857 111.725 150.06 111.088C150.266 110.48 149.969 109.822 149.358 109.532C148.792 109.242 148.08 109.433 147.768 109.959C147.763 109.966 147.759 109.974 147.754 109.982C147.492 110.63 147.698 111.361 148.268 111.807C148.561 112.061 148.881 112.287 149.224 112.48C149.572 112.7 149.959 112.861 150.367 112.955C151.062 113.126 151.797 112.86 152.183 112.297C152.26 112.163 152.306 112.015 152.319 111.863C152.339 111.656 151.991 111.657 151.971 111.863C151.912 112.455 151.165 112.732 150.605 112.667C150.228 112.609 149.868 112.479 149.547 112.286C149.238 112.119 148.945 111.927 148.671 111.712C148.197 111.332 147.752 110.706 148.071 110.112C148.319 109.73 148.853 109.607 149.264 109.837C149.319 109.867 149.37 109.904 149.417 109.945C149.914 110.323 149.826 111.008 149.497 111.457C149.103 111.925 148.494 112.194 147.854 112.184C147.178 112.185 146.507 112.087 145.864 111.894C145.063 111.683 144.269 111.447 143.464 111.248C143.007 111.135 142.546 111.033 142.081 110.954C141.64 110.864 141.188 110.835 140.739 110.868C139.98 110.901 139.324 111.368 139.094 112.04C139.043 112.243 139.379 112.329 139.43 112.127Z" fill="#3F3D56"/>
<path d="M153.208 103.711C153.313 103.711 153.398 103.99 153.398 104.335V105.582C153.398 105.926 153.313 106.205 153.208 106.205H138.201C138.096 106.205 138.011 105.926 138.011 105.582V104.335C138.011 103.99 138.096 103.711 138.201 103.711H153.208Z" fill="#E6E6E6"/>
<path d="M193.338 103.711C193.443 103.711 193.528 103.99 193.528 104.335V105.582C193.528 105.926 193.443 106.205 193.338 106.205H178.332C178.227 106.205 178.142 105.926 178.142 105.582V104.335C178.142 103.99 178.227 103.711 178.332 103.711H193.338Z" fill="#E6E6E6"/>
<path d="M186.656 110.736L183.678 111.65L182.188 112.107C181.731 112.288 181.235 112.372 180.738 112.354C180.371 112.331 180.049 112.119 179.904 111.805C179.841 111.491 179.987 111.172 180.274 110.995C180.985 110.493 181.884 111.004 182.388 111.524C183.004 112.159 183.353 112.98 183.93 113.645C184.445 114.242 185.097 114.724 185.839 115.056C187.321 115.739 189.09 115.599 190.427 114.693C191.997 113.569 192.157 111.621 192.165 109.922C192.159 109.758 192.011 109.631 191.836 109.636C191.668 109.642 191.534 109.766 191.528 109.922C191.521 111.462 191.426 113.35 189.913 114.313C188.463 115.237 186.558 114.992 185.222 114.008C184.534 113.44 183.962 112.761 183.532 112.005C183.056 111.281 182.464 110.582 181.567 110.301C180.773 110.034 179.887 110.321 179.446 110.989C179.065 111.583 179.276 112.35 179.916 112.703C179.966 112.73 180.017 112.754 180.07 112.775C181.11 113.236 182.3 112.697 183.302 112.389L186.827 111.309C187.214 111.19 187.048 110.619 186.658 110.738L186.656 110.736Z" fill="#10B981"/>
<path d="M54.2832 179.523C54.2443 179.491 54.2144 179.475 54.1941 179.475C53.7081 179.479 53.2751 179.715 53.0365 180.107L47.8037 189.123C47.684 189.319 47.6252 189.534 47.6272 189.748C47.6293 189.962 47.692 190.176 47.8154 190.37C48.062 190.759 59.6186 190.898 59.6186 190.898C60.1046 190.894 61.4384 185.348 54.2832 179.523Z" fill="#E6E6E6"/>
<path d="M34.283 188.714L38.2548 188.682L40.0104 174.453L34.1484 174.5L34.283 188.714Z" fill="#FFB6B6"/>
<path d="M47.8901 188.52C48.0156 188.713 48.0867 189.336 48.0888 189.56C48.0953 190.251 47.497 190.816 46.7525 190.822L34.4523 190.922C33.9445 190.926 33.5291 190.547 33.5247 190.076L33.5202 189.601C33.5202 189.601 32.8983 188.178 34.1345 186.408C34.1345 186.408 35.7044 187.773 38.0107 185.596L38.6859 184.437L43.6839 187.767L46.4396 188.059C47.0425 188.123 47.5757 188.039 47.8901 188.52Z" fill="#2F2E41"/>
<path d="M49.3933 176.429L53.1671 177.579L59.7422 164.621L54.1724 162.925L49.3933 176.429Z" fill="#FFB6B6"/>
<path d="M62.3505 180.289C62.4031 180.508 62.2553 181.12 62.1797 181.333C61.9475 181.99 61.1857 182.347 60.4783 182.131L48.7917 178.571C48.3091 178.424 48.0464 177.942 48.2048 177.494L48.3646 177.043C48.3646 177.043 48.2667 175.51 50.0489 174.2C50.0489 174.2 51.0647 175.96 54.0011 174.583L55.0408 173.686L58.6261 178.325L61.1358 179.421C61.6849 179.66 62.219 179.739 62.3505 180.289Z" fill="#2F2E41"/>
<path d="M54.7219 93.9264L62.6572 117.533L71.9601 138.748L57.8592 169.276L50.0133 166.44L57.0354 140.018L45.0318 120.29L39.3591 179.512L32.4582 178.746L23.4856 107.805L24.8928 92.3789L54.7219 93.9264Z" fill="#2F2E41"/>
<path d="M46.6031 40.1772L38.0292 38.2571L35.6639 43.469C35.6639 43.469 24.0779 45.2849 23.4857 53.514C23.4857 53.514 21.1766 64.3161 22.6548 67.3336C24.1329 70.3511 27.777 81.0215 27.777 81.0215C27.777 81.0215 22.0072 94.3156 23.4857 95.1373C24.9643 95.9589 56.6454 98.9546 56.6454 97.3089C56.6454 95.6632 57.007 76.11 57.007 76.11L55.7665 46.4851L47.7859 43.7434L46.6031 40.1772Z" fill="#E6E6E6"/>
<path d="M45.152 38.8517C49.9237 38.8517 53.792 35.2628 53.792 30.8356C53.792 26.4085 49.9237 22.8196 45.152 22.8196C40.3802 22.8196 36.512 26.4085 36.512 30.8356C36.512 35.2628 40.3802 38.8517 45.152 38.8517Z" fill="#FFB6B6"/>
<path d="M39.4309 32.0274C40.1205 32.3774 39.467 34.0495 39.8979 34.1939C40.3961 34.3609 42.2114 32.4424 42.2331 30.2942C42.2396 29.6441 42.0783 29.3319 42.2331 28.561C42.4356 27.5526 43.0578 26.3631 43.6341 26.3945C43.9758 26.4131 44.3097 26.8612 44.3347 27.2611C44.3698 27.8217 43.783 28.0425 43.8677 28.3444C44.0289 28.9194 46.4934 29.3157 47.3704 28.3444C48.0579 27.5829 47.5299 26.2464 47.8374 26.1779C48.0641 26.1274 48.3077 26.8632 49.2385 27.6944C49.5892 28.0076 50.1107 28.4734 50.406 28.3444C50.8328 28.158 50.5222 26.8453 50.6396 26.8278C50.7367 26.8134 50.7981 27.7361 51.3401 28.561C52.0365 29.6209 53.4725 30.4375 54.1423 30.0776C54.5526 29.8571 54.5848 29.2436 54.6093 28.7777C54.6608 27.7961 56.1975 25.5377 55.7994 24.4878C54.989 22.3508 53.6024 23.8578 52.9747 23.1448C52.125 22.1795 51.3632 22.6989 49.939 21.6282C48.5478 20.5823 48.5353 19.5306 47.6039 19.4617C46.7651 19.3997 46.4671 20.2299 45.5023 20.1117C44.6849 20.0116 44.5068 19.3678 43.8677 19.4617C43.2825 19.5477 43.2441 20.1149 42.4666 20.3283C41.9702 20.4646 41.861 20.2676 41.299 20.3283C40.1296 20.4546 39.3445 21.4431 39.1974 21.6282C38.6304 22.342 38.8506 22.6429 38.2633 23.3614C37.7569 23.9811 36.634 23.7184 36.212 24.0279C34.8329 25.0393 34.2409 26.9039 34.2297 29.0288C34.2219 30.5151 34.4311 31.266 34.8978 33.1418C35.2522 34.5662 36.8922 36.4065 37.7963 37.2271C38.039 37.4473 38.7193 38.0648 39.1974 37.877C39.6504 37.699 39.6638 36.8993 39.6644 36.7938C39.6663 36.4306 39.5619 35.9813 38.7304 34.8439C37.8569 33.6491 37.51 33.5129 37.5628 33.1107C37.6561 32.3998 38.8812 31.7485 39.4309 32.0274Z" fill="#2F2E41"/>
<path d="M14.9979 111.983C14.697 114.314 15.7491 116.348 17.3479 116.526C18.9467 116.703 20.4867 114.958 20.7875 112.627C20.9193 111.606 20.7917 110.643 20.4725 109.867L21.6139 99.9757L16.5993 99.5776L16.0063 109.371C15.4988 110.055 15.1296 110.963 14.9979 111.983Z" fill="#FFB6B6"/>
<path d="M29.437 46.293C29.437 46.293 26.8389 46.3264 25.1176 49.4429C24.2028 51.099 18.257 80.7815 18.257 80.7815L16.5866 90.1692L17.4451 91.7219C16.0804 93.6584 15.7047 96.0544 16.4181 98.2714L14.7861 107.443L22.4603 107.482L28.4493 83.4544L33.485 69.5194L29.437 46.293Z" fill="#E6E6E6"/>
<path d="M68.6441 111.621C68.945 113.952 67.8928 115.986 66.294 116.163C64.6953 116.341 63.1553 114.596 62.8544 112.265C62.7227 111.244 62.8503 110.281 63.1695 109.505L62.0281 99.6137L67.0427 99.2156L67.6356 109.009C68.1432 109.693 68.5124 110.601 68.6441 111.621Z" fill="#FFB6B6"/>
<path d="M54.205 45.9309C54.205 45.9309 56.803 45.9644 58.5244 49.0808C59.4391 50.7369 65.3849 80.4194 65.3849 80.4194L67.0553 89.8072L66.1969 91.3598C67.5615 93.2963 67.9372 95.6923 67.2238 97.9093L68.8558 107.081L61.1816 107.12L55.1927 83.0923L50.157 69.1574L54.205 45.9309Z" fill="#E6E6E6"/>
<path d="M289.006 33.2506C289.324 33.7346 291.015 31.9637 293.612 31.7684C294.273 31.7175 295.763 34.0658 297.473 34.0998C298.606 34.121 299.303 34.1125 300.698 34.0998C302.347 34.0828 302.799 34.0488 303.117 33.6752C303.734 32.9491 303.226 31.6583 303.521 31.5522C303.767 31.463 304.404 32.2612 304.73 33.2506C305.416 35.3269 302.956 38.2184 302.714 40.8934C302.456 43.7764 304.996 38.2523 304.73 40.8934C304.432 43.8656 303.363 43.6405 303.375 44.7148C303.379 44.8761 303.424 45.0162 303.521 45.1394C303.605 45.2498 303.69 45.2922 305.133 45.564C306.859 45.8909 307.726 46.0522 307.956 45.9886C308.548 45.8272 309.149 44.9313 309.568 44.2902C310.262 43.2414 309.77 44.2986 309.568 43.0164C309.375 41.7765 308.77 41.6152 308.762 40.4688C308.754 39.0251 309.71 38.5878 310.375 37.072C311.605 34.2696 310.403 31.0257 309.972 29.8538C309.764 29.2918 309.389 28.5805 308.73 27.4053C308.201 26.4618 307.499 25.6308 306.644 25.008C305.361 24.0747 303.871 23.4352 302.26 23.1818C301.378 23.043 300.478 23.1159 299.61 23.3354L297.363 23.904C296.419 24.143 295.528 24.5762 294.743 25.1786C294.012 25.1812 293.377 25.6792 293.126 26.4032C293.1 26.4789 293.076 26.523 293.056 26.5166C289.006 25.1832 289.009 29.1324 289.053 31.5995C289.057 31.852 289.049 32.0755 289.018 32.257V32.2697C288.937 32.758 288.917 33.1147 289.006 33.2506Z" fill="#2F2E41"/>
<path d="M236.353 55.0613H193.71V55.7852H236.353V55.0613Z" fill="#3F3D56"/>
<path d="M244.935 60.118C241.923 60.118 239.473 57.8449 239.473 55.0508C239.473 52.2567 241.923 49.9836 244.935 49.9836C247.947 49.9836 250.397 52.2567 250.397 55.0508C250.397 57.8449 247.947 60.118 244.935 60.118ZM244.935 50.7075C242.354 50.7075 240.254 52.656 240.254 55.0508C240.254 57.4457 242.354 59.3941 244.935 59.3941C247.516 59.3941 249.616 57.4457 249.616 55.0508C249.616 52.656 247.516 50.7075 244.935 50.7075Z" fill="#3F3D56"/>
<path d="M244.935 57.5843C246.443 57.5843 247.666 56.4499 247.666 55.0507C247.666 53.6514 246.443 52.5171 244.935 52.5171C243.427 52.5171 242.204 53.6514 242.204 55.0507C242.204 56.4499 243.427 57.5843 244.935 57.5843Z" fill="#10B981"/>
<path d="M138.944 81.845H96.3018V82.5689H138.944V81.845Z" fill="#3F3D56"/>
<path d="M82.2576 81.8343C82.2576 79.0402 84.7076 76.7671 87.7192 76.7671C90.7307 76.7671 93.1808 79.0402 93.1808 81.8343C93.1808 84.6284 90.7307 86.9014 87.7192 86.9014C84.7076 86.9014 82.2576 84.6284 82.2576 81.8343ZM83.0378 81.8343C83.0378 84.2291 85.1379 86.1776 87.7192 86.1776C90.3004 86.1776 92.4005 84.2291 92.4005 81.8343C92.4005 79.4394 90.3004 77.491 87.7192 77.491C85.1379 77.491 83.0378 79.4394 83.0378 81.8343Z" fill="#3F3D56"/>
<path d="M87.7193 84.368C89.2275 84.368 90.4501 83.2336 90.4501 81.8344C90.4501 80.4351 89.2275 79.3008 87.7193 79.3008C86.2111 79.3008 84.9885 80.4351 84.9885 81.8344C84.9885 83.2336 86.2111 84.368 87.7193 84.368Z" fill="#10B981"/>
</g>
<defs>
<clipPath id="clip0_2_202">
<rect width="332" height="191" fill="white"/>
</clipPath>
</defs>
</svg>
