<svg width="380" height="127" viewBox="0 0 380 127" fill="none" xmlns="http://www.w3.org/2000/svg">
<g filter="url(#filter0_d_622_475)">
<path d="M58.8633 20.8079H317.849C330.62 20.8079 342.867 25.321 351.897 33.3544C360.927 41.3878 366 52.2834 366 63.6444C366 75.0054 360.927 85.901 351.897 93.9344C342.867 101.968 330.62 106.481 317.849 106.481H58.8633V20.8079Z" fill="white"/>
</g>
<path d="M118.892 63.3145C118.906 73.7245 115.432 83.9045 108.909 92.5664C102.386 101.228 93.107 107.983 82.2459 111.976C71.3849 115.968 59.43 117.02 47.8938 114.997C36.3576 112.974 25.7585 107.967 17.4374 100.611C9.11639 93.2545 3.44739 83.8786 1.14767 73.6695C-1.15205 63.4604 0.0208664 52.8769 4.51801 43.258C9.01515 33.6391 16.6344 25.4171 26.4118 19.6322C36.1892 13.8474 47.6854 10.7596 59.4458 10.7596V63.2328L118.892 63.3145Z" fill="#273549"/>
<path d="M106.831 70.2832C111.086 46.9656 93.2858 24.9946 67.073 21.2096C40.8601 17.4246 16.1611 33.2589 11.9062 56.5766C7.65122 79.8942 25.4516 101.865 51.6644 105.65C77.8773 109.435 102.576 93.6009 106.831 70.2832Z" fill="white"/>
<path style="mix-blend-mode:multiply" d="M65.5657 98.5482C85.039 98.5482 100.825 84.4602 100.825 67.0818C100.825 49.7034 85.039 35.6155 65.5657 35.6155C46.0924 35.6155 30.3062 49.7034 30.3062 67.0818C30.3062 84.4602 46.0924 98.5482 65.5657 98.5482Z" fill="url(#paint0_radial_622_475)"/>
<path d="M95.7011 6.00422C90.2445 6.48217 85.1242 8.60237 81.1628 12.0242C77.2014 15.4461 74.6288 19.9709 73.8584 24.8718C73.8584 24.954 73.8584 25.0526 73.8584 25.1348C73.569 27.5012 72.2627 29.6706 70.2204 31.1765C68.1781 32.6825 65.5629 33.4047 62.9371 33.188C60.8851 33.0067 58.8185 33.0067 56.7665 33.188C50.2042 33.634 43.9392 35.8404 38.7754 39.5241C33.6117 43.2078 29.7848 48.2006 27.786 53.862C25.7871 59.5233 25.7075 65.5948 27.5572 71.2973C29.407 76.9997 33.1018 82.0731 38.1674 85.8661C43.2331 89.6592 49.4385 91.999 55.9873 92.5853C62.5361 93.1715 69.1295 91.9775 74.9214 89.1563C80.7133 86.3352 85.4394 82.0157 88.4933 76.7522C91.5472 71.4887 92.7894 65.5213 92.0606 59.6158C91.8206 57.2449 92.6205 54.8835 94.2884 53.0395C95.9562 51.1955 98.3589 50.016 100.98 49.7547H101.271C107.594 48.9929 113.332 46.0201 117.252 41.4762C121.172 36.9323 122.959 31.1806 122.228 25.4589C121.498 19.7372 118.31 14.5031 113.348 10.8831C108.387 7.26301 102.05 5.54645 95.7011 6.10283V6.00422Z" fill="#273549"/>
<path d="M63.9756 71.2534V73.7656C63.9756 74.9141 63.8594 75.895 63.627 76.7085C63.3945 77.522 63.0596 78.1885 62.6221 78.708C62.1846 79.2207 61.6616 79.6001 61.0532 79.8462C60.4448 80.0854 59.7681 80.2051 59.0229 80.2051C58.4282 80.2051 57.8745 80.1299 57.3618 79.9795C56.8491 79.8223 56.3877 79.583 55.9775 79.2617C55.5742 78.9336 55.2256 78.5166 54.9316 78.0107C54.6445 77.5049 54.4224 76.8999 54.2651 76.1958C54.1147 75.4917 54.0396 74.6816 54.0396 73.7656V71.2534C54.0396 70.105 54.1558 69.1274 54.3882 68.3208C54.6274 67.5142 54.9658 66.8545 55.4033 66.3418C55.8408 65.8291 56.3638 65.4565 56.9722 65.2241C57.5806 64.9849 58.2573 64.8652 59.0024 64.8652C59.604 64.8652 60.1577 64.9404 60.6636 65.0908C61.1763 65.2412 61.6343 65.4771 62.0376 65.7983C62.4478 66.1128 62.7964 66.5229 63.0835 67.0288C63.3706 67.5278 63.5894 68.1294 63.7397 68.8335C63.897 69.5308 63.9756 70.3374 63.9756 71.2534ZM61.2686 74.1348V70.874C61.2686 70.2998 61.2344 69.8008 61.166 69.377C61.1045 68.9463 61.0122 68.5806 60.8892 68.2798C60.7661 67.979 60.6123 67.7363 60.4277 67.5518C60.2432 67.3604 60.0312 67.2202 59.792 67.1313C59.5527 67.0425 59.2896 66.998 59.0024 66.998C58.647 66.998 58.3291 67.0698 58.0488 67.2134C57.7686 67.3501 57.5327 67.5688 57.3413 67.8696C57.1499 68.1704 57.0029 68.5703 56.9004 69.0693C56.8047 69.5615 56.7568 70.1631 56.7568 70.874V74.1348C56.7568 74.709 56.7876 75.2114 56.8491 75.6421C56.9175 76.0728 57.0132 76.4419 57.1362 76.7495C57.2661 77.0571 57.4199 77.3101 57.5977 77.5083C57.7822 77.6997 57.9941 77.8433 58.2334 77.939C58.4727 78.0278 58.7358 78.0723 59.0229 78.0723C59.3853 78.0723 59.7031 78.0005 59.9766 77.8569C60.2568 77.7134 60.4927 77.4878 60.6841 77.1802C60.8755 76.8657 61.019 76.459 61.1147 75.96C61.2173 75.4541 61.2686 74.8457 61.2686 74.1348ZM76.1982 77.8672V80H66.0879V78.1748L70.938 72.9351C71.4438 72.3608 71.8438 71.8618 72.1377 71.438C72.4316 71.0142 72.6401 70.6313 72.7632 70.2896C72.8931 69.9409 72.958 69.6094 72.958 69.2949C72.958 68.8369 72.876 68.437 72.7119 68.0952C72.5479 67.7466 72.3086 67.4766 71.9941 67.2852C71.6865 67.0938 71.3071 66.998 70.856 66.998C70.3569 66.998 69.9297 67.1143 69.5742 67.3467C69.2256 67.5723 68.959 67.8867 68.7744 68.29C68.5967 68.6934 68.5078 69.1548 68.5078 69.6743H65.7905C65.7905 68.7925 65.9956 67.9893 66.4058 67.2646C66.8159 66.5332 67.4038 65.9487 68.1694 65.5112C68.9351 65.0737 69.8442 64.855 70.897 64.855C71.9224 64.855 72.7905 65.0259 73.5015 65.3677C74.2124 65.7026 74.7524 66.1812 75.1216 66.8032C75.4907 67.4253 75.6753 68.167 75.6753 69.0283C75.6753 69.5068 75.5967 69.9785 75.4395 70.4434C75.2822 70.9082 75.0601 71.3696 74.7729 71.8276C74.4927 72.2788 74.1577 72.7368 73.7681 73.2017C73.3784 73.6665 72.9443 74.1416 72.4658 74.627L69.5537 77.8672H76.1982Z" fill="white"/>
<path d="M50.2049 46.5078C50.1452 45.9496 49.8938 45.5149 49.4506 45.2038C49.0117 44.8928 48.4407 44.7372 47.7375 44.7372C47.2432 44.7372 46.8192 44.8118 46.4655 44.9609C46.1118 45.1101 45.8412 45.3125 45.6537 45.5682C45.4662 45.8239 45.3703 46.1158 45.3661 46.4439C45.3661 46.7166 45.4279 46.9531 45.5514 47.1534C45.6793 47.3537 45.8519 47.5241 46.0692 47.6648C46.2865 47.8011 46.5273 47.9162 46.7915 48.0099C47.0557 48.1037 47.322 48.1825 47.5905 48.2464L48.8178 48.5533C49.3121 48.6683 49.7872 48.8239 50.2432 49.0199C50.7034 49.2159 51.1147 49.4631 51.4769 49.7614C51.8434 50.0597 52.1331 50.4197 52.3462 50.8416C52.5593 51.2635 52.6658 51.7578 52.6658 52.3246C52.6658 53.0916 52.4698 53.767 52.0777 54.3509C51.6857 54.9304 51.1189 55.3842 50.3774 55.7124C49.6402 56.0362 48.7475 56.1982 47.6992 56.1982C46.6807 56.1982 45.7965 56.0405 45.0465 55.7251C44.3007 55.4098 43.7169 54.9496 43.2951 54.3445C42.8774 53.7393 42.6516 53.0021 42.6175 52.1328H44.9506C44.9847 52.5888 45.1253 52.968 45.3725 53.2706C45.6196 53.5732 45.9414 53.799 46.3377 53.9482C46.7382 54.0973 47.1857 54.1719 47.68 54.1719C48.1956 54.1719 48.6473 54.0952 49.0351 53.9418C49.4272 53.7841 49.734 53.5668 49.9556 53.2898C50.1772 53.0085 50.2901 52.6804 50.2943 52.3054C50.2901 51.9645 50.1899 51.6832 49.9939 51.4616C49.7979 51.2358 49.523 51.0483 49.1693 50.8991C48.8199 50.7457 48.4108 50.6094 47.9421 50.4901L46.4527 50.1065C45.3746 49.8295 44.5223 49.4098 43.8959 48.8473C43.2737 48.2805 42.9627 47.5284 42.9627 46.5909C42.9627 45.8196 43.1715 45.1442 43.5891 44.5646C44.011 43.9851 44.5841 43.5355 45.3085 43.2159C46.033 42.892 46.8533 42.7301 47.7695 42.7301C48.6985 42.7301 49.5124 42.892 50.2112 43.2159C50.9144 43.5355 51.4662 43.9808 51.8668 44.5518C52.2674 45.1186 52.474 45.7706 52.4868 46.5078H50.2049ZM54.2047 44.897V42.9091H64.6493V44.897H60.6031V56H58.2508V44.897H54.2047ZM66.6628 56V42.9091H75.177V44.897H69.0342V48.451H74.7359V50.4389H69.0342V54.0121H75.2281V56H66.6628ZM77.5964 56V42.9091H82.5055C83.5111 42.9091 84.3549 43.0966 85.0367 43.4716C85.7228 43.8466 86.2405 44.3622 86.59 45.0185C86.9437 45.6705 87.1205 46.4119 87.1205 47.2429C87.1205 48.0824 86.9437 48.8281 86.59 49.4801C86.2363 50.1321 85.7143 50.6456 85.0239 51.0206C84.3336 51.3913 83.4834 51.5767 82.4735 51.5767H79.2199V49.6271H82.1539C82.742 49.6271 83.2235 49.5249 83.5985 49.3203C83.9735 49.1158 84.2505 48.8345 84.4295 48.4766C84.6127 48.1186 84.7043 47.7074 84.7043 47.2429C84.7043 46.7784 84.6127 46.3693 84.4295 46.0156C84.2505 45.6619 83.9714 45.3871 83.5921 45.1911C83.2171 44.9908 82.7334 44.8906 82.1411 44.8906H79.9678V56H77.5964Z" fill="white"/>
<path d="M97.9108 44.0769C107.567 44.0769 115.395 37.2105 115.395 28.7404C115.395 20.2702 107.567 13.4038 97.9108 13.4038C88.2546 13.4038 80.4268 20.2702 80.4268 28.7404C80.4268 37.2105 88.2546 44.0769 97.9108 44.0769Z" fill="white"/>
<path d="M98.458 38.87L96.2725 35.8944H97.3652V33.9106H99.5508V35.8944H100.644L98.458 38.87ZM106.107 23.9919V31.9269H90.8086V23.9919H106.107ZM107.2 23H89.7158V32.9187H107.2V23Z" fill="#273549"/>
<path d="M98.458 24.9838C99.3275 24.9838 100.161 25.2973 100.776 25.8553C101.391 26.4133 101.736 27.1702 101.736 27.9594C101.736 28.7486 101.391 29.5054 100.776 30.0635C100.161 30.6215 99.3275 30.935 98.458 30.935H103.922V29.9431H105.015V25.9756H103.922V24.9838H98.458ZM95.1797 27.9594C95.1797 27.1702 95.5251 26.4133 96.1399 25.8553C96.7547 25.2973 97.5886 24.9838 98.458 24.9838H92.9941V25.9756H91.9014V29.9431H92.9941V30.935H98.458C97.5886 30.935 96.7547 30.6215 96.1399 30.0635C95.5251 29.5054 95.1797 28.7486 95.1797 27.9594Z" fill="#273549"/>
<path d="M138.756 45.624C139.636 45.624 140.408 45.796 141.072 46.14C141.744 46.484 142.26 46.976 142.62 47.616C142.988 48.248 143.172 48.984 143.172 49.824C143.172 50.664 142.988 51.4 142.62 52.032C142.26 52.656 141.744 53.14 141.072 53.484C140.408 53.828 139.636 54 138.756 54H135.828V45.624H138.756ZM138.696 52.572C139.576 52.572 140.256 52.332 140.736 51.852C141.216 51.372 141.456 50.696 141.456 49.824C141.456 48.952 141.216 48.272 140.736 47.784C140.256 47.288 139.576 47.04 138.696 47.04H137.508V52.572H138.696ZM146.11 46.98V49.08H148.93V50.412H146.11V52.632H149.29V54H144.43V45.612H149.29V46.98H146.11ZM156.924 48.216C156.924 48.664 156.816 49.084 156.6 49.476C156.392 49.868 156.06 50.184 155.604 50.424C155.156 50.664 154.588 50.784 153.9 50.784H152.496V54H150.816V45.624H153.9C154.548 45.624 155.1 45.736 155.556 45.96C156.012 46.184 156.352 46.492 156.576 46.884C156.808 47.276 156.924 47.72 156.924 48.216ZM153.828 49.428C154.292 49.428 154.636 49.324 154.86 49.116C155.084 48.9 155.196 48.6 155.196 48.216C155.196 47.4 154.74 46.992 153.828 46.992H152.496V49.428H153.828ZM162.005 54.084C161.221 54.084 160.501 53.9 159.845 53.532C159.189 53.164 158.669 52.656 158.285 52.008C157.901 51.352 157.709 50.612 157.709 49.788C157.709 48.972 157.901 48.24 158.285 47.592C158.669 46.936 159.189 46.424 159.845 46.056C160.501 45.688 161.221 45.504 162.005 45.504C162.797 45.504 163.517 45.688 164.165 46.056C164.821 46.424 165.337 46.936 165.713 47.592C166.097 48.24 166.289 48.972 166.289 49.788C166.289 50.612 166.097 51.352 165.713 52.008C165.337 52.656 164.821 53.164 164.165 53.532C163.509 53.9 162.789 54.084 162.005 54.084ZM162.005 52.584C162.509 52.584 162.953 52.472 163.337 52.248C163.721 52.016 164.021 51.688 164.237 51.264C164.453 50.84 164.561 50.348 164.561 49.788C164.561 49.228 164.453 48.74 164.237 48.324C164.021 47.9 163.721 47.576 163.337 47.352C162.953 47.128 162.509 47.016 162.005 47.016C161.501 47.016 161.053 47.128 160.661 47.352C160.277 47.576 159.977 47.9 159.761 48.324C159.545 48.74 159.437 49.228 159.437 49.788C159.437 50.348 159.545 50.84 159.761 51.264C159.977 51.688 160.277 52.016 160.661 52.248C161.053 52.472 161.501 52.584 162.005 52.584ZM170.431 54.084C169.847 54.084 169.319 53.984 168.847 53.784C168.383 53.584 168.015 53.296 167.743 52.92C167.471 52.544 167.331 52.1 167.323 51.588H169.123C169.147 51.932 169.267 52.204 169.483 52.404C169.707 52.604 170.011 52.704 170.395 52.704C170.787 52.704 171.095 52.612 171.319 52.428C171.543 52.236 171.655 51.988 171.655 51.684C171.655 51.436 171.579 51.232 171.427 51.072C171.275 50.912 171.083 50.788 170.851 50.7C170.627 50.604 170.315 50.5 169.915 50.388C169.371 50.228 168.927 50.072 168.583 49.92C168.247 49.76 167.955 49.524 167.707 49.212C167.467 48.892 167.347 48.468 167.347 47.94C167.347 47.444 167.471 47.012 167.719 46.644C167.967 46.276 168.315 45.996 168.763 45.804C169.211 45.604 169.723 45.504 170.299 45.504C171.163 45.504 171.863 45.716 172.399 46.14C172.943 46.556 173.243 47.14 173.299 47.892H171.451C171.435 47.604 171.311 47.368 171.079 47.184C170.855 46.992 170.555 46.896 170.179 46.896C169.851 46.896 169.587 46.98 169.387 47.148C169.195 47.316 169.099 47.56 169.099 47.88C169.099 48.104 169.171 48.292 169.315 48.444C169.467 48.588 169.651 48.708 169.867 48.804C170.091 48.892 170.403 48.996 170.803 49.116C171.347 49.276 171.791 49.436 172.135 49.596C172.479 49.756 172.775 49.996 173.023 50.316C173.271 50.636 173.395 51.056 173.395 51.576C173.395 52.024 173.279 52.44 173.047 52.824C172.815 53.208 172.475 53.516 172.027 53.748C171.579 53.972 171.047 54.084 170.431 54.084ZM176.531 45.624V54H174.851V45.624H176.531ZM183.891 45.624V46.98H181.659V54H179.979V46.98H177.747V45.624H183.891ZM193.148 45.624V46.98H189.656V49.128H192.332V50.46H189.656V54H187.976V45.624H193.148ZM195.996 45.624V50.808C195.996 51.376 196.144 51.812 196.44 52.116C196.736 52.412 197.152 52.56 197.688 52.56C198.232 52.56 198.652 52.412 198.948 52.116C199.244 51.812 199.392 51.376 199.392 50.808V45.624H201.084V50.796C201.084 51.508 200.928 52.112 200.616 52.608C200.312 53.096 199.9 53.464 199.38 53.712C198.868 53.96 198.296 54.084 197.664 54.084C197.04 54.084 196.472 53.96 195.96 53.712C195.456 53.464 195.056 53.096 194.76 52.608C194.464 52.112 194.316 51.508 194.316 50.796V45.624H195.996ZM209.871 54H208.191L204.387 48.252V54H202.707V45.612H204.387L208.191 51.372V45.612H209.871V54ZM214.459 45.624C215.339 45.624 216.111 45.796 216.775 46.14C217.447 46.484 217.963 46.976 218.323 47.616C218.691 48.248 218.875 48.984 218.875 49.824C218.875 50.664 218.691 51.4 218.323 52.032C217.963 52.656 217.447 53.14 216.775 53.484C216.111 53.828 215.339 54 214.459 54H211.531V45.624H214.459ZM214.399 52.572C215.279 52.572 215.959 52.332 216.439 51.852C216.919 51.372 217.159 50.696 217.159 49.824C217.159 48.952 216.919 48.272 216.439 47.784C215.959 47.288 215.279 47.04 214.399 47.04H213.211V52.572H214.399ZM223.025 54.084C222.441 54.084 221.913 53.984 221.441 53.784C220.977 53.584 220.609 53.296 220.337 52.92C220.065 52.544 219.925 52.1 219.917 51.588H221.717C221.741 51.932 221.861 52.204 222.077 52.404C222.301 52.604 222.605 52.704 222.989 52.704C223.381 52.704 223.689 52.612 223.913 52.428C224.137 52.236 224.249 51.988 224.249 51.684C224.249 51.436 224.173 51.232 224.021 51.072C223.869 50.912 223.677 50.788 223.445 50.7C223.221 50.604 222.909 50.5 222.509 50.388C221.965 50.228 221.521 50.072 221.177 49.92C220.841 49.76 220.549 49.524 220.301 49.212C220.061 48.892 219.941 48.468 219.941 47.94C219.941 47.444 220.065 47.012 220.313 46.644C220.561 46.276 220.909 45.996 221.357 45.804C221.805 45.604 222.317 45.504 222.893 45.504C223.757 45.504 224.457 45.716 224.993 46.14C225.537 46.556 225.837 47.14 225.893 47.892H224.045C224.029 47.604 223.905 47.368 223.673 47.184C223.449 46.992 223.149 46.896 222.773 46.896C222.445 46.896 222.181 46.98 221.981 47.148C221.789 47.316 221.693 47.56 221.693 47.88C221.693 48.104 221.765 48.292 221.909 48.444C222.061 48.588 222.245 48.708 222.461 48.804C222.685 48.892 222.997 48.996 223.397 49.116C223.941 49.276 224.385 49.436 224.729 49.596C225.073 49.756 225.369 49.996 225.617 50.316C225.865 50.636 225.989 51.056 225.989 51.576C225.989 52.024 225.873 52.44 225.641 52.824C225.409 53.208 225.069 53.516 224.621 53.748C224.173 53.972 223.641 54.084 223.025 54.084Z" fill="#10B981"/>
<path d="M137.763 76L134.991 69.7H135.963L138.51 75.514H137.952L140.517 69.7H141.417L138.654 76H137.763ZM142.22 76V69.7H143.12V76H142.22ZM145.826 72.418H149.066V73.183H145.826V72.418ZM145.907 75.217H149.579V76H145.007V69.7H149.453V70.483H145.907V75.217ZM152.397 76L150.291 69.7H151.218L153.153 75.514H152.685L154.692 69.7H155.52L157.482 75.514H157.032L158.994 69.7H159.849L157.743 76H156.798L154.962 70.609H155.205L153.36 76H152.397ZM168.017 69.7H168.917V76H168.017V69.7ZM164.399 76H163.499V69.7H164.399V76ZM168.098 73.192H164.309V72.409H168.098V73.192ZM173.646 76.072C173.166 76.072 172.719 75.991 172.305 75.829C171.897 75.667 171.543 75.442 171.243 75.154C170.943 74.86 170.709 74.518 170.541 74.128C170.373 73.738 170.289 73.312 170.289 72.85C170.289 72.388 170.373 71.962 170.541 71.572C170.709 71.182 170.943 70.843 171.243 70.555C171.543 70.261 171.897 70.033 172.305 69.871C172.713 69.709 173.16 69.628 173.646 69.628C174.126 69.628 174.567 69.709 174.969 69.871C175.377 70.027 175.731 70.252 176.031 70.546C176.337 70.834 176.571 71.173 176.733 71.563C176.901 71.953 176.985 72.382 176.985 72.85C176.985 73.318 176.901 73.747 176.733 74.137C176.571 74.527 176.337 74.869 176.031 75.163C175.731 75.451 175.377 75.676 174.969 75.838C174.567 75.994 174.126 76.072 173.646 76.072ZM173.646 75.271C173.994 75.271 174.315 75.211 174.609 75.091C174.909 74.971 175.167 74.803 175.383 74.587C175.605 74.365 175.776 74.107 175.896 73.813C176.022 73.519 176.085 73.198 176.085 72.85C176.085 72.502 176.022 72.181 175.896 71.887C175.776 71.593 175.605 71.338 175.383 71.122C175.167 70.9 174.909 70.729 174.609 70.609C174.315 70.489 173.994 70.429 173.646 70.429C173.292 70.429 172.965 70.489 172.665 70.609C172.371 70.729 172.113 70.9 171.891 71.122C171.669 71.338 171.495 71.593 171.369 71.887C171.249 72.181 171.189 72.502 171.189 72.85C171.189 73.198 171.249 73.519 171.369 73.813C171.495 74.107 171.669 74.365 171.891 74.587C172.113 74.803 172.371 74.971 172.665 75.091C172.965 75.211 173.292 75.271 173.646 75.271ZM179.617 76L177.511 69.7H178.438L180.373 75.514H179.905L181.912 69.7H182.74L184.702 75.514H184.252L186.214 69.7H187.069L184.963 76H184.018L182.182 70.609H182.425L180.58 76H179.617ZM191.969 76V70.483H189.809V69.7H195.02V70.483H192.86V76H191.969ZM198.757 76.072C198.277 76.072 197.83 75.991 197.416 75.829C197.008 75.667 196.654 75.442 196.354 75.154C196.054 74.86 195.82 74.518 195.652 74.128C195.484 73.738 195.4 73.312 195.4 72.85C195.4 72.388 195.484 71.962 195.652 71.572C195.82 71.182 196.054 70.843 196.354 70.555C196.654 70.261 197.008 70.033 197.416 69.871C197.824 69.709 198.271 69.628 198.757 69.628C199.237 69.628 199.678 69.709 200.08 69.871C200.488 70.027 200.842 70.252 201.142 70.546C201.448 70.834 201.682 71.173 201.844 71.563C202.012 71.953 202.096 72.382 202.096 72.85C202.096 73.318 202.012 73.747 201.844 74.137C201.682 74.527 201.448 74.869 201.142 75.163C200.842 75.451 200.488 75.676 200.08 75.838C199.678 75.994 199.237 76.072 198.757 76.072ZM198.757 75.271C199.105 75.271 199.426 75.211 199.72 75.091C200.02 74.971 200.278 74.803 200.494 74.587C200.716 74.365 200.887 74.107 201.007 73.813C201.133 73.519 201.196 73.198 201.196 72.85C201.196 72.502 201.133 72.181 201.007 71.887C200.887 71.593 200.716 71.338 200.494 71.122C200.278 70.9 200.02 70.729 199.72 70.609C199.426 70.489 199.105 70.429 198.757 70.429C198.403 70.429 198.076 70.489 197.776 70.609C197.482 70.729 197.224 70.9 197.002 71.122C196.78 71.338 196.606 71.593 196.48 71.887C196.36 72.181 196.3 72.502 196.3 72.85C196.3 73.198 196.36 73.519 196.48 73.813C196.606 74.107 196.78 74.365 197.002 74.587C197.224 74.803 197.482 74.971 197.776 75.091C198.076 75.211 198.403 75.271 198.757 75.271Z" fill="#273549"/>
<path d="M217.185 72L213.992 74H216.387V77H217.983V74H220.378M222.773 69H211.597C211.173 69 210.767 69.1054 210.468 69.2929C210.168 69.4804 210 69.7348 210 70V76C210 76.2652 210.168 76.5196 210.468 76.7071C210.767 76.8946 211.173 77 211.597 77H214.79V76H211.597V71H222.773V76H219.58V77H222.773C223.197 77 223.603 76.8946 223.902 76.7071C224.202 76.5196 224.37 76.2652 224.37 76V70C224.37 69.7348 224.202 69.4804 223.902 69.2929C223.603 69.1054 223.197 69 222.773 69Z" fill="#273549"/>
<defs>
<filter id="filter0_d_622_475" x="38.8633" y="0.807861" width="347.137" height="125.673" filterUnits="userSpaceOnUse" color-interpolation-filters="sRGB">
<feFlood flood-opacity="0" result="BackgroundImageFix"/>
<feColorMatrix in="SourceAlpha" type="matrix" values="0 0 0 0 0 0 0 0 0 0 0 0 0 0 0 0 0 0 127 0" result="hardAlpha"/>
<feOffset/>
<feGaussianBlur stdDeviation="10"/>
<feColorMatrix type="matrix" values="0 0 0 0 0 0 0 0 0 0 0 0 0 0 0 0 0 0 0.1 0"/>
<feBlend mode="normal" in2="BackgroundImageFix" result="effect1_dropShadow_622_475"/>
<feBlend mode="normal" in="SourceGraphic" in2="effect1_dropShadow_622_475" result="shape"/>
</filter>
<radialGradient id="paint0_radial_622_475" cx="0" cy="0" r="1" gradientUnits="userSpaceOnUse" gradientTransform="translate(5793.83 4585.02) scale(1347.62 1202.64)">
<stop/>
<stop offset="1" stop-color="white"/>
</radialGradient>
</defs>
</svg>
