<svg width="378" height="127" viewBox="0 0 378 127" fill="none" xmlns="http://www.w3.org/2000/svg">
<g filter="url(#filter0_d_622_458)">
<path d="M59.1846 20.8079H319.586C332.426 20.8079 344.74 25.321 353.82 33.3544C362.899 41.3878 368 52.2835 368 63.6444C368 75.0054 362.899 85.901 353.82 93.9344C344.74 101.968 332.426 106.481 319.586 106.481H59.1846V20.8079Z" fill="white"/>
</g>
<path d="M119.541 63.3145C119.556 73.7245 116.063 83.9045 109.504 92.5664C102.946 101.228 93.6157 107.983 82.6954 111.976C71.775 115.968 59.7548 117.02 48.1555 114.997C36.5563 112.974 25.8992 107.967 17.5327 100.611C9.16621 93.2545 3.46623 83.8786 1.15394 73.6695C-1.15834 63.4604 0.0209804 52.8769 4.54269 43.258C9.06441 33.6391 16.7253 25.4171 26.5562 19.6322C36.387 13.8474 47.946 10.7596 59.7707 10.7596V63.2328L119.541 63.3145Z" fill="#273549"/>
<path d="M107.415 70.2832C111.693 46.9656 93.7955 24.9946 67.4395 21.2096C41.0834 17.4246 16.2494 33.2589 11.9712 56.5766C7.69301 79.8942 25.5907 101.865 51.9467 105.65C78.3028 109.435 103.137 93.6009 107.415 70.2832Z" fill="white"/>
<path style="mix-blend-mode:multiply" d="M65.9239 98.5482C85.5036 98.5482 101.376 84.4602 101.376 67.0818C101.376 49.7034 85.5036 35.6155 65.9239 35.6155C46.3442 35.6155 30.4717 49.7034 30.4717 67.0818C30.4717 84.4602 46.3442 98.5482 65.9239 98.5482Z" fill="url(#paint0_radial_622_458)"/>
<path d="M96.2238 6.00422C90.7374 6.48217 85.5891 8.60237 81.606 12.0242C77.623 15.4461 75.0364 19.9709 74.2618 24.8718C74.2618 24.954 74.2618 25.0526 74.2618 25.1348C73.9707 27.5012 72.6573 29.6706 70.6039 31.1765C68.5504 32.6825 65.921 33.4047 63.2808 33.188C61.2176 33.0067 59.1396 33.0067 57.0765 33.188C50.4783 33.634 44.179 35.8404 38.9871 39.5241C33.7951 43.2078 29.9474 48.2006 27.9376 53.862C25.9278 59.5233 25.8477 65.5948 27.7076 71.2973C29.5674 76.9997 33.2824 82.0731 38.3757 85.8661C43.4691 89.6592 49.7084 91.999 56.2929 92.5853C62.8775 93.1715 69.507 91.9775 75.3305 89.1563C81.1541 86.3352 85.9061 82.0157 88.9766 76.7522C92.0472 71.4887 93.2962 65.5213 92.5635 59.6158C92.3221 57.2449 93.1264 54.8835 94.8034 53.0395C96.4803 51.1955 98.8961 50.016 101.531 49.7547H101.824C108.181 48.9929 113.951 46.0201 117.892 41.4762C121.833 36.9323 123.63 31.1806 122.896 25.4589C122.162 19.7372 118.956 14.5031 113.967 10.8831C108.979 7.26301 102.607 5.54645 96.2238 6.10283V6.00422Z" fill="#273549"/>
<path d="M60.1646 74.2534V76.7656C60.1646 77.9141 60.0483 78.895 59.8159 79.7085C59.5835 80.522 59.2485 81.1885 58.811 81.708C58.3735 82.2207 57.8506 82.6001 57.2422 82.8462C56.6338 83.0854 55.957 83.2051 55.2119 83.2051C54.6172 83.2051 54.0635 83.1299 53.5508 82.9795C53.0381 82.8223 52.5767 82.583 52.1665 82.2617C51.7632 81.9336 51.4146 81.5166 51.1206 81.0107C50.8335 80.5049 50.6113 79.8999 50.4541 79.1958C50.3037 78.4917 50.2285 77.6816 50.2285 76.7656V74.2534C50.2285 73.105 50.3447 72.1274 50.5771 71.3208C50.8164 70.5142 51.1548 69.8545 51.5923 69.3418C52.0298 68.8291 52.5527 68.4565 53.1611 68.2241C53.7695 67.9849 54.4463 67.8652 55.1914 67.8652C55.793 67.8652 56.3467 67.9404 56.8525 68.0908C57.3652 68.2412 57.8232 68.4771 58.2266 68.7983C58.6367 69.1128 58.9854 69.5229 59.2725 70.0288C59.5596 70.5278 59.7783 71.1294 59.9287 71.8335C60.0859 72.5308 60.1646 73.3374 60.1646 74.2534ZM57.4575 77.1348V73.874C57.4575 73.2998 57.4233 72.8008 57.355 72.377C57.2935 71.9463 57.2012 71.5806 57.0781 71.2798C56.9551 70.979 56.8013 70.7363 56.6167 70.5518C56.4321 70.3604 56.2202 70.2202 55.981 70.1313C55.7417 70.0425 55.4785 69.998 55.1914 69.998C54.8359 69.998 54.5181 70.0698 54.2378 70.2134C53.9575 70.3501 53.7217 70.5688 53.5303 70.8696C53.3389 71.1704 53.1919 71.5703 53.0894 72.0693C52.9937 72.5615 52.9458 73.1631 52.9458 73.874V77.1348C52.9458 77.709 52.9766 78.2114 53.0381 78.6421C53.1064 79.0728 53.2021 79.4419 53.3252 79.7495C53.4551 80.0571 53.6089 80.3101 53.7866 80.5083C53.9712 80.6997 54.1831 80.8433 54.4224 80.939C54.6616 81.0278 54.9248 81.0723 55.2119 81.0723C55.5742 81.0723 55.8921 81.0005 56.1655 80.8569C56.4458 80.7134 56.6816 80.4878 56.873 80.1802C57.0645 79.8657 57.208 79.459 57.3037 78.96C57.4062 78.4541 57.4575 77.8457 57.4575 77.1348ZM69.2495 68.0293V83H66.5322V71.1978L62.9331 72.3872V70.1929L68.9419 68.0293H69.2495Z" fill="white"/>
<path d="M48.2169 50.674C48.1657 50.1584 47.9463 49.7578 47.5585 49.4723C47.1707 49.1868 46.6444 49.044 45.9797 49.044C45.528 49.044 45.1466 49.108 44.8355 49.2358C44.5244 49.3594 44.2858 49.532 44.1196 49.7536C43.9577 49.9751 43.8767 50.2266 43.8767 50.5078C43.8682 50.7422 43.9172 50.9467 44.0237 51.1214C44.1345 51.2962 44.2858 51.4474 44.4775 51.5753C44.6693 51.6989 44.8909 51.8075 45.1423 51.9013C45.3937 51.9908 45.6622 52.0675 45.9477 52.1314L47.1238 52.4126C47.6949 52.5405 48.219 52.7109 48.6963 52.924C49.1736 53.1371 49.5869 53.3991 49.9363 53.7102C50.2858 54.0213 50.5564 54.3878 50.7481 54.8097C50.9442 55.2315 51.0443 55.7152 51.0486 56.2607C51.0443 57.0618 50.8398 57.7564 50.4349 58.3445C50.0344 58.9283 49.4548 59.3821 48.6963 59.706C47.942 60.0256 47.0322 60.1854 45.9669 60.1854C44.9101 60.1854 43.9896 60.0234 43.2055 59.6996C42.4257 59.3757 41.8163 58.8963 41.3774 58.2614C40.9427 57.6222 40.7148 56.8317 40.6934 55.8899H43.3717C43.4015 56.3288 43.5273 56.6953 43.7488 56.9893C43.9747 57.2791 44.2751 57.4986 44.6501 57.6477C45.0294 57.7926 45.4577 57.8651 45.9349 57.8651C46.4037 57.8651 46.8106 57.7969 47.1558 57.6605C47.5052 57.5241 47.7758 57.3345 47.9676 57.0916C48.1594 56.8487 48.2552 56.5696 48.2552 56.2543C48.2552 55.9602 48.1679 55.7131 47.9932 55.5128C47.8227 55.3125 47.5713 55.142 47.2389 55.0014C46.9108 54.8608 46.5081 54.733 46.0308 54.6179L44.6054 54.2599C43.5017 53.9915 42.6302 53.5717 41.991 53.0007C41.3518 52.4297 41.0344 51.6605 41.0386 50.6932C41.0344 49.9006 41.2453 49.2081 41.6714 48.6158C42.1018 48.0234 42.692 47.5611 43.442 47.2287C44.192 46.8963 45.0443 46.7301 45.9988 46.7301C46.9704 46.7301 47.8184 46.8963 48.5429 47.2287C49.2716 47.5611 49.8383 48.0234 50.2432 48.6158C50.648 49.2081 50.8568 49.8942 50.8696 50.674H48.2169ZM52.4117 49.1911V46.9091H63.1631V49.1911H59.1553V60H56.4195V49.1911H52.4117ZM64.9337 60V46.9091H73.7547V49.1911H67.7014V52.3104H73.3009V54.5923H67.7014V57.718H73.7803V60H64.9337ZM75.9552 60V46.9091H81.1199C82.1128 46.9091 82.9587 47.0987 83.6576 47.478C84.3564 47.853 84.8891 48.375 85.2556 49.044C85.6263 49.7088 85.8117 50.4759 85.8117 51.3452C85.8117 52.2145 85.6242 52.9815 85.2492 53.6463C84.8742 54.3111 84.3309 54.8288 83.6192 55.1996C82.9118 55.5703 82.0553 55.7557 81.0496 55.7557H77.7577V53.5376H80.6022C81.1349 53.5376 81.5738 53.446 81.9189 53.2628C82.2684 53.0753 82.5283 52.8175 82.6988 52.4893C82.8735 52.157 82.9608 51.7756 82.9608 51.3452C82.9608 50.9105 82.8735 50.5312 82.6988 50.2074C82.5283 49.8793 82.2684 49.6257 81.9189 49.4467C81.5695 49.2635 81.1263 49.1719 80.5894 49.1719H78.7229V60H75.9552Z" fill="white"/>
<path d="M98.4458 44.0769C108.155 44.0769 116.025 37.2105 116.025 28.7404C116.025 20.2702 108.155 13.4038 98.4458 13.4038C88.7369 13.4038 80.8662 20.2702 80.8662 28.7404C80.8662 37.2105 88.7369 44.0769 98.4458 44.0769Z" fill="white"/>
<path d="M100.058 22.3942C99.2804 22.3942 98.5352 22.6728 97.9857 23.1687C97.4363 23.6646 97.1276 24.3372 97.1276 25.0385C97.1276 25.7398 97.4363 26.4123 97.9857 26.9082C98.5352 27.4041 99.2804 27.6827 100.058 27.6827C100.835 27.6827 101.58 27.4041 102.129 26.9082C102.679 26.4123 102.987 25.7398 102.987 25.0385C102.987 24.3372 102.679 23.6646 102.129 23.1687C101.58 22.6728 100.835 22.3942 100.058 22.3942ZM100.058 23.6502C100.26 23.6502 100.46 23.6861 100.646 23.7559C100.833 23.8257 101.002 23.9279 101.145 24.0568C101.288 24.1857 101.401 24.3388 101.479 24.5072C101.556 24.6756 101.596 24.8562 101.596 25.0385C101.596 25.2208 101.556 25.4013 101.479 25.5697C101.401 25.7381 101.288 25.8912 101.145 26.0201C101.002 26.149 100.833 26.2512 100.646 26.321C100.46 26.3908 100.26 26.4267 100.058 26.4267C99.8555 26.4267 99.6555 26.3908 99.4689 26.321C99.2822 26.2512 99.1127 26.149 98.9698 26.0201C98.827 25.8912 98.7137 25.7381 98.6364 25.5697C98.5591 25.4013 98.5193 25.2208 98.5193 25.0385C98.5193 24.6703 98.6814 24.3172 98.9698 24.0568C99.2583 23.7965 99.6495 23.6502 100.058 23.6502ZM92.0002 24.3774V26.3606H89.8027V27.6827H92.0002V29.6659H93.4652V27.6827H95.6626V26.3606H93.4652V24.3774H92.0002ZM100.058 28.3437C98.1018 28.3437 94.1976 29.223 94.1976 30.988V32.9711H105.917V30.988C105.917 29.223 102.013 28.3437 100.058 28.3437ZM100.058 29.5998C102.233 29.5998 104.526 30.5649 104.526 30.988V31.7151H95.5894V30.988C95.5894 30.5649 97.8601 29.5998 100.058 29.5998Z" fill="#273549"/>
<path d="M142.148 59L140.3 55.736H139.508V59H137.828V50.624H140.972C141.62 50.624 142.172 50.74 142.628 50.972C143.084 51.196 143.424 51.504 143.648 51.896C143.88 52.28 143.996 52.712 143.996 53.192C143.996 53.744 143.836 54.244 143.516 54.692C143.196 55.132 142.72 55.436 142.088 55.604L144.092 59H142.148ZM139.508 54.476H140.912C141.368 54.476 141.708 54.368 141.932 54.152C142.156 53.928 142.268 53.62 142.268 53.228C142.268 52.844 142.156 52.548 141.932 52.34C141.708 52.124 141.368 52.016 140.912 52.016H139.508V54.476ZM147.196 51.98V54.08H150.016V55.412H147.196V57.632H150.376V59H145.516V50.612H150.376V51.98H147.196ZM157.734 53.144C157.542 52.792 157.278 52.524 156.942 52.34C156.606 52.156 156.214 52.064 155.766 52.064C155.27 52.064 154.83 52.176 154.446 52.4C154.062 52.624 153.762 52.944 153.546 53.36C153.33 53.776 153.222 54.256 153.222 54.8C153.222 55.36 153.33 55.848 153.546 56.264C153.77 56.68 154.078 57 154.47 57.224C154.862 57.448 155.318 57.56 155.838 57.56C156.478 57.56 157.002 57.392 157.41 57.056C157.818 56.712 158.086 56.236 158.214 55.628H155.334V54.344H159.87V55.808C159.758 56.392 159.518 56.932 159.15 57.428C158.782 57.924 158.306 58.324 157.722 58.628C157.146 58.924 156.498 59.072 155.778 59.072C154.97 59.072 154.238 58.892 153.582 58.532C152.934 58.164 152.422 57.656 152.046 57.008C151.678 56.36 151.494 55.624 151.494 54.8C151.494 53.976 151.678 53.24 152.046 52.592C152.422 51.936 152.934 51.428 153.582 51.068C154.238 50.7 154.966 50.516 155.766 50.516C156.71 50.516 157.53 50.748 158.226 51.212C158.922 51.668 159.402 52.312 159.666 53.144H157.734ZM162.793 50.624V59H161.113V50.624H162.793ZM167.345 59.084C166.761 59.084 166.233 58.984 165.761 58.784C165.297 58.584 164.929 58.296 164.657 57.92C164.385 57.544 164.245 57.1 164.237 56.588H166.037C166.061 56.932 166.181 57.204 166.397 57.404C166.621 57.604 166.925 57.704 167.309 57.704C167.701 57.704 168.009 57.612 168.233 57.428C168.457 57.236 168.569 56.988 168.569 56.684C168.569 56.436 168.493 56.232 168.341 56.072C168.189 55.912 167.997 55.788 167.765 55.7C167.541 55.604 167.229 55.5 166.829 55.388C166.285 55.228 165.841 55.072 165.497 54.92C165.161 54.76 164.869 54.524 164.621 54.212C164.381 53.892 164.261 53.468 164.261 52.94C164.261 52.444 164.385 52.012 164.633 51.644C164.881 51.276 165.229 50.996 165.677 50.804C166.125 50.604 166.637 50.504 167.213 50.504C168.077 50.504 168.777 50.716 169.313 51.14C169.857 51.556 170.157 52.14 170.213 52.892H168.365C168.349 52.604 168.225 52.368 167.993 52.184C167.769 51.992 167.469 51.896 167.093 51.896C166.765 51.896 166.501 51.98 166.301 52.148C166.109 52.316 166.013 52.56 166.013 52.88C166.013 53.104 166.085 53.292 166.229 53.444C166.381 53.588 166.565 53.708 166.781 53.804C167.005 53.892 167.317 53.996 167.717 54.116C168.261 54.276 168.705 54.436 169.049 54.596C169.393 54.756 169.689 54.996 169.937 55.316C170.185 55.636 170.309 56.056 170.309 56.576C170.309 57.024 170.193 57.44 169.961 57.824C169.729 58.208 169.389 58.516 168.941 58.748C168.493 58.972 167.961 59.084 167.345 59.084ZM177.466 50.624V51.98H175.234V59H173.554V51.98H171.322V50.624H177.466ZM180.371 51.98V54.08H183.191V55.412H180.371V57.632H183.551V59H178.691V50.612H183.551V51.98H180.371ZM189.398 59L187.55 55.736H186.758V59H185.078V50.624H188.222C188.87 50.624 189.422 50.74 189.878 50.972C190.334 51.196 190.674 51.504 190.898 51.896C191.13 52.28 191.246 52.712 191.246 53.192C191.246 53.744 191.086 54.244 190.766 54.692C190.446 55.132 189.97 55.436 189.338 55.604L191.342 59H189.398ZM186.758 54.476H188.162C188.618 54.476 188.958 54.368 189.182 54.152C189.406 53.928 189.518 53.62 189.518 53.228C189.518 52.844 189.406 52.548 189.182 52.34C188.958 52.124 188.618 52.016 188.162 52.016H186.758V54.476ZM200.761 57.404H197.425L196.873 59H195.109L198.121 50.612H200.077L203.089 59H201.313L200.761 57.404ZM200.305 56.06L199.093 52.556L197.881 56.06H200.305ZM207.107 59.084C206.523 59.084 205.995 58.984 205.523 58.784C205.059 58.584 204.691 58.296 204.419 57.92C204.147 57.544 204.007 57.1 203.999 56.588H205.799C205.823 56.932 205.943 57.204 206.159 57.404C206.383 57.604 206.687 57.704 207.071 57.704C207.463 57.704 207.771 57.612 207.995 57.428C208.219 57.236 208.331 56.988 208.331 56.684C208.331 56.436 208.255 56.232 208.103 56.072C207.951 55.912 207.759 55.788 207.527 55.7C207.303 55.604 206.991 55.5 206.591 55.388C206.047 55.228 205.603 55.072 205.259 54.92C204.923 54.76 204.631 54.524 204.383 54.212C204.143 53.892 204.023 53.468 204.023 52.94C204.023 52.444 204.147 52.012 204.395 51.644C204.643 51.276 204.991 50.996 205.439 50.804C205.887 50.604 206.399 50.504 206.975 50.504C207.839 50.504 208.539 50.716 209.075 51.14C209.619 51.556 209.919 52.14 209.975 52.892H208.127C208.111 52.604 207.987 52.368 207.755 52.184C207.531 51.992 207.231 51.896 206.855 51.896C206.527 51.896 206.263 51.98 206.063 52.148C205.871 52.316 205.775 52.56 205.775 52.88C205.775 53.104 205.847 53.292 205.991 53.444C206.143 53.588 206.327 53.708 206.543 53.804C206.767 53.892 207.079 53.996 207.479 54.116C208.023 54.276 208.467 54.436 208.811 54.596C209.155 54.756 209.451 54.996 209.699 55.316C209.947 55.636 210.071 56.056 210.071 56.576C210.071 57.024 209.955 57.44 209.723 57.824C209.491 58.208 209.151 58.516 208.703 58.748C208.255 58.972 207.723 59.084 207.107 59.084ZM219.523 57.404H216.187L215.635 59H213.871L216.883 50.612H218.839L221.851 59H220.075L219.523 57.404ZM219.067 56.06L217.855 52.556L216.643 56.06H219.067ZM225.428 54.8C225.428 53.976 225.612 53.24 225.98 52.592C226.356 51.936 226.864 51.428 227.504 51.068C228.152 50.7 228.876 50.516 229.676 50.516C230.612 50.516 231.432 50.756 232.136 51.236C232.84 51.716 233.332 52.38 233.612 53.228H231.68C231.488 52.828 231.216 52.528 230.864 52.328C230.52 52.128 230.12 52.028 229.664 52.028C229.176 52.028 228.74 52.144 228.356 52.376C227.98 52.6 227.684 52.92 227.468 53.336C227.26 53.752 227.156 54.24 227.156 54.8C227.156 55.352 227.26 55.84 227.468 56.264C227.684 56.68 227.98 57.004 228.356 57.236C228.74 57.46 229.176 57.572 229.664 57.572C230.12 57.572 230.52 57.472 230.864 57.272C231.216 57.064 231.488 56.76 231.68 56.36H233.612C233.332 57.216 232.84 57.884 232.136 58.364C231.44 58.836 230.62 59.072 229.676 59.072C228.876 59.072 228.152 58.892 227.504 58.532C226.864 58.164 226.356 57.656 225.98 57.008C225.612 56.36 225.428 55.624 225.428 54.8ZM236.703 50.624V55.808C236.703 56.376 236.851 56.812 237.147 57.116C237.443 57.412 237.859 57.56 238.395 57.56C238.939 57.56 239.359 57.412 239.655 57.116C239.951 56.812 240.099 56.376 240.099 55.808V50.624H241.791V55.796C241.791 56.508 241.635 57.112 241.323 57.608C241.019 58.096 240.607 58.464 240.087 58.712C239.575 58.96 239.003 59.084 238.371 59.084C237.747 59.084 237.179 58.96 236.667 58.712C236.163 58.464 235.763 58.096 235.467 57.608C235.171 57.112 235.023 56.508 235.023 55.796V50.624H236.703ZM246.306 59.084C245.722 59.084 245.194 58.984 244.722 58.784C244.258 58.584 243.89 58.296 243.618 57.92C243.346 57.544 243.206 57.1 243.198 56.588H244.998C245.022 56.932 245.142 57.204 245.358 57.404C245.582 57.604 245.886 57.704 246.27 57.704C246.662 57.704 246.97 57.612 247.194 57.428C247.418 57.236 247.53 56.988 247.53 56.684C247.53 56.436 247.454 56.232 247.302 56.072C247.15 55.912 246.958 55.788 246.726 55.7C246.502 55.604 246.19 55.5 245.79 55.388C245.246 55.228 244.802 55.072 244.458 54.92C244.122 54.76 243.83 54.524 243.582 54.212C243.342 53.892 243.222 53.468 243.222 52.94C243.222 52.444 243.346 52.012 243.594 51.644C243.842 51.276 244.19 50.996 244.638 50.804C245.086 50.604 245.598 50.504 246.174 50.504C247.038 50.504 247.738 50.716 248.274 51.14C248.818 51.556 249.118 52.14 249.174 52.892H247.326C247.31 52.604 247.186 52.368 246.954 52.184C246.73 51.992 246.43 51.896 246.054 51.896C245.726 51.896 245.462 51.98 245.262 52.148C245.07 52.316 244.974 52.56 244.974 52.88C244.974 53.104 245.046 53.292 245.19 53.444C245.342 53.588 245.526 53.708 245.742 53.804C245.966 53.892 246.278 53.996 246.678 54.116C247.222 54.276 247.666 54.436 248.01 54.596C248.354 54.756 248.65 54.996 248.898 55.316C249.146 55.636 249.27 56.056 249.27 56.576C249.27 57.024 249.154 57.44 248.922 57.824C248.69 58.208 248.35 58.516 247.902 58.748C247.454 58.972 246.922 59.084 246.306 59.084ZM256.426 50.624V51.98H254.194V59H252.514V51.98H250.282V50.624H256.426ZM261.54 59.084C260.756 59.084 260.036 58.9 259.38 58.532C258.724 58.164 258.204 57.656 257.82 57.008C257.436 56.352 257.244 55.612 257.244 54.788C257.244 53.972 257.436 53.24 257.82 52.592C258.204 51.936 258.724 51.424 259.38 51.056C260.036 50.688 260.756 50.504 261.54 50.504C262.332 50.504 263.052 50.688 263.7 51.056C264.356 51.424 264.872 51.936 265.248 52.592C265.632 53.24 265.824 53.972 265.824 54.788C265.824 55.612 265.632 56.352 265.248 57.008C264.872 57.656 264.356 58.164 263.7 58.532C263.044 58.9 262.324 59.084 261.54 59.084ZM261.54 57.584C262.044 57.584 262.488 57.472 262.872 57.248C263.256 57.016 263.556 56.688 263.772 56.264C263.988 55.84 264.096 55.348 264.096 54.788C264.096 54.228 263.988 53.74 263.772 53.324C263.556 52.9 263.256 52.576 262.872 52.352C262.488 52.128 262.044 52.016 261.54 52.016C261.036 52.016 260.588 52.128 260.196 52.352C259.812 52.576 259.512 52.9 259.296 53.324C259.08 53.74 258.972 54.228 258.972 54.788C258.972 55.348 259.08 55.84 259.296 56.264C259.512 56.688 259.812 57.016 260.196 57.248C260.588 57.472 261.036 57.584 261.54 57.584ZM276.206 50.624V59H274.526V53.552L272.282 59H271.01L268.754 53.552V59H267.074V50.624H268.982L271.646 56.852L274.31 50.624H276.206ZM279.547 51.98V54.08H282.367V55.412H279.547V57.632H282.727V59H277.867V50.612H282.727V51.98H279.547ZM288.574 59L286.726 55.736H285.934V59H284.254V50.624H287.398C288.046 50.624 288.598 50.74 289.054 50.972C289.51 51.196 289.85 51.504 290.074 51.896C290.306 52.28 290.422 52.712 290.422 53.192C290.422 53.744 290.262 54.244 289.942 54.692C289.622 55.132 289.146 55.436 288.514 55.604L290.518 59H288.574ZM285.934 54.476H287.338C287.794 54.476 288.134 54.368 288.358 54.152C288.582 53.928 288.694 53.62 288.694 53.228C288.694 52.844 288.582 52.548 288.358 52.34C288.134 52.124 287.794 52.016 287.338 52.016H285.934V54.476Z" fill="#10B981"/>
<path d="M139.763 76L136.991 69.7H137.963L140.51 75.514H139.952L142.517 69.7H143.417L140.654 76H139.763ZM144.22 76V69.7H145.12V76H144.22ZM147.826 72.418H151.066V73.183H147.826V72.418ZM147.907 75.217H151.579V76H147.007V69.7H151.453V70.483H147.907V75.217ZM154.397 76L152.291 69.7H153.218L155.153 75.514H154.685L156.692 69.7H157.52L159.482 75.514H159.032L160.994 69.7H161.849L159.743 76H158.798L156.962 70.609H157.205L155.36 76H154.397ZM170.017 69.7H170.917V76H170.017V69.7ZM166.399 76H165.499V69.7H166.399V76ZM170.098 73.192H166.309V72.409H170.098V73.192ZM175.646 76.072C175.166 76.072 174.719 75.991 174.305 75.829C173.897 75.667 173.543 75.442 173.243 75.154C172.943 74.86 172.709 74.518 172.541 74.128C172.373 73.738 172.289 73.312 172.289 72.85C172.289 72.388 172.373 71.962 172.541 71.572C172.709 71.182 172.943 70.843 173.243 70.555C173.543 70.261 173.897 70.033 174.305 69.871C174.713 69.709 175.16 69.628 175.646 69.628C176.126 69.628 176.567 69.709 176.969 69.871C177.377 70.027 177.731 70.252 178.031 70.546C178.337 70.834 178.571 71.173 178.733 71.563C178.901 71.953 178.985 72.382 178.985 72.85C178.985 73.318 178.901 73.747 178.733 74.137C178.571 74.527 178.337 74.869 178.031 75.163C177.731 75.451 177.377 75.676 176.969 75.838C176.567 75.994 176.126 76.072 175.646 76.072ZM175.646 75.271C175.994 75.271 176.315 75.211 176.609 75.091C176.909 74.971 177.167 74.803 177.383 74.587C177.605 74.365 177.776 74.107 177.896 73.813C178.022 73.519 178.085 73.198 178.085 72.85C178.085 72.502 178.022 72.181 177.896 71.887C177.776 71.593 177.605 71.338 177.383 71.122C177.167 70.9 176.909 70.729 176.609 70.609C176.315 70.489 175.994 70.429 175.646 70.429C175.292 70.429 174.965 70.489 174.665 70.609C174.371 70.729 174.113 70.9 173.891 71.122C173.669 71.338 173.495 71.593 173.369 71.887C173.249 72.181 173.189 72.502 173.189 72.85C173.189 73.198 173.249 73.519 173.369 73.813C173.495 74.107 173.669 74.365 173.891 74.587C174.113 74.803 174.371 74.971 174.665 75.091C174.965 75.211 175.292 75.271 175.646 75.271ZM181.617 76L179.511 69.7H180.438L182.373 75.514H181.905L183.912 69.7H184.74L186.702 75.514H186.252L188.214 69.7H189.069L186.963 76H186.018L184.182 70.609H184.425L182.58 76H181.617ZM193.969 76V70.483H191.809V69.7H197.02V70.483H194.86V76H193.969ZM200.757 76.072C200.277 76.072 199.83 75.991 199.416 75.829C199.008 75.667 198.654 75.442 198.354 75.154C198.054 74.86 197.82 74.518 197.652 74.128C197.484 73.738 197.4 73.312 197.4 72.85C197.4 72.388 197.484 71.962 197.652 71.572C197.82 71.182 198.054 70.843 198.354 70.555C198.654 70.261 199.008 70.033 199.416 69.871C199.824 69.709 200.271 69.628 200.757 69.628C201.237 69.628 201.678 69.709 202.08 69.871C202.488 70.027 202.842 70.252 203.142 70.546C203.448 70.834 203.682 71.173 203.844 71.563C204.012 71.953 204.096 72.382 204.096 72.85C204.096 73.318 204.012 73.747 203.844 74.137C203.682 74.527 203.448 74.869 203.142 75.163C202.842 75.451 202.488 75.676 202.08 75.838C201.678 75.994 201.237 76.072 200.757 76.072ZM200.757 75.271C201.105 75.271 201.426 75.211 201.72 75.091C202.02 74.971 202.278 74.803 202.494 74.587C202.716 74.365 202.887 74.107 203.007 73.813C203.133 73.519 203.196 73.198 203.196 72.85C203.196 72.502 203.133 72.181 203.007 71.887C202.887 71.593 202.716 71.338 202.494 71.122C202.278 70.9 202.02 70.729 201.72 70.609C201.426 70.489 201.105 70.429 200.757 70.429C200.403 70.429 200.076 70.489 199.776 70.609C199.482 70.729 199.224 70.9 199.002 71.122C198.78 71.338 198.606 71.593 198.48 71.887C198.36 72.181 198.3 72.502 198.3 72.85C198.3 73.198 198.36 73.519 198.48 73.813C198.606 74.107 198.78 74.365 199.002 74.587C199.224 74.803 199.482 74.971 199.776 75.091C200.076 75.211 200.403 75.271 200.757 75.271Z" fill="#273549"/>
<path d="M217.185 72L213.992 74H216.387V77H217.983V74H220.378M222.773 69H211.597C211.173 69 210.767 69.1054 210.468 69.2929C210.168 69.4804 210 69.7348 210 70V76C210 76.2652 210.168 76.5196 210.468 76.7071C210.767 76.8946 211.173 77 211.597 77H214.79V76H211.597V71H222.773V76H219.58V77H222.773C223.197 77 223.603 76.8946 223.902 76.7071C224.202 76.5196 224.37 76.2652 224.37 76V70C224.37 69.7348 224.202 69.4804 223.902 69.2929C223.603 69.1054 223.197 69 222.773 69Z" fill="#273549"/>
<defs>
<filter id="filter0_d_622_458" x="39.1846" y="0.807861" width="348.815" height="125.673" filterUnits="userSpaceOnUse" color-interpolation-filters="sRGB">
<feFlood flood-opacity="0" result="BackgroundImageFix"/>
<feColorMatrix in="SourceAlpha" type="matrix" values="0 0 0 0 0 0 0 0 0 0 0 0 0 0 0 0 0 0 127 0" result="hardAlpha"/>
<feOffset/>
<feGaussianBlur stdDeviation="10"/>
<feColorMatrix type="matrix" values="0 0 0 0 0 0 0 0 0 0 0 0 0 0 0 0 0 0 0.1 0"/>
<feBlend mode="normal" in2="BackgroundImageFix" result="effect1_dropShadow_622_458"/>
<feBlend mode="normal" in="SourceGraphic" in2="effect1_dropShadow_622_458" result="shape"/>
</filter>
<radialGradient id="paint0_radial_622_458" cx="0" cy="0" r="1" gradientUnits="userSpaceOnUse" gradientTransform="translate(5825.49 4585.02) scale(1354.98 1202.64)">
<stop/>
<stop offset="1" stop-color="white"/>
</radialGradient>
</defs>
</svg>
