<svg width="384" height="127" viewBox="0 0 384 127" fill="none" xmlns="http://www.w3.org/2000/svg">
<g filter="url(#filter0_d_622_493)">
<path d="M59.1846 20.8079H319.586C332.426 20.8079 344.74 25.321 353.82 33.3544C362.899 41.3878 368 52.2835 368 63.6444C368 75.0054 362.899 85.901 353.82 93.9344C344.74 101.968 332.426 106.481 319.586 106.481H59.1846V20.8079Z" fill="white"/>
</g>
<path d="M119.541 63.3145C119.556 73.7245 116.063 83.9045 109.504 92.5664C102.946 101.228 93.6157 107.983 82.6954 111.976C71.775 115.968 59.7548 117.02 48.1555 114.997C36.5563 112.974 25.8992 107.967 17.5327 100.611C9.16621 93.2545 3.46623 83.8786 1.15394 73.6695C-1.15834 63.4604 0.0209804 52.8769 4.54269 43.258C9.06441 33.6391 16.7253 25.4171 26.5562 19.6322C36.387 13.8474 47.946 10.7596 59.7707 10.7596V63.2328L119.541 63.3145Z" fill="#273549"/>
<path d="M107.415 70.2832C111.693 46.9656 93.7955 24.9946 67.4395 21.2096C41.0834 17.4246 16.2494 33.2589 11.9712 56.5766C7.69301 79.8942 25.5907 101.865 51.9467 105.65C78.3028 109.435 103.137 93.6009 107.415 70.2832Z" fill="white"/>
<path style="mix-blend-mode:multiply" d="M65.9239 98.5482C85.5036 98.5482 101.376 84.4602 101.376 67.0818C101.376 49.7034 85.5036 35.6155 65.9239 35.6155C46.3442 35.6155 30.4717 49.7034 30.4717 67.0818C30.4717 84.4602 46.3442 98.5482 65.9239 98.5482Z" fill="url(#paint0_radial_622_493)"/>
<path d="M96.224 6.00422C90.7376 6.48217 85.5893 8.60237 81.6063 12.0242C77.6232 15.4461 75.0366 19.9709 74.262 24.8718C74.262 24.954 74.262 25.0526 74.262 25.1348C73.971 27.5012 72.6576 29.6706 70.6041 31.1765C68.5507 32.6825 65.9212 33.4047 63.281 33.188C61.2178 33.0067 59.1399 33.0067 57.0767 33.188C50.4785 33.634 44.1793 35.8404 38.9873 39.5241C33.7953 43.2078 29.9476 48.2006 27.9378 53.862C25.9281 59.5233 25.848 65.5948 27.7078 71.2973C29.5677 76.9997 33.2827 82.0731 38.376 85.8661C43.4693 89.6592 49.7086 91.999 56.2932 92.5853C62.8778 93.1715 69.5072 91.9775 75.3308 89.1563C81.1543 86.3352 85.9063 82.0157 88.9769 76.7522C92.0474 71.4887 93.2965 65.5213 92.5637 59.6158C92.3224 57.2449 93.1266 54.8835 94.8036 53.0395C96.4806 51.1955 98.8964 50.016 101.532 49.7547H101.824C108.182 48.9929 113.952 46.0201 117.893 41.4762C121.834 36.9323 123.63 31.1806 122.896 25.4589C122.162 19.7372 118.956 14.5031 113.968 10.8831C108.979 7.26301 102.608 5.54645 96.224 6.10283V6.00422Z" fill="#273549"/>
<path d="M54.1558 85.2908C52.9278 85.2908 51.8738 84.9801 50.9939 84.3587C50.1189 83.7322 49.4452 82.8299 48.9729 81.6516C48.5056 80.4684 48.2719 79.044 48.2719 77.3786C48.2769 75.7131 48.5131 74.2962 48.9804 73.1278C49.4527 71.9545 50.1263 71.0597 51.0013 70.4432C51.8813 69.8267 52.9328 69.5185 54.1558 69.5185C55.3788 69.5185 56.4303 69.8267 57.3103 70.4432C58.1903 71.0597 58.8639 71.9545 59.3312 73.1278C59.8035 74.3011 60.0397 75.718 60.0397 77.3786C60.0397 79.049 59.8035 80.4759 59.3312 81.6591C58.8639 82.8374 58.1903 83.7372 57.3103 84.3587C56.4353 84.9801 55.3838 85.2908 54.1558 85.2908ZM54.1558 82.9567C55.1104 82.9567 55.8635 82.4869 56.4154 81.5472C56.9722 80.6026 57.2506 79.2131 57.2506 77.3786C57.2506 76.1655 57.1238 75.1463 56.8703 74.321C56.6167 73.4957 56.2588 72.8743 55.7964 72.4567C55.3341 72.0341 54.7872 71.8228 54.1558 71.8228C53.2062 71.8228 52.4555 72.2951 51.9037 73.2397C51.3518 74.1793 51.0734 75.5589 51.0684 77.3786C51.0635 78.5966 51.1853 79.6207 51.4339 80.451C51.6874 81.2812 52.0454 81.9077 52.5077 82.3303C52.9701 82.7479 53.5194 82.9567 54.1558 82.9567ZM67.9986 85.2088C66.9247 85.2088 65.9702 85.0249 65.1349 84.657C64.3047 84.2891 63.6484 83.777 63.1662 83.1207C62.6839 82.4645 62.4279 81.7063 62.3981 80.8462H65.2021C65.2269 81.2589 65.3636 81.6193 65.6122 81.9276C65.8608 82.2308 66.1914 82.467 66.604 82.636C67.0167 82.805 67.479 82.8896 67.9911 82.8896C68.538 82.8896 69.0227 82.7951 69.4453 82.6062C69.8679 82.4123 70.1985 82.1438 70.4371 81.8008C70.6758 81.4577 70.7926 81.0625 70.7876 80.6151C70.7926 80.1527 70.6733 79.745 70.4297 79.392C70.1861 79.0391 69.8331 78.7631 69.3707 78.5643C68.9134 78.3654 68.3615 78.266 67.7152 78.266H66.3654V76.1332H67.7152C68.2472 76.1332 68.712 76.0412 69.1097 75.8572C69.5124 75.6733 69.8281 75.4148 70.0568 75.0817C70.2855 74.7436 70.3974 74.3533 70.3924 73.9109C70.3974 73.4783 70.3004 73.103 70.1016 72.7848C69.9077 72.4616 69.6317 72.2106 69.2738 72.0316C68.9208 71.8526 68.5057 71.7631 68.0284 71.7631C67.5611 71.7631 67.1286 71.8477 66.7308 72.0167C66.3331 72.1857 66.0124 72.4268 65.7688 72.7401C65.5252 73.0483 65.396 73.4162 65.381 73.8438H62.7188C62.7386 72.9886 62.9847 72.2379 63.457 71.5916C63.9343 70.9403 64.5707 70.4332 65.3661 70.0703C66.1616 69.7024 67.054 69.5185 68.0433 69.5185C69.0625 69.5185 69.9474 69.7099 70.6982 70.0927C71.4538 70.4705 72.038 70.9801 72.4506 71.6214C72.8633 72.2628 73.0696 72.9712 73.0696 73.7468C73.0746 74.6069 72.821 75.3278 72.3089 75.9094C71.8018 76.4911 71.1357 76.8714 70.3104 77.0504V77.1697C71.3842 77.3189 72.207 77.7166 72.7788 78.3629C73.3555 79.0043 73.6413 79.8022 73.6364 80.7567C73.6364 81.6119 73.3928 82.3775 72.9055 83.0536C72.4233 83.7248 71.7571 84.2518 70.907 84.6346C70.0618 85.0174 69.0923 85.2088 67.9986 85.2088Z" fill="white"/>
<path d="M46.3333 50.5078C46.2736 49.9496 46.0222 49.5149 45.579 49.2038C45.1401 48.8928 44.5691 48.7372 43.8659 48.7372C43.3716 48.7372 42.9476 48.8118 42.5939 48.9609C42.2402 49.1101 41.9696 49.3125 41.7821 49.5682C41.5946 49.8239 41.4988 50.1158 41.4945 50.4439C41.4945 50.7166 41.5563 50.9531 41.6799 51.1534C41.8077 51.3537 41.9803 51.5241 42.1976 51.6648C42.415 51.8011 42.6557 51.9162 42.9199 52.0099C43.1841 52.1037 43.4505 52.1825 43.7189 52.2464L44.9462 52.5533C45.4405 52.6683 45.9157 52.8239 46.3716 53.0199C46.8319 53.2159 47.2431 53.4631 47.6053 53.7614C47.9718 54.0597 48.2615 54.4197 48.4746 54.8416C48.6877 55.2635 48.7942 55.7578 48.7942 56.3246C48.7942 57.0916 48.5982 57.767 48.2061 58.3509C47.8141 58.9304 47.2473 59.3842 46.5059 59.7124C45.7686 60.0362 44.8759 60.1982 43.8276 60.1982C42.8091 60.1982 41.9249 60.0405 41.1749 59.7251C40.4292 59.4098 39.8453 58.9496 39.4235 58.3445C39.0059 57.7393 38.78 57.0021 38.7459 56.1328H41.079C41.1131 56.5888 41.2537 56.968 41.5009 57.2706C41.748 57.5732 42.0698 57.799 42.4661 57.9482C42.8667 58.0973 43.3141 58.1719 43.8084 58.1719C44.324 58.1719 44.7757 58.0952 45.1635 57.9418C45.5556 57.7841 45.8624 57.5668 46.084 57.2898C46.3056 57.0085 46.4185 56.6804 46.4228 56.3054C46.4185 55.9645 46.3184 55.6832 46.1223 55.4616C45.9263 55.2358 45.6515 55.0483 45.2978 54.8991C44.9483 54.7457 44.5392 54.6094 44.0705 54.4901L42.5811 54.1065C41.503 53.8295 40.6507 53.4098 40.0243 52.8473C39.4022 52.2805 39.0911 51.5284 39.0911 50.5909C39.0911 49.8196 39.2999 49.1442 39.7175 48.5646C40.1394 47.9851 40.7125 47.5355 41.437 47.2159C42.1614 46.892 42.9817 46.7301 43.8979 46.7301C44.8269 46.7301 45.6408 46.892 46.3397 47.2159C47.0428 47.5355 47.5946 47.9808 47.9952 48.5518C48.3958 49.1186 48.6025 49.7706 48.6152 50.5078H46.3333ZM50.3331 48.897V46.9091H60.7777V48.897H56.7315V60H54.3793V48.897H50.3331ZM62.7912 60V46.9091H71.3054V48.897H65.1626V52.451H70.8643V54.4389H65.1626V58.0121H71.3565V60H62.7912ZM73.7248 60V46.9091H78.6339C79.6396 46.9091 80.4833 47.0966 81.1651 47.4716C81.8512 47.8466 82.369 48.3622 82.7184 49.0185C83.0721 49.6705 83.2489 50.4119 83.2489 51.2429C83.2489 52.0824 83.0721 52.8281 82.7184 53.4801C82.3647 54.1321 81.8427 54.6456 81.1523 55.0206C80.462 55.3913 79.6119 55.5767 78.6019 55.5767H75.3484V53.6271H78.2823C78.8704 53.6271 79.3519 53.5249 79.7269 53.3203C80.1019 53.1158 80.3789 52.8345 80.5579 52.4766C80.7411 52.1186 80.8327 51.7074 80.8327 51.2429C80.8327 50.7784 80.7411 50.3693 80.5579 50.0156C80.3789 49.6619 80.0998 49.3871 79.7205 49.1911C79.3455 48.9908 78.8619 48.8906 78.2695 48.8906H76.0962V60H73.7248Z" fill="white"/>
<path d="M98.4458 44.0769C108.155 44.0769 116.025 37.2105 116.025 28.7404C116.025 20.2702 108.155 13.4038 98.4458 13.4038C88.7369 13.4038 80.8662 20.2702 80.8662 28.7404C80.8662 37.2105 88.7369 44.0769 98.4458 44.0769Z" fill="white"/>
<path d="M142.148 56L140.3 52.736H139.508V56H137.828V47.624H140.972C141.62 47.624 142.172 47.74 142.628 47.972C143.084 48.196 143.424 48.504 143.648 48.896C143.88 49.28 143.996 49.712 143.996 50.192C143.996 50.744 143.836 51.244 143.516 51.692C143.196 52.132 142.72 52.436 142.088 52.604L144.092 56H142.148ZM139.508 51.476H140.912C141.368 51.476 141.708 51.368 141.932 51.152C142.156 50.928 142.268 50.62 142.268 50.228C142.268 49.844 142.156 49.548 141.932 49.34C141.708 49.124 141.368 49.016 140.912 49.016H139.508V51.476ZM147.196 48.98V51.08H150.016V52.412H147.196V54.632H150.376V56H145.516V47.612H150.376V48.98H147.196ZM154.794 56.084C154.21 56.084 153.682 55.984 153.21 55.784C152.746 55.584 152.378 55.296 152.106 54.92C151.834 54.544 151.694 54.1 151.686 53.588H153.486C153.51 53.932 153.63 54.204 153.846 54.404C154.07 54.604 154.374 54.704 154.758 54.704C155.15 54.704 155.458 54.612 155.682 54.428C155.906 54.236 156.018 53.988 156.018 53.684C156.018 53.436 155.942 53.232 155.79 53.072C155.638 52.912 155.446 52.788 155.214 52.7C154.99 52.604 154.678 52.5 154.278 52.388C153.734 52.228 153.29 52.072 152.946 51.92C152.61 51.76 152.318 51.524 152.07 51.212C151.83 50.892 151.71 50.468 151.71 49.94C151.71 49.444 151.834 49.012 152.082 48.644C152.33 48.276 152.678 47.996 153.126 47.804C153.574 47.604 154.086 47.504 154.662 47.504C155.526 47.504 156.226 47.716 156.762 48.14C157.306 48.556 157.606 49.14 157.662 49.892H155.814C155.798 49.604 155.674 49.368 155.442 49.184C155.218 48.992 154.918 48.896 154.542 48.896C154.214 48.896 153.95 48.98 153.75 49.148C153.558 49.316 153.462 49.56 153.462 49.88C153.462 50.104 153.534 50.292 153.678 50.444C153.83 50.588 154.014 50.708 154.23 50.804C154.454 50.892 154.766 50.996 155.166 51.116C155.71 51.276 156.154 51.436 156.498 51.596C156.842 51.756 157.138 51.996 157.386 52.316C157.634 52.636 157.758 53.056 157.758 53.576C157.758 54.024 157.642 54.44 157.41 54.824C157.178 55.208 156.838 55.516 156.39 55.748C155.942 55.972 155.41 56.084 154.794 56.084ZM160.895 48.98V51.08H163.715V52.412H160.895V54.632H164.075V56H159.215V47.612H164.075V48.98H160.895ZM169.921 56L168.073 52.736H167.281V56H165.601V47.624H168.745C169.393 47.624 169.945 47.74 170.401 47.972C170.857 48.196 171.197 48.504 171.421 48.896C171.653 49.28 171.769 49.712 171.769 50.192C171.769 50.744 171.609 51.244 171.289 51.692C170.969 52.132 170.493 52.436 169.861 52.604L171.865 56H169.921ZM167.281 51.476H168.685C169.141 51.476 169.481 51.368 169.705 51.152C169.929 50.928 170.041 50.62 170.041 50.228C170.041 49.844 169.929 49.548 169.705 49.34C169.481 49.124 169.141 49.016 168.685 49.016H167.281V51.476ZM180.813 47.624L177.741 56H175.701L172.629 47.624H174.429L176.733 54.284L179.025 47.624H180.813ZM183.5 48.98V51.08H186.32V52.412H183.5V54.632H186.68V56H181.82V47.612H186.68V48.98H183.5ZM196.202 54.404H192.866L192.314 56H190.55L193.562 47.612H195.518L198.53 56H196.754L196.202 54.404ZM195.746 53.06L194.534 49.556L193.322 53.06H195.746ZM202.108 51.8C202.108 50.976 202.292 50.24 202.66 49.592C203.036 48.936 203.544 48.428 204.184 48.068C204.832 47.7 205.556 47.516 206.356 47.516C207.292 47.516 208.112 47.756 208.816 48.236C209.52 48.716 210.012 49.38 210.292 50.228H208.36C208.168 49.828 207.896 49.528 207.544 49.328C207.2 49.128 206.8 49.028 206.344 49.028C205.856 49.028 205.42 49.144 205.036 49.376C204.66 49.6 204.364 49.92 204.148 50.336C203.94 50.752 203.836 51.24 203.836 51.8C203.836 52.352 203.94 52.84 204.148 53.264C204.364 53.68 204.66 54.004 205.036 54.236C205.42 54.46 205.856 54.572 206.344 54.572C206.8 54.572 207.2 54.472 207.544 54.272C207.896 54.064 208.168 53.76 208.36 53.36H210.292C210.012 54.216 209.52 54.884 208.816 55.364C208.12 55.836 207.3 56.072 206.356 56.072C205.556 56.072 204.832 55.892 204.184 55.532C203.544 55.164 203.036 54.656 202.66 54.008C202.292 53.36 202.108 52.624 202.108 51.8ZM215.614 56.084C214.83 56.084 214.11 55.9 213.454 55.532C212.798 55.164 212.278 54.656 211.894 54.008C211.51 53.352 211.318 52.612 211.318 51.788C211.318 50.972 211.51 50.24 211.894 49.592C212.278 48.936 212.798 48.424 213.454 48.056C214.11 47.688 214.83 47.504 215.614 47.504C216.406 47.504 217.126 47.688 217.774 48.056C218.43 48.424 218.946 48.936 219.322 49.592C219.706 50.24 219.898 50.972 219.898 51.788C219.898 52.612 219.706 53.352 219.322 54.008C218.946 54.656 218.43 55.164 217.774 55.532C217.118 55.9 216.398 56.084 215.614 56.084ZM215.614 54.584C216.118 54.584 216.562 54.472 216.946 54.248C217.33 54.016 217.63 53.688 217.846 53.264C218.062 52.84 218.17 52.348 218.17 51.788C218.17 51.228 218.062 50.74 217.846 50.324C217.63 49.9 217.33 49.576 216.946 49.352C216.562 49.128 216.118 49.016 215.614 49.016C215.11 49.016 214.662 49.128 214.27 49.352C213.886 49.576 213.586 49.9 213.37 50.324C213.154 50.74 213.046 51.228 213.046 51.788C213.046 52.348 213.154 52.84 213.37 53.264C213.586 53.688 213.886 54.016 214.27 54.248C214.662 54.472 215.11 54.584 215.614 54.584ZM225.468 56L223.62 52.736H222.828V56H221.148V47.624H224.292C224.94 47.624 225.492 47.74 225.948 47.972C226.404 48.196 226.744 48.504 226.968 48.896C227.2 49.28 227.316 49.712 227.316 50.192C227.316 50.744 227.156 51.244 226.836 51.692C226.516 52.132 226.04 52.436 225.408 52.604L227.412 56H225.468ZM222.828 51.476H224.232C224.688 51.476 225.028 51.368 225.252 51.152C225.476 50.928 225.588 50.62 225.588 50.228C225.588 49.844 225.476 49.548 225.252 49.34C225.028 49.124 224.688 49.016 224.232 49.016H222.828V51.476ZM234.944 50.216C234.944 50.664 234.836 51.084 234.62 51.476C234.412 51.868 234.08 52.184 233.624 52.424C233.176 52.664 232.608 52.784 231.92 52.784H230.516V56H228.836V47.624H231.92C232.568 47.624 233.12 47.736 233.576 47.96C234.032 48.184 234.372 48.492 234.596 48.884C234.828 49.276 234.944 49.72 234.944 50.216ZM231.848 51.428C232.312 51.428 232.656 51.324 232.88 51.116C233.104 50.9 233.216 50.6 233.216 50.216C233.216 49.4 232.76 48.992 231.848 48.992H230.516V51.428H231.848ZM240.025 56.084C239.241 56.084 238.521 55.9 237.865 55.532C237.209 55.164 236.689 54.656 236.305 54.008C235.921 53.352 235.729 52.612 235.729 51.788C235.729 50.972 235.921 50.24 236.305 49.592C236.689 48.936 237.209 48.424 237.865 48.056C238.521 47.688 239.241 47.504 240.025 47.504C240.817 47.504 241.537 47.688 242.185 48.056C242.841 48.424 243.357 48.936 243.733 49.592C244.117 50.24 244.309 50.972 244.309 51.788C244.309 52.612 244.117 53.352 243.733 54.008C243.357 54.656 242.841 55.164 242.185 55.532C241.529 55.9 240.809 56.084 240.025 56.084ZM240.025 54.584C240.529 54.584 240.973 54.472 241.357 54.248C241.741 54.016 242.041 53.688 242.257 53.264C242.473 52.84 242.581 52.348 242.581 51.788C242.581 51.228 242.473 50.74 242.257 50.324C242.041 49.9 241.741 49.576 241.357 49.352C240.973 49.128 240.529 49.016 240.025 49.016C239.521 49.016 239.073 49.128 238.681 49.352C238.297 49.576 237.997 49.9 237.781 50.324C237.565 50.74 237.457 51.228 237.457 51.788C237.457 52.348 237.565 52.84 237.781 53.264C237.997 53.688 238.297 54.016 238.681 54.248C239.073 54.472 239.521 54.584 240.025 54.584ZM249.878 56L248.03 52.736H247.238V56H245.558V47.624H248.702C249.35 47.624 249.902 47.74 250.358 47.972C250.814 48.196 251.154 48.504 251.378 48.896C251.61 49.28 251.726 49.712 251.726 50.192C251.726 50.744 251.566 51.244 251.246 51.692C250.926 52.132 250.45 52.436 249.818 52.604L251.822 56H249.878ZM247.238 51.476H248.642C249.098 51.476 249.438 51.368 249.662 51.152C249.886 50.928 249.998 50.62 249.998 50.228C249.998 49.844 249.886 49.548 249.662 49.34C249.438 49.124 249.098 49.016 248.642 49.016H247.238V51.476ZM258.382 54.404H255.046L254.494 56H252.73L255.742 47.612H257.698L260.71 56H258.934L258.382 54.404ZM257.926 53.06L256.714 49.556L255.502 53.06H257.926ZM267.536 47.624V48.98H265.304V56H263.624V48.98H261.392V47.624H267.536ZM270.442 48.98V51.08H273.262V52.412H270.442V54.632H273.622V56H268.762V47.612H273.622V48.98H270.442ZM285.172 56H283.492L279.688 50.252V56H278.008V47.612H279.688L283.492 53.372V47.612H285.172V56ZM291.968 54.404H288.632L288.08 56H286.316L289.328 47.612H291.284L294.296 56H292.52L291.968 54.404ZM291.512 53.06L290.3 49.556L289.088 53.06H291.512ZM304.554 47.624V56H302.874V50.552L300.63 56H299.358L297.102 50.552V56H295.422V47.624H297.33L299.994 53.852L302.658 47.624H304.554ZM307.895 48.98V51.08H310.715V52.412H307.895V54.632H311.075V56H306.215V47.612H311.075V48.98H307.895Z" fill="#10B981"/>
<path d="M103.243 34.7397H94.7918C94.6884 34.7377 94.5854 34.75 94.4893 34.7757C94.3931 34.8014 94.3057 34.8401 94.2326 34.8893C94.1594 34.9384 94.1019 34.9972 94.0636 35.0618C94.0254 35.1264 94.0072 35.1956 94.0101 35.2652C94.0072 35.3354 94.0254 35.4052 94.0634 35.4706C94.1014 35.536 94.1586 35.5956 94.2314 35.646C94.3043 35.6963 94.3915 35.7362 94.4877 35.7635C94.584 35.7908 94.6874 35.8049 94.7918 35.8048H97.2217V35.9611C97.2217 36.2021 97.3642 36.4333 97.6178 36.6038C97.8714 36.7742 98.2153 36.87 98.574 36.87H99.4825C99.6609 36.8719 99.838 36.8497 100.003 36.8047C100.169 36.7597 100.319 36.6928 100.445 36.608C100.571 36.5232 100.671 36.4223 100.738 36.3111C100.805 36.2 100.838 36.081 100.835 35.9611V35.8048H103.243C103.456 35.8048 103.661 35.748 103.811 35.6468C103.962 35.5456 104.046 35.4083 104.046 35.2652C104.046 35.1949 104.026 35.1254 103.985 35.0607C103.944 34.9961 103.885 34.9375 103.81 34.8885C103.735 34.8395 103.646 34.8011 103.549 34.7755C103.452 34.75 103.348 34.7378 103.243 34.7397Z" fill="#273549"/>
<path d="M104.849 22.4832C103.114 21.4533 100.846 20.9237 98.5347 21.0089C96.2235 21.094 94.055 21.787 92.4979 22.9382C90.9407 24.0893 90.12 25.606 90.2132 27.1606C90.3064 28.7152 91.3059 30.1826 92.9957 31.2459C93.4732 31.4892 93.8621 31.8023 94.1329 32.1615C94.4038 32.5208 94.5496 32.9167 94.5593 33.3194V33.5182C94.5593 33.6425 94.6327 33.7617 94.7635 33.8496C94.8943 33.9375 95.0716 33.9869 95.2565 33.9869H102.673C102.858 33.9869 103.035 33.9375 103.166 33.8496C103.297 33.7617 103.37 33.6425 103.37 33.5182V33.3194C103.384 32.9173 103.532 32.5224 103.803 32.1637C104.073 31.8049 104.46 31.4913 104.934 31.2459C105.833 30.6947 106.551 30.0235 107.042 29.2752C107.533 28.5269 107.786 27.7179 107.786 26.9C107.783 26.0668 107.519 25.2432 107.014 24.4825C106.508 23.7218 105.77 23.0407 104.849 22.4832ZM98.0667 30.5926L95.1086 28.6043L96.482 27.5959L97.961 28.5901L102.926 25.2526L104.469 26.2894L98.0667 30.5926Z" fill="#273549"/>
<path d="M139.763 74L136.991 67.7H137.963L140.51 73.514H139.952L142.517 67.7H143.417L140.654 74H139.763ZM144.22 74V67.7H145.12V74H144.22ZM147.826 70.418H151.066V71.183H147.826V70.418ZM147.907 73.217H151.579V74H147.007V67.7H151.453V68.483H147.907V73.217ZM154.397 74L152.291 67.7H153.218L155.153 73.514H154.685L156.692 67.7H157.52L159.482 73.514H159.032L160.994 67.7H161.849L159.743 74H158.798L156.962 68.609H157.205L155.36 74H154.397ZM170.017 67.7H170.917V74H170.017V67.7ZM166.399 74H165.499V67.7H166.399V74ZM170.098 71.192H166.309V70.409H170.098V71.192ZM175.646 74.072C175.166 74.072 174.719 73.991 174.305 73.829C173.897 73.667 173.543 73.442 173.243 73.154C172.943 72.86 172.709 72.518 172.541 72.128C172.373 71.738 172.289 71.312 172.289 70.85C172.289 70.388 172.373 69.962 172.541 69.572C172.709 69.182 172.943 68.843 173.243 68.555C173.543 68.261 173.897 68.033 174.305 67.871C174.713 67.709 175.16 67.628 175.646 67.628C176.126 67.628 176.567 67.709 176.969 67.871C177.377 68.027 177.731 68.252 178.031 68.546C178.337 68.834 178.571 69.173 178.733 69.563C178.901 69.953 178.985 70.382 178.985 70.85C178.985 71.318 178.901 71.747 178.733 72.137C178.571 72.527 178.337 72.869 178.031 73.163C177.731 73.451 177.377 73.676 176.969 73.838C176.567 73.994 176.126 74.072 175.646 74.072ZM175.646 73.271C175.994 73.271 176.315 73.211 176.609 73.091C176.909 72.971 177.167 72.803 177.383 72.587C177.605 72.365 177.776 72.107 177.896 71.813C178.022 71.519 178.085 71.198 178.085 70.85C178.085 70.502 178.022 70.181 177.896 69.887C177.776 69.593 177.605 69.338 177.383 69.122C177.167 68.9 176.909 68.729 176.609 68.609C176.315 68.489 175.994 68.429 175.646 68.429C175.292 68.429 174.965 68.489 174.665 68.609C174.371 68.729 174.113 68.9 173.891 69.122C173.669 69.338 173.495 69.593 173.369 69.887C173.249 70.181 173.189 70.502 173.189 70.85C173.189 71.198 173.249 71.519 173.369 71.813C173.495 72.107 173.669 72.365 173.891 72.587C174.113 72.803 174.371 72.971 174.665 73.091C174.965 73.211 175.292 73.271 175.646 73.271ZM181.617 74L179.511 67.7H180.438L182.373 73.514H181.905L183.912 67.7H184.74L186.702 73.514H186.252L188.214 67.7H189.069L186.963 74H186.018L184.182 68.609H184.425L182.58 74H181.617ZM193.969 74V68.483H191.809V67.7H197.02V68.483H194.86V74H193.969ZM200.757 74.072C200.277 74.072 199.83 73.991 199.416 73.829C199.008 73.667 198.654 73.442 198.354 73.154C198.054 72.86 197.82 72.518 197.652 72.128C197.484 71.738 197.4 71.312 197.4 70.85C197.4 70.388 197.484 69.962 197.652 69.572C197.82 69.182 198.054 68.843 198.354 68.555C198.654 68.261 199.008 68.033 199.416 67.871C199.824 67.709 200.271 67.628 200.757 67.628C201.237 67.628 201.678 67.709 202.08 67.871C202.488 68.027 202.842 68.252 203.142 68.546C203.448 68.834 203.682 69.173 203.844 69.563C204.012 69.953 204.096 70.382 204.096 70.85C204.096 71.318 204.012 71.747 203.844 72.137C203.682 72.527 203.448 72.869 203.142 73.163C202.842 73.451 202.488 73.676 202.08 73.838C201.678 73.994 201.237 74.072 200.757 74.072ZM200.757 73.271C201.105 73.271 201.426 73.211 201.72 73.091C202.02 72.971 202.278 72.803 202.494 72.587C202.716 72.365 202.887 72.107 203.007 71.813C203.133 71.519 203.196 71.198 203.196 70.85C203.196 70.502 203.133 70.181 203.007 69.887C202.887 69.593 202.716 69.338 202.494 69.122C202.278 68.9 202.02 68.729 201.72 68.609C201.426 68.489 201.105 68.429 200.757 68.429C200.403 68.429 200.076 68.489 199.776 68.609C199.482 68.729 199.224 68.9 199.002 69.122C198.78 69.338 198.606 69.593 198.48 69.887C198.36 70.181 198.3 70.502 198.3 70.85C198.3 71.198 198.36 71.519 198.48 71.813C198.606 72.107 198.78 72.365 199.002 72.587C199.224 72.803 199.482 72.971 199.776 73.091C200.076 73.211 200.403 73.271 200.757 73.271Z" fill="#273549"/>
<path d="M220.185 70L216.992 72H219.387V75H220.983V72H223.378M225.773 67H214.597C214.173 67 213.767 67.1054 213.468 67.2929C213.168 67.4804 213 67.7348 213 68V74C213 74.2652 213.168 74.5196 213.468 74.7071C213.767 74.8946 214.173 75 214.597 75H217.79V74H214.597V69H225.773V74H222.58V75H225.773C226.197 75 226.603 74.8946 226.902 74.7071C227.202 74.5196 227.37 74.2652 227.37 74V68C227.37 67.7348 227.202 67.4804 226.902 67.2929C226.603 67.1054 226.197 67 225.773 67Z" fill="#273549"/>
<defs>
<filter id="filter0_d_622_493" x="39.1846" y="0.807861" width="348.815" height="125.673" filterUnits="userSpaceOnUse" color-interpolation-filters="sRGB">
<feFlood flood-opacity="0" result="BackgroundImageFix"/>
<feColorMatrix in="SourceAlpha" type="matrix" values="0 0 0 0 0 0 0 0 0 0 0 0 0 0 0 0 0 0 127 0" result="hardAlpha"/>
<feOffset/>
<feGaussianBlur stdDeviation="10"/>
<feColorMatrix type="matrix" values="0 0 0 0 0 0 0 0 0 0 0 0 0 0 0 0 0 0 0.1 0"/>
<feBlend mode="normal" in2="BackgroundImageFix" result="effect1_dropShadow_622_493"/>
<feBlend mode="normal" in="SourceGraphic" in2="effect1_dropShadow_622_493" result="shape"/>
</filter>
<radialGradient id="paint0_radial_622_493" cx="0" cy="0" r="1" gradientUnits="userSpaceOnUse" gradientTransform="translate(5825.49 4585.02) scale(1354.98 1202.64)">
<stop/>
<stop offset="1" stop-color="white"/>
</radialGradient>
</defs>
</svg>
