<svg width="376" height="127" viewBox="0 0 376 127" fill="none" xmlns="http://www.w3.org/2000/svg">
<g filter="url(#filter0_d_622_530)">
<path d="M57.8979 20.8079H312.638C325.199 20.8079 337.246 25.321 346.128 33.3544C355.01 41.3878 360 52.2834 360 63.6444C360 75.0054 355.01 85.901 346.128 93.9344C337.246 101.968 325.199 106.481 312.638 106.481H57.8979V20.8079Z" fill="white"/>
</g>
<path d="M116.943 63.3145C116.957 73.7245 113.54 83.9045 107.124 92.5664C100.708 101.228 91.5806 107.983 80.8977 111.976C70.2147 115.968 58.4558 117.02 47.1087 114.997C35.7616 112.974 25.3362 107.967 17.1516 100.611C8.96694 93.2545 3.39087 83.8786 1.12886 73.6695C-1.13316 63.4604 0.0205243 52.8769 4.44394 43.258C8.86736 33.6391 16.3617 25.4171 25.9789 19.6323C35.596 13.8474 46.9037 10.7596 58.4713 10.7596V63.2328L116.943 63.3145Z" fill="#273549"/>
<path d="M105.08 70.2832C109.265 46.9656 91.7565 24.9946 65.9734 21.2096C40.1903 17.4246 15.8962 33.259 11.711 56.5766C7.52582 79.8942 25.0344 101.865 50.8175 105.65C76.6006 109.435 100.895 93.6009 105.08 70.2832Z" fill="white"/>
<path style="mix-blend-mode:multiply" d="M64.4906 98.5482C83.6447 98.5482 99.1721 84.4602 99.1721 67.0818C99.1721 49.7034 83.6447 35.6155 64.4906 35.6155C45.3365 35.6155 29.8091 49.7034 29.8091 67.0818C29.8091 84.4602 45.3365 98.5482 64.4906 98.5482Z" fill="url(#paint0_radial_622_530)"/>
<path d="M94.132 6.00422C88.7648 6.48217 83.7284 8.60237 79.832 12.0242C75.9355 15.4461 73.4051 19.9709 72.6474 24.8718C72.6474 24.954 72.6474 25.0526 72.6474 25.1348C72.3627 27.5012 71.0778 29.6706 69.069 31.1765C67.0602 32.6825 64.4879 33.4047 61.9051 33.188C59.8868 33.0067 57.854 33.0067 55.8357 33.188C49.3809 33.634 43.2186 35.8404 38.1395 39.5241C33.0604 43.2078 29.2963 48.2006 27.3302 53.862C25.3642 59.5233 25.2858 65.5948 27.1052 71.2973C28.9247 76.9997 32.5589 82.0731 37.5415 85.8661C42.5241 89.6592 48.6277 91.999 55.0692 92.5853C61.5106 93.1715 67.996 91.9775 73.6929 89.1563C79.3899 86.3352 84.0385 82.0157 87.0423 76.7522C90.0461 71.4887 91.268 65.5213 90.5512 59.6158C90.3151 57.2449 91.1019 54.8835 92.7424 53.0395C94.3829 51.1955 96.7462 50.016 99.3241 49.7547H99.6105C105.83 48.9929 111.474 46.0201 115.33 41.4762C119.185 36.9323 120.943 31.1806 120.224 25.4589C119.506 19.7372 116.37 14.5031 111.49 10.8831C106.61 7.26301 100.377 5.54645 94.132 6.10283V6.00422Z" fill="#273549"/>
<path d="M58.8141 83.5375C57.6445 83.5375 56.6408 83.2416 55.8027 82.6497C54.9694 82.0531 54.3278 81.1937 53.878 80.0716C53.4329 78.9447 53.2104 77.5881 53.2104 76.002C53.2151 74.4158 53.44 73.0664 53.8851 71.9537C54.3349 70.8363 54.9765 69.984 55.8098 69.3969C56.6479 68.8097 57.6493 68.5162 58.8141 68.5162C59.9788 68.5162 60.9802 68.8097 61.8183 69.3969C62.6564 69.984 63.298 70.8363 63.743 71.9537C64.1928 73.0711 64.4177 74.4205 64.4177 76.002C64.4177 77.5929 64.1928 78.9518 63.743 80.0787C63.298 81.2008 62.6564 82.0578 61.8183 82.6497C60.985 83.2416 59.9836 83.5375 58.8141 83.5375ZM58.8141 81.3145C59.7231 81.3145 60.4405 80.867 60.966 79.9721C61.4963 79.0725 61.7615 77.7491 61.7615 76.002C61.7615 74.8467 61.6408 73.876 61.3993 73.09C61.1578 72.3041 60.8169 71.7122 60.3766 71.3145C59.9362 70.912 59.4154 70.7108 58.8141 70.7108C57.9097 70.7108 57.1947 71.1606 56.6692 72.0602C56.1436 72.9551 55.8784 74.269 55.8737 76.002C55.869 77.162 55.985 78.1374 56.2217 78.9281C56.4632 79.7188 56.8041 80.3154 57.2445 80.7179C57.6848 81.1156 58.208 81.3145 58.8141 81.3145ZM71.8343 83.4594C70.8873 83.4594 70.0398 83.2818 69.2917 82.9267C68.5436 82.5668 67.9494 82.0744 67.509 81.4494C67.0734 80.8244 66.8414 80.1095 66.813 79.3045H69.3698C69.4172 79.9011 69.6752 80.3888 70.144 80.7676C70.6127 81.1417 71.1762 81.3287 71.8343 81.3287C72.3504 81.3287 72.8097 81.2103 73.2121 80.9736C73.6146 80.7368 73.9318 80.4078 74.1638 79.9864C74.3958 79.5649 74.5095 79.0844 74.5048 78.5446C74.5095 77.9953 74.3935 77.5077 74.1567 77.0815C73.92 76.6554 73.5957 76.3216 73.1837 76.0801C72.7718 75.8339 72.2983 75.7108 71.7633 75.7108C71.3277 75.706 70.8992 75.7865 70.4778 75.9523C70.0564 76.118 69.7226 76.3358 69.4763 76.6057L67.0971 76.215L67.857 68.715H76.2945V70.9167H70.0374L69.6184 74.7733H69.7036C69.9735 74.456 70.3547 74.1933 70.8471 73.9849C71.3395 73.7719 71.8793 73.6653 72.4664 73.6653C73.3471 73.6653 74.1331 73.8737 74.8244 74.2903C75.5156 74.7023 76.0601 75.2704 76.4579 75.9949C76.8556 76.7193 77.0545 77.5479 77.0545 78.4807C77.0545 79.4418 76.8319 80.2989 76.3869 81.0517C75.9465 81.7998 75.3333 82.3893 74.5474 82.8202C73.7661 83.2463 72.8618 83.4594 71.8343 83.4594Z" fill="white"/>
<path d="M50.5912 46.7402C50.5382 46.244 50.3147 45.8577 49.9208 45.5811C49.5306 45.3046 49.023 45.1664 48.398 45.1664C47.9586 45.1664 47.5818 45.2327 47.2674 45.3652C46.953 45.4978 46.7124 45.6777 46.5458 45.905C46.3791 46.1323 46.2939 46.3917 46.2901 46.6834C46.2901 46.9258 46.345 47.1361 46.4549 47.3141C46.5685 47.4921 46.7219 47.6436 46.9151 47.7686C47.1083 47.8899 47.3223 47.9921 47.5571 48.0755C47.792 48.1588 48.0287 48.2289 48.2674 48.2857L49.3583 48.5584C49.7977 48.6607 50.22 48.7989 50.6253 48.9732C51.0344 49.1474 51.3999 49.3671 51.7219 49.6323C52.0477 49.8974 52.3052 50.2175 52.4946 50.5925C52.684 50.9675 52.7787 51.4069 52.7787 51.9107C52.7787 52.5925 52.6045 53.1929 52.256 53.7118C51.9075 54.227 51.4037 54.6304 50.7446 54.9221C50.0893 55.2099 49.2958 55.3539 48.3639 55.3539C47.4586 55.3539 46.6727 55.2137 46.006 54.9334C45.3431 54.6531 44.8242 54.244 44.4492 53.7061C44.078 53.1683 43.8772 52.513 43.8469 51.7402H45.9208C45.9511 52.1455 46.0761 52.4827 46.2958 52.7516C46.5155 53.0205 46.8014 53.2213 47.1537 53.3539C47.5098 53.4864 47.9075 53.5527 48.3469 53.5527C48.8052 53.5527 49.2068 53.4846 49.5514 53.3482C49.8999 53.208 50.1727 53.0149 50.3696 52.7686C50.5666 52.5186 50.667 52.227 50.6708 51.8936C50.667 51.5906 50.578 51.3406 50.4037 51.1436C50.2295 50.9429 49.9852 50.7762 49.6708 50.6436C49.3602 50.5073 48.9965 50.3861 48.5799 50.28L47.256 49.9391C46.2977 49.6929 45.5401 49.3198 44.9833 48.8198C44.4302 48.316 44.1537 47.6474 44.1537 46.8141C44.1537 46.1285 44.3393 45.5281 44.7105 45.013C45.0855 44.4978 45.595 44.0982 46.2389 43.8141C46.8829 43.5262 47.6121 43.3823 48.4264 43.3823C49.2522 43.3823 49.9757 43.5262 50.5969 43.8141C51.2219 44.0982 51.7124 44.494 52.0685 45.0016C52.4246 45.5054 52.6083 46.0849 52.6196 46.7402H50.5912ZM54.1466 45.3084V43.5414H63.4307V45.3084H59.8341V55.1777H57.7432V45.3084H54.1466ZM65.2205 55.1777V43.5414H72.7887V45.3084H67.3284V48.4675H72.3966V50.2346H67.3284V53.4107H72.8341V55.1777H65.2205ZM74.9392 55.1777V43.5414H79.3029C80.1968 43.5414 80.9468 43.708 81.5529 44.0414C82.1627 44.3747 82.6229 44.833 82.9335 45.4164C83.2479 45.9959 83.4051 46.655 83.4051 47.3936C83.4051 48.1399 83.2479 48.8027 82.9335 49.3823C82.6192 49.9618 82.1551 50.4183 81.5415 50.7516C80.9279 51.0811 80.1722 51.2459 79.2745 51.2459H76.3824V49.513H78.9904C79.5131 49.513 79.9411 49.4221 80.2745 49.2402C80.6078 49.0584 80.854 48.8084 81.0131 48.4902C81.176 48.1721 81.2574 47.8065 81.2574 47.3936C81.2574 46.9808 81.176 46.6171 81.0131 46.3027C80.854 45.9883 80.6059 45.744 80.2688 45.5698C79.9354 45.3917 79.5055 45.3027 78.979 45.3027H77.0472V55.1777H74.9392Z" fill="white"/>
<path d="M96.3058 44.0769C105.804 44.0769 113.503 37.2105 113.503 28.7404C113.503 20.2702 105.804 13.4038 96.3058 13.4038C86.808 13.4038 79.1084 20.2702 79.1084 28.7404C79.1084 37.2105 86.808 44.0769 96.3058 44.0769Z" fill="white"/>
<path d="M132.72 52.084C132.136 52.084 131.608 51.984 131.136 51.784C130.672 51.584 130.304 51.296 130.032 50.92C129.76 50.544 129.62 50.1 129.612 49.588H131.412C131.436 49.932 131.556 50.204 131.772 50.404C131.996 50.604 132.3 50.704 132.684 50.704C133.076 50.704 133.384 50.612 133.608 50.428C133.832 50.236 133.944 49.988 133.944 49.684C133.944 49.436 133.868 49.232 133.716 49.072C133.564 48.912 133.372 48.788 133.14 48.7C132.916 48.604 132.604 48.5 132.204 48.388C131.66 48.228 131.216 48.072 130.872 47.92C130.536 47.76 130.244 47.524 129.996 47.212C129.756 46.892 129.636 46.468 129.636 45.94C129.636 45.444 129.76 45.012 130.008 44.644C130.256 44.276 130.604 43.996 131.052 43.804C131.5 43.604 132.012 43.504 132.588 43.504C133.452 43.504 134.152 43.716 134.688 44.14C135.232 44.556 135.532 45.14 135.588 45.892H133.74C133.724 45.604 133.6 45.368 133.368 45.184C133.144 44.992 132.844 44.896 132.468 44.896C132.14 44.896 131.876 44.98 131.676 45.148C131.484 45.316 131.388 45.56 131.388 45.88C131.388 46.104 131.46 46.292 131.604 46.444C131.756 46.588 131.94 46.708 132.156 46.804C132.38 46.892 132.692 46.996 133.092 47.116C133.636 47.276 134.08 47.436 134.424 47.596C134.768 47.756 135.064 47.996 135.312 48.316C135.56 48.636 135.684 49.056 135.684 49.576C135.684 50.024 135.568 50.44 135.336 50.824C135.104 51.208 134.764 51.516 134.316 51.748C133.868 51.972 133.336 52.084 132.72 52.084ZM138.797 43.624V48.808C138.797 49.376 138.945 49.812 139.241 50.116C139.537 50.412 139.953 50.56 140.489 50.56C141.033 50.56 141.453 50.412 141.749 50.116C142.045 49.812 142.193 49.376 142.193 48.808V43.624H143.885V48.796C143.885 49.508 143.729 50.112 143.417 50.608C143.113 51.096 142.701 51.464 142.181 51.712C141.669 51.96 141.097 52.084 140.465 52.084C139.841 52.084 139.273 51.96 138.761 51.712C138.257 51.464 137.857 51.096 137.561 50.608C137.265 50.112 137.117 49.508 137.117 48.796V43.624H138.797ZM150.26 47.704C150.732 47.792 151.12 48.028 151.424 48.412C151.728 48.796 151.88 49.236 151.88 49.732C151.88 50.18 151.768 50.576 151.544 50.92C151.328 51.256 151.012 51.52 150.596 51.712C150.18 51.904 149.688 52 149.12 52H145.508V43.624H148.964C149.532 43.624 150.02 43.716 150.428 43.9C150.844 44.084 151.156 44.34 151.364 44.668C151.58 44.996 151.688 45.368 151.688 45.784C151.688 46.272 151.556 46.68 151.292 47.008C151.036 47.336 150.692 47.568 150.26 47.704ZM147.188 47.08H148.724C149.124 47.08 149.432 46.992 149.648 46.816C149.864 46.632 149.972 46.372 149.972 46.036C149.972 45.7 149.864 45.44 149.648 45.256C149.432 45.072 149.124 44.98 148.724 44.98H147.188V47.08ZM148.88 50.632C149.288 50.632 149.604 50.536 149.828 50.344C150.06 50.152 150.176 49.88 150.176 49.528C150.176 49.168 150.056 48.888 149.816 48.688C149.576 48.48 149.252 48.376 148.844 48.376H147.188V50.632H148.88ZM162.351 43.624V52H160.671V46.552L158.427 52H157.155L154.899 46.552V52H153.219V43.624H155.127L157.791 49.852L160.455 43.624H162.351ZM165.692 43.624V52H164.012V43.624H165.692ZM173.051 43.624V44.98H170.819V52H169.139V44.98H166.907V43.624H173.051ZM182.837 43.624V44.98H180.605V52H178.925V44.98H176.693V43.624H182.837ZM191.01 43.624V52H189.33V48.436H185.742V52H184.062V43.624H185.742V47.068H189.33V43.624H191.01ZM194.344 44.98V47.08H197.164V48.412H194.344V50.632H197.524V52H192.664V43.612H197.524V44.98H194.344ZM206.23 52L204.382 48.736H203.59V52H201.91V43.624H205.054C205.702 43.624 206.254 43.74 206.71 43.972C207.166 44.196 207.506 44.504 207.73 44.896C207.962 45.28 208.078 45.712 208.078 46.192C208.078 46.744 207.918 47.244 207.598 47.692C207.278 48.132 206.802 48.436 206.17 48.604L208.174 52H206.23ZM203.59 47.476H204.994C205.45 47.476 205.79 47.368 206.014 47.152C206.238 46.928 206.35 46.62 206.35 46.228C206.35 45.844 206.238 45.548 206.014 45.34C205.79 45.124 205.45 45.016 204.994 45.016H203.59V47.476ZM211.278 44.98V47.08H214.098V48.412H211.278V50.632H214.458V52H209.598V43.612H214.458V44.98H211.278ZM222.224 53.476L220.952 51.952C220.6 52.04 220.24 52.084 219.872 52.084C219.088 52.084 218.368 51.9 217.712 51.532C217.056 51.164 216.536 50.656 216.152 50.008C215.768 49.352 215.576 48.612 215.576 47.788C215.576 46.972 215.768 46.24 216.152 45.592C216.536 44.936 217.056 44.424 217.712 44.056C218.368 43.688 219.088 43.504 219.872 43.504C220.664 43.504 221.384 43.688 222.032 44.056C222.688 44.424 223.204 44.936 223.58 45.592C223.964 46.24 224.156 46.972 224.156 47.788C224.156 48.532 223.996 49.212 223.676 49.828C223.364 50.436 222.936 50.932 222.392 51.316L224.312 53.476H222.224ZM217.304 47.788C217.304 48.348 217.412 48.84 217.628 49.264C217.844 49.688 218.144 50.016 218.528 50.248C218.92 50.472 219.368 50.584 219.872 50.584C220.376 50.584 220.82 50.472 221.204 50.248C221.588 50.016 221.888 49.688 222.104 49.264C222.32 48.84 222.428 48.348 222.428 47.788C222.428 47.228 222.32 46.74 222.104 46.324C221.888 45.9 221.588 45.576 221.204 45.352C220.82 45.128 220.376 45.016 219.872 45.016C219.368 45.016 218.92 45.128 218.528 45.352C218.144 45.576 217.844 45.9 217.628 46.324C217.412 46.74 217.304 47.228 217.304 47.788ZM227.086 43.624V48.808C227.086 49.376 227.234 49.812 227.53 50.116C227.826 50.412 228.242 50.56 228.778 50.56C229.322 50.56 229.742 50.412 230.038 50.116C230.334 49.812 230.482 49.376 230.482 48.808V43.624H232.174V48.796C232.174 49.508 232.018 50.112 231.706 50.608C231.402 51.096 230.99 51.464 230.47 51.712C229.958 51.96 229.386 52.084 228.754 52.084C228.13 52.084 227.562 51.96 227.05 51.712C226.546 51.464 226.146 51.096 225.85 50.608C225.554 50.112 225.406 49.508 225.406 48.796V43.624H227.086ZM235.477 43.624V52H233.797V43.624H235.477ZM241.457 52L239.609 48.736H238.817V52H237.137V43.624H240.281C240.929 43.624 241.481 43.74 241.937 43.972C242.393 44.196 242.733 44.504 242.957 44.896C243.189 45.28 243.305 45.712 243.305 46.192C243.305 46.744 243.145 47.244 242.825 47.692C242.505 48.132 242.029 48.436 241.397 48.604L243.401 52H241.457ZM238.817 47.476H240.221C240.677 47.476 241.017 47.368 241.241 47.152C241.465 46.928 241.577 46.62 241.577 46.228C241.577 45.844 241.465 45.548 241.241 45.34C241.017 45.124 240.677 45.016 240.221 45.016H238.817V47.476ZM246.504 44.98V47.08H249.324V48.412H246.504V50.632H249.684V52H244.824V43.612H249.684V44.98H246.504ZM254.139 43.624C255.019 43.624 255.791 43.796 256.455 44.14C257.127 44.484 257.643 44.976 258.003 45.616C258.371 46.248 258.555 46.984 258.555 47.824C258.555 48.664 258.371 49.4 258.003 50.032C257.643 50.656 257.127 51.14 256.455 51.484C255.791 51.828 255.019 52 254.139 52H251.211V43.624H254.139ZM254.079 50.572C254.959 50.572 255.639 50.332 256.119 49.852C256.599 49.372 256.839 48.696 256.839 47.824C256.839 46.952 256.599 46.272 256.119 45.784C255.639 45.288 254.959 45.04 254.079 45.04H252.891V50.572H254.079ZM265.6 43.624C266.48 43.624 267.252 43.796 267.916 44.14C268.588 44.484 269.104 44.976 269.464 45.616C269.832 46.248 270.016 46.984 270.016 47.824C270.016 48.664 269.832 49.4 269.464 50.032C269.104 50.656 268.588 51.14 267.916 51.484C267.252 51.828 266.48 52 265.6 52H262.672V43.624H265.6ZM265.54 50.572C266.42 50.572 267.1 50.332 267.58 49.852C268.06 49.372 268.3 48.696 268.3 47.824C268.3 46.952 268.06 46.272 267.58 45.784C267.1 45.288 266.42 45.04 265.54 45.04H264.352V50.572H265.54ZM275.161 52.084C274.377 52.084 273.657 51.9 273.001 51.532C272.345 51.164 271.825 50.656 271.441 50.008C271.057 49.352 270.865 48.612 270.865 47.788C270.865 46.972 271.057 46.24 271.441 45.592C271.825 44.936 272.345 44.424 273.001 44.056C273.657 43.688 274.377 43.504 275.161 43.504C275.953 43.504 276.673 43.688 277.321 44.056C277.977 44.424 278.493 44.936 278.869 45.592C279.253 46.24 279.445 46.972 279.445 47.788C279.445 48.612 279.253 49.352 278.869 50.008C278.493 50.656 277.977 51.164 277.321 51.532C276.665 51.9 275.945 52.084 275.161 52.084ZM275.161 50.584C275.665 50.584 276.109 50.472 276.493 50.248C276.877 50.016 277.177 49.688 277.393 49.264C277.609 48.84 277.717 48.348 277.717 47.788C277.717 47.228 277.609 46.74 277.393 46.324C277.177 45.9 276.877 45.576 276.493 45.352C276.109 45.128 275.665 45.016 275.161 45.016C274.657 45.016 274.209 45.128 273.817 45.352C273.433 45.576 273.133 45.9 272.917 46.324C272.701 46.74 272.593 47.228 272.593 47.788C272.593 48.348 272.701 48.84 272.917 49.264C273.133 49.688 273.433 50.016 273.817 50.248C274.209 50.472 274.657 50.584 275.161 50.584ZM280.287 47.8C280.287 46.976 280.471 46.24 280.839 45.592C281.215 44.936 281.723 44.428 282.363 44.068C283.011 43.7 283.735 43.516 284.535 43.516C285.471 43.516 286.291 43.756 286.995 44.236C287.699 44.716 288.191 45.38 288.471 46.228H286.539C286.347 45.828 286.075 45.528 285.723 45.328C285.379 45.128 284.979 45.028 284.523 45.028C284.035 45.028 283.599 45.144 283.215 45.376C282.839 45.6 282.543 45.92 282.327 46.336C282.119 46.752 282.015 47.24 282.015 47.8C282.015 48.352 282.119 48.84 282.327 49.264C282.543 49.68 282.839 50.004 283.215 50.236C283.599 50.46 284.035 50.572 284.523 50.572C284.979 50.572 285.379 50.472 285.723 50.272C286.075 50.064 286.347 49.76 286.539 49.36H288.471C288.191 50.216 287.699 50.884 286.995 51.364C286.299 51.836 285.479 52.072 284.535 52.072C283.735 52.072 283.011 51.892 282.363 51.532C281.723 51.164 281.215 50.656 280.839 50.008C280.471 49.36 280.287 48.624 280.287 47.8ZM291.562 43.624V48.808C291.562 49.376 291.71 49.812 292.006 50.116C292.302 50.412 292.718 50.56 293.254 50.56C293.798 50.56 294.218 50.412 294.514 50.116C294.81 49.812 294.958 49.376 294.958 48.808V43.624H296.65V48.796C296.65 49.508 296.494 50.112 296.182 50.608C295.878 51.096 295.466 51.464 294.946 51.712C294.434 51.96 293.862 52.084 293.23 52.084C292.606 52.084 292.038 51.96 291.526 51.712C291.022 51.464 290.622 51.096 290.326 50.608C290.03 50.112 289.882 49.508 289.882 48.796V43.624H291.562ZM307.405 43.624V52H305.725V46.552L303.481 52H302.209L299.953 46.552V52H298.273V43.624H300.181L302.845 49.852L305.509 43.624H307.405ZM310.746 44.98V47.08H313.566V48.412H310.746V50.632H313.926V52H309.066V43.612H313.926V44.98H310.746ZM322.617 52H320.937L317.133 46.252V52H315.453V43.612H317.133L320.937 49.372V43.612H322.617V52ZM329.977 43.624V44.98H327.745V52H326.065V44.98H323.833V43.624H329.977ZM334.095 52.084C333.511 52.084 332.983 51.984 332.511 51.784C332.047 51.584 331.679 51.296 331.407 50.92C331.135 50.544 330.995 50.1 330.987 49.588H332.787C332.811 49.932 332.931 50.204 333.147 50.404C333.371 50.604 333.675 50.704 334.059 50.704C334.451 50.704 334.759 50.612 334.983 50.428C335.207 50.236 335.319 49.988 335.319 49.684C335.319 49.436 335.243 49.232 335.091 49.072C334.939 48.912 334.747 48.788 334.515 48.7C334.291 48.604 333.979 48.5 333.579 48.388C333.035 48.228 332.591 48.072 332.247 47.92C331.911 47.76 331.619 47.524 331.371 47.212C331.131 46.892 331.011 46.468 331.011 45.94C331.011 45.444 331.135 45.012 331.383 44.644C331.631 44.276 331.979 43.996 332.427 43.804C332.875 43.604 333.387 43.504 333.963 43.504C334.827 43.504 335.527 43.716 336.063 44.14C336.607 44.556 336.907 45.14 336.963 45.892H335.115C335.099 45.604 334.975 45.368 334.743 45.184C334.519 44.992 334.219 44.896 333.843 44.896C333.515 44.896 333.251 44.98 333.051 45.148C332.859 45.316 332.763 45.56 332.763 45.88C332.763 46.104 332.835 46.292 332.979 46.444C333.131 46.588 333.315 46.708 333.531 46.804C333.755 46.892 334.067 46.996 334.467 47.116C335.011 47.276 335.455 47.436 335.799 47.596C336.143 47.756 336.439 47.996 336.687 48.316C336.935 48.636 337.059 49.056 337.059 49.576C337.059 50.024 336.943 50.44 336.711 50.824C336.479 51.208 336.139 51.516 335.691 51.748C335.243 51.972 334.711 52.084 334.095 52.084Z" fill="#10B981"/>
<path d="M104.122 30.2083V25.0722C104.122 25.0163 104.11 24.9609 104.086 24.9093C104.062 24.8576 104.027 24.8107 103.983 24.7712L101.484 22.5413C101.394 22.4616 101.273 22.4168 101.147 22.4167H91.8967C91.7704 22.4167 91.6492 22.4614 91.5599 22.5411C91.4706 22.6208 91.4204 22.7289 91.4204 22.8417V36.1583C91.4204 36.271 91.4706 36.3791 91.5599 36.4589C91.6492 36.5386 91.7704 36.5833 91.8967 36.5833H99.3591" stroke="#273549" stroke-width="1.5" stroke-linecap="round" stroke-linejoin="round"/>
<path d="M100.947 22.4167V24.825C100.947 24.9377 100.997 25.0458 101.086 25.1255C101.176 25.2052 101.297 25.25 101.423 25.25H104.122M100.947 34.4583H105.71M105.71 34.4583L103.328 32.3333M105.71 34.4583L103.328 36.5833" stroke="#273549" stroke-width="1.5" stroke-linecap="round" stroke-linejoin="round"/>
<path d="M132.762 72.072C132.282 72.072 131.838 71.994 131.43 71.838C131.028 71.676 130.677 71.451 130.377 71.163C130.083 70.869 129.852 70.527 129.684 70.137C129.516 69.747 129.432 69.318 129.432 68.85C129.432 68.382 129.516 67.953 129.684 67.563C129.852 67.173 130.086 66.834 130.386 66.546C130.686 66.252 131.037 66.027 131.439 65.871C131.847 65.709 132.291 65.628 132.771 65.628C133.257 65.628 133.704 65.712 134.112 65.88C134.526 66.042 134.877 66.285 135.165 66.609L134.58 67.176C134.34 66.924 134.07 66.738 133.77 66.618C133.47 66.492 133.149 66.429 132.807 66.429C132.453 66.429 132.123 66.489 131.817 66.609C131.517 66.729 131.256 66.897 131.034 67.113C130.812 67.329 130.638 67.587 130.512 67.887C130.392 68.181 130.332 68.502 130.332 68.85C130.332 69.198 130.392 69.522 130.512 69.822C130.638 70.116 130.812 70.371 131.034 70.587C131.256 70.803 131.517 70.971 131.817 71.091C132.123 71.211 132.453 71.271 132.807 71.271C133.149 71.271 133.47 71.211 133.77 71.091C134.07 70.965 134.34 70.773 134.58 70.515L135.165 71.082C134.877 71.406 134.526 71.652 134.112 71.82C133.704 71.988 133.254 72.072 132.762 72.072ZM136.449 72V65.7H137.349V71.217H140.76V72H136.449ZM141.793 72V65.7H142.693V72H141.793ZM147.396 72.072C146.916 72.072 146.472 71.994 146.064 71.838C145.662 71.676 145.311 71.451 145.011 71.163C144.717 70.869 144.486 70.527 144.318 70.137C144.15 69.747 144.066 69.318 144.066 68.85C144.066 68.382 144.15 67.953 144.318 67.563C144.486 67.173 144.72 66.834 145.02 66.546C145.32 66.252 145.671 66.027 146.073 65.871C146.481 65.709 146.925 65.628 147.405 65.628C147.891 65.628 148.338 65.712 148.746 65.88C149.16 66.042 149.511 66.285 149.799 66.609L149.214 67.176C148.974 66.924 148.704 66.738 148.404 66.618C148.104 66.492 147.783 66.429 147.441 66.429C147.087 66.429 146.757 66.489 146.451 66.609C146.151 66.729 145.89 66.897 145.668 67.113C145.446 67.329 145.272 67.587 145.146 67.887C145.026 68.181 144.966 68.502 144.966 68.85C144.966 69.198 145.026 69.522 145.146 69.822C145.272 70.116 145.446 70.371 145.668 70.587C145.89 70.803 146.151 70.971 146.451 71.091C146.757 71.211 147.087 71.271 147.441 71.271C147.783 71.271 148.104 71.211 148.404 71.091C148.704 70.965 148.974 70.773 149.214 70.515L149.799 71.082C149.511 71.406 149.16 71.652 148.746 71.82C148.338 71.988 147.888 72.072 147.396 72.072ZM151.875 70.479L151.83 69.381L155.403 65.7H156.429L153.666 68.616L153.162 69.174L151.875 70.479ZM151.083 72V65.7H151.983V72H151.083ZM155.547 72L152.964 68.994L153.567 68.328L156.6 72H155.547ZM161.219 72V66.483H159.059V65.7H164.27V66.483H162.11V72H161.219ZM168.007 72.072C167.527 72.072 167.08 71.991 166.666 71.829C166.258 71.667 165.904 71.442 165.604 71.154C165.304 70.86 165.07 70.518 164.902 70.128C164.734 69.738 164.65 69.312 164.65 68.85C164.65 68.388 164.734 67.962 164.902 67.572C165.07 67.182 165.304 66.843 165.604 66.555C165.904 66.261 166.258 66.033 166.666 65.871C167.074 65.709 167.521 65.628 168.007 65.628C168.487 65.628 168.928 65.709 169.33 65.871C169.738 66.027 170.092 66.252 170.392 66.546C170.698 66.834 170.932 67.173 171.094 67.563C171.262 67.953 171.346 68.382 171.346 68.85C171.346 69.318 171.262 69.747 171.094 70.137C170.932 70.527 170.698 70.869 170.392 71.163C170.092 71.451 169.738 71.676 169.33 71.838C168.928 71.994 168.487 72.072 168.007 72.072ZM168.007 71.271C168.355 71.271 168.676 71.211 168.97 71.091C169.27 70.971 169.528 70.803 169.744 70.587C169.966 70.365 170.137 70.107 170.257 69.813C170.383 69.519 170.446 69.198 170.446 68.85C170.446 68.502 170.383 68.181 170.257 67.887C170.137 67.593 169.966 67.338 169.744 67.122C169.528 66.9 169.27 66.729 168.97 66.609C168.676 66.489 168.355 66.429 168.007 66.429C167.653 66.429 167.326 66.489 167.026 66.609C166.732 66.729 166.474 66.9 166.252 67.122C166.03 67.338 165.856 67.593 165.73 67.887C165.61 68.181 165.55 68.502 165.55 68.85C165.55 69.198 165.61 69.519 165.73 69.813C165.856 70.107 166.03 70.365 166.252 70.587C166.474 70.803 166.732 70.971 167.026 71.091C167.326 71.211 167.653 71.271 168.007 71.271ZM176.956 72L174.184 65.7H175.156L177.703 71.514H177.145L179.71 65.7H180.61L177.847 72H176.956ZM181.414 72V65.7H182.314V72H181.414ZM185.019 68.418H188.259V69.183H185.019V68.418ZM185.1 71.217H188.772V72H184.2V65.7H188.646V66.483H185.1V71.217ZM191.59 72L189.484 65.7H190.411L192.346 71.514H191.878L193.885 65.7H194.713L196.675 71.514H196.225L198.187 65.7H199.042L196.936 72H195.991L194.155 66.609H194.398L192.553 72H191.59Z" fill="#273549"/>
<path d="M213.185 68L209.992 70H212.387V73H213.983V70H216.378M218.773 65H207.597C207.173 65 206.767 65.1054 206.468 65.2929C206.168 65.4804 206 65.7348 206 66V72C206 72.2652 206.168 72.5196 206.468 72.7071C206.767 72.8946 207.173 73 207.597 73H210.79V72H207.597V67H218.773V72H215.58V73H218.773C219.197 73 219.603 72.8946 219.902 72.7071C220.202 72.5196 220.37 72.2652 220.37 72V66C220.37 65.7348 220.202 65.4804 219.902 65.2929C219.603 65.1054 219.197 65 218.773 65Z" fill="#273549"/>
<defs>
<filter id="filter0_d_622_530" x="37.8979" y="0.807861" width="342.102" height="125.673" filterUnits="userSpaceOnUse" color-interpolation-filters="sRGB">
<feFlood flood-opacity="0" result="BackgroundImageFix"/>
<feColorMatrix in="SourceAlpha" type="matrix" values="0 0 0 0 0 0 0 0 0 0 0 0 0 0 0 0 0 0 127 0" result="hardAlpha"/>
<feOffset/>
<feGaussianBlur stdDeviation="10"/>
<feColorMatrix type="matrix" values="0 0 0 0 0 0 0 0 0 0 0 0 0 0 0 0 0 0 0.1 0"/>
<feBlend mode="normal" in2="BackgroundImageFix" result="effect1_dropShadow_622_530"/>
<feBlend mode="normal" in="SourceGraphic" in2="effect1_dropShadow_622_530" result="shape"/>
</filter>
<radialGradient id="paint0_radial_622_530" cx="0" cy="0" r="1" gradientUnits="userSpaceOnUse" gradientTransform="translate(5698.85 4585.02) scale(1325.53 1202.64)">
<stop/>
<stop offset="1" stop-color="white"/>
</radialGradient>
</defs>
</svg>
