<svg width="378" height="127" viewBox="0 0 378 127" fill="none" xmlns="http://www.w3.org/2000/svg">
<g filter="url(#filter0_d_622_512)">
<path d="M58.8633 20.8079H317.849C330.62 20.8079 342.867 25.321 351.897 33.3544C360.927 41.3878 366 52.2835 366 63.6444C366 75.0054 360.927 85.901 351.897 93.9344C342.867 101.968 330.62 106.481 317.849 106.481H58.8633V20.8079Z" fill="white"/>
</g>
<path d="M118.892 63.3145C118.906 73.7245 115.432 83.9045 108.909 92.5664C102.386 101.228 93.107 107.983 82.2459 111.976C71.3849 115.968 59.43 117.02 47.8938 114.997C36.3576 112.974 25.7585 107.967 17.4374 100.611C9.11639 93.2545 3.44739 83.8786 1.14767 73.6695C-1.15205 63.4604 0.0208664 52.8769 4.51801 43.258C9.01515 33.6391 16.6344 25.4171 26.4118 19.6323C36.1892 13.8474 47.6854 10.7596 59.4458 10.7596V63.2328L118.892 63.3145Z" fill="#273549"/>
<path d="M106.831 70.2832C111.086 46.9656 93.2858 24.9946 67.073 21.2096C40.8601 17.4246 16.1611 33.2589 11.9062 56.5766C7.65122 79.8942 25.4516 101.865 51.6644 105.65C77.8773 109.435 102.576 93.6009 106.831 70.2832Z" fill="white"/>
<path style="mix-blend-mode:multiply" d="M65.5657 98.5482C85.039 98.5482 100.825 84.4602 100.825 67.0818C100.825 49.7034 85.039 35.6155 65.5657 35.6155C46.0924 35.6155 30.3062 49.7034 30.3062 67.0818C30.3062 84.4602 46.0924 98.5482 65.5657 98.5482Z" fill="url(#paint0_radial_622_512)"/>
<path d="M95.7011 6.00422C90.2445 6.48217 85.1242 8.60237 81.1628 12.0242C77.2014 15.4461 74.6288 19.9709 73.8584 24.8718C73.8584 24.954 73.8584 25.0526 73.8584 25.1348C73.569 27.5012 72.2627 29.6706 70.2204 31.1765C68.1781 32.6825 65.5629 33.4047 62.9371 33.188C60.8851 33.0067 58.8185 33.0067 56.7665 33.188C50.2042 33.634 43.9392 35.8404 38.7754 39.5241C33.6117 43.2078 29.7848 48.2006 27.786 53.862C25.7871 59.5233 25.7075 65.5948 27.5572 71.2973C29.407 76.9997 33.1018 82.0731 38.1674 85.8661C43.2331 89.6592 49.4385 91.999 55.9873 92.5853C62.5361 93.1715 69.1295 91.9775 74.9214 89.1563C80.7133 86.3352 85.4394 82.0157 88.4933 76.7522C91.5472 71.4887 92.7894 65.5213 92.0606 59.6158C91.8206 57.2449 92.6205 54.8835 94.2884 53.0395C95.9562 51.1955 98.3589 50.016 100.98 49.7547H101.271C107.594 48.9929 113.332 46.0201 117.252 41.4762C121.172 36.9323 122.959 31.1806 122.228 25.4589C121.498 19.7372 118.31 14.5031 113.348 10.8831C108.387 7.26301 102.05 5.54645 95.7011 6.10283V6.00422Z" fill="#273549"/>
<path d="M63.9756 74.5139V77.0261C63.9756 78.1746 63.8594 79.1555 63.627 79.969C63.3945 80.7825 63.0596 81.449 62.6221 81.9685C62.1846 82.4812 61.6616 82.8606 61.0532 83.1067C60.4448 83.3459 59.7681 83.4656 59.0229 83.4656C58.4282 83.4656 57.8745 83.3904 57.3618 83.24C56.8491 83.0828 56.3877 82.8435 55.9775 82.5222C55.5742 82.1941 55.2256 81.7771 54.9316 81.2712C54.6445 80.7654 54.4224 80.1604 54.2651 79.4563C54.1147 78.7522 54.0396 77.9421 54.0396 77.0261V74.5139C54.0396 73.3655 54.1558 72.3879 54.3882 71.5813C54.6274 70.7747 54.9658 70.115 55.4033 69.6023C55.8408 69.0896 56.3638 68.717 56.9722 68.4846C57.5806 68.2454 58.2573 68.1257 59.0024 68.1257C59.604 68.1257 60.1577 68.2009 60.6636 68.3513C61.1763 68.5017 61.6343 68.7375 62.0376 69.0588C62.4478 69.3733 62.7964 69.7834 63.0835 70.2893C63.3706 70.7883 63.5894 71.3899 63.7397 72.094C63.897 72.7913 63.9756 73.5979 63.9756 74.5139ZM61.2686 77.3953V74.1345C61.2686 73.5603 61.2344 73.0613 61.166 72.6375C61.1045 72.2068 61.0122 71.8411 60.8892 71.5403C60.7661 71.2395 60.6123 70.9968 60.4277 70.8123C60.2432 70.6208 60.0312 70.4807 59.792 70.3918C59.5527 70.303 59.2896 70.2585 59.0024 70.2585C58.647 70.2585 58.3291 70.3303 58.0488 70.4739C57.7686 70.6106 57.5327 70.8293 57.3413 71.1301C57.1499 71.4309 57.0029 71.8308 56.9004 72.3298C56.8047 72.822 56.7568 73.4236 56.7568 74.1345V77.3953C56.7568 77.9695 56.7876 78.4719 56.8491 78.9026C56.9175 79.3333 57.0132 79.7024 57.1362 80.01C57.2661 80.3176 57.4199 80.5706 57.5977 80.7688C57.7822 80.9602 57.9941 81.1038 58.2334 81.1995C58.4727 81.2883 58.7358 81.3328 59.0229 81.3328C59.3853 81.3328 59.7031 81.261 59.9766 81.1174C60.2568 80.9739 60.4927 80.7483 60.6841 80.4407C60.8755 80.1262 61.019 79.7195 61.1147 79.2205C61.2173 78.7146 61.2686 78.1062 61.2686 77.3953ZM76.4546 77.8157V79.9485H65.6982L65.5854 78.3079L71.9121 68.3308H74.0757L71.7378 72.2991L68.3438 77.8157H76.4546ZM74.6807 68.3308V83.2605H71.9634V68.3308H74.6807Z" fill="white"/>
<path d="M48.1658 48.5078C48.1061 47.9496 47.8547 47.5149 47.4115 47.2038C46.9726 46.8928 46.4016 46.7372 45.6985 46.7372C45.2041 46.7372 44.7801 46.8118 44.4264 46.9609C44.0728 47.1101 43.8022 47.3125 43.6147 47.5682C43.4272 47.8239 43.3313 48.1158 43.327 48.4439C43.327 48.7166 43.3888 48.9531 43.5124 49.1534C43.6402 49.3537 43.8128 49.5241 44.0301 49.6648C44.2475 49.8011 44.4882 49.9162 44.7524 50.0099C45.0166 50.1037 45.283 50.1825 45.5514 50.2464L46.7787 50.5533C47.273 50.6683 47.7482 50.8239 48.2041 51.0199C48.6644 51.2159 49.0756 51.4631 49.4378 51.7614C49.8043 52.0597 50.0941 52.4197 50.3071 52.8416C50.5202 53.2635 50.6267 53.7578 50.6267 54.3246C50.6267 55.0916 50.4307 55.767 50.0387 56.3509C49.6466 56.9304 49.0799 57.3842 48.3384 57.7124C47.6012 58.0362 46.7084 58.1982 45.6601 58.1982C44.6416 58.1982 43.7574 58.0405 43.0074 57.7251C42.2617 57.4098 41.6779 56.9496 41.256 56.3445C40.8384 55.7393 40.6125 55.0021 40.5784 54.1328H42.9115C42.9456 54.5888 43.0862 54.968 43.3334 55.2706C43.5806 55.5732 43.9023 55.799 44.2986 55.9482C44.6992 56.0973 45.1466 56.1719 45.6409 56.1719C46.1566 56.1719 46.6083 56.0952 46.996 55.9418C47.3881 55.7841 47.6949 55.5668 47.9165 55.2898C48.1381 55.0085 48.251 54.6804 48.2553 54.3054C48.251 53.9645 48.1509 53.6832 47.9549 53.4616C47.7588 53.2358 47.484 53.0483 47.1303 52.8991C46.7809 52.7457 46.3718 52.6094 45.903 52.4901L44.4137 52.1065C43.3355 51.8295 42.4833 51.4098 41.8568 50.8473C41.2347 50.2805 40.9236 49.5284 40.9236 48.5909C40.9236 47.8196 41.1324 47.1442 41.55 46.5646C41.9719 45.9851 42.5451 45.5355 43.2695 45.2159C43.9939 44.892 44.8142 44.7301 45.7304 44.7301C46.6594 44.7301 47.4733 44.892 48.1722 45.2159C48.8753 45.5355 49.4272 45.9808 49.8277 46.5518C50.2283 47.1186 50.435 47.7706 50.4478 48.5078H48.1658ZM52.1656 46.897V44.9091H62.6102V46.897H58.5641V58H56.2118V46.897H52.1656ZM64.6237 58V44.9091H73.1379V46.897H66.9952V50.451H72.6969V52.4389H66.9952V56.0121H73.1891V58H64.6237ZM75.5573 58V44.9091H80.4664C81.4721 44.9091 82.3158 45.0966 82.9976 45.4716C83.6837 45.8466 84.2015 46.3622 84.5509 47.0185C84.9046 47.6705 85.0815 48.4119 85.0815 49.2429C85.0815 50.0824 84.9046 50.8281 84.5509 51.4801C84.1972 52.1321 83.6752 52.6456 82.9849 53.0206C82.2945 53.3913 81.4444 53.5767 80.4344 53.5767H77.1809V51.6271H80.1148C80.7029 51.6271 81.1844 51.5249 81.5594 51.3203C81.9344 51.1158 82.2114 50.8345 82.3904 50.4766C82.5736 50.1186 82.6653 49.7074 82.6653 49.2429C82.6653 48.7784 82.5736 48.3693 82.3904 48.0156C82.2114 47.6619 81.9323 47.3871 81.553 47.1911C81.178 46.9908 80.6944 46.8906 80.1021 46.8906H77.9288V58H75.5573Z" fill="white"/>
<path d="M97.9108 44.0769C107.567 44.0769 115.395 37.2105 115.395 28.7404C115.395 20.2702 107.567 13.4038 97.9108 13.4038C88.2546 13.4038 80.4268 20.2702 80.4268 28.7404C80.4268 37.2105 88.2546 44.0769 97.9108 44.0769Z" fill="white"/>
<path d="M141 40.624V41.98H137.508V44.128H140.184V45.46H137.508V49H135.828V40.624H141ZM143.871 40.624V49H142.191V40.624H143.871ZM147.211 47.668H149.971V49H145.531V40.624H147.211V47.668ZM152.719 47.668H155.479V49H151.039V40.624H152.719V47.668ZM161.086 40.624V49H159.406V40.624H161.086ZM169.91 49H168.23L164.426 43.252V49H162.746V40.612H164.426L168.23 46.372V40.612H169.91V49ZM180.13 40.624V41.98H177.898V49H176.218V41.98H173.986V40.624H180.13ZM188.303 40.624V49H186.623V45.436H183.035V49H181.355V40.624H183.035V44.068H186.623V40.624H188.303ZM191.637 41.98V44.08H194.457V45.412H191.637V47.632H194.817V49H189.957V40.612H194.817V41.98H191.637ZM204.375 40.624V41.98H200.883V44.128H203.559V45.46H200.883V49H199.203V40.624H204.375ZM209.454 49.084C208.67 49.084 207.95 48.9 207.294 48.532C206.638 48.164 206.118 47.656 205.734 47.008C205.35 46.352 205.158 45.612 205.158 44.788C205.158 43.972 205.35 43.24 205.734 42.592C206.118 41.936 206.638 41.424 207.294 41.056C207.95 40.688 208.67 40.504 209.454 40.504C210.246 40.504 210.966 40.688 211.614 41.056C212.27 41.424 212.786 41.936 213.162 42.592C213.546 43.24 213.738 43.972 213.738 44.788C213.738 45.612 213.546 46.352 213.162 47.008C212.786 47.656 212.27 48.164 211.614 48.532C210.958 48.9 210.238 49.084 209.454 49.084ZM209.454 47.584C209.958 47.584 210.402 47.472 210.786 47.248C211.17 47.016 211.47 46.688 211.686 46.264C211.902 45.84 212.01 45.348 212.01 44.788C212.01 44.228 211.902 43.74 211.686 43.324C211.47 42.9 211.17 42.576 210.786 42.352C210.402 42.128 209.958 42.016 209.454 42.016C208.95 42.016 208.502 42.128 208.11 42.352C207.726 42.576 207.426 42.9 207.21 43.324C206.994 43.74 206.886 44.228 206.886 44.788C206.886 45.348 206.994 45.84 207.21 46.264C207.426 46.688 207.726 47.016 208.11 47.248C208.502 47.472 208.95 47.584 209.454 47.584ZM219.308 49L217.46 45.736H216.668V49H214.988V40.624H218.132C218.78 40.624 219.332 40.74 219.788 40.972C220.244 41.196 220.584 41.504 220.808 41.896C221.04 42.28 221.156 42.712 221.156 43.192C221.156 43.744 220.996 44.244 220.676 44.692C220.356 45.132 219.88 45.436 219.248 45.604L221.252 49H219.308ZM216.668 44.476H218.072C218.528 44.476 218.868 44.368 219.092 44.152C219.316 43.928 219.428 43.62 219.428 43.228C219.428 42.844 219.316 42.548 219.092 42.34C218.868 42.124 218.528 42.016 218.072 42.016H216.668V44.476ZM231.808 40.624V49H230.128V43.552L227.884 49H226.612L224.356 43.552V49H222.676V40.624H224.584L227.248 46.852L229.912 40.624H231.808ZM236.361 49.084C235.777 49.084 235.249 48.984 234.777 48.784C234.313 48.584 233.945 48.296 233.673 47.92C233.401 47.544 233.261 47.1 233.253 46.588H235.053C235.077 46.932 235.197 47.204 235.413 47.404C235.637 47.604 235.941 47.704 236.325 47.704C236.717 47.704 237.025 47.612 237.249 47.428C237.473 47.236 237.585 46.988 237.585 46.684C237.585 46.436 237.509 46.232 237.357 46.072C237.205 45.912 237.013 45.788 236.781 45.7C236.557 45.604 236.245 45.5 235.845 45.388C235.301 45.228 234.857 45.072 234.513 44.92C234.177 44.76 233.885 44.524 233.637 44.212C233.397 43.892 233.277 43.468 233.277 42.94C233.277 42.444 233.401 42.012 233.649 41.644C233.897 41.276 234.245 40.996 234.693 40.804C235.141 40.604 235.653 40.504 236.229 40.504C237.093 40.504 237.793 40.716 238.329 41.14C238.873 41.556 239.173 42.14 239.229 42.892H237.381C237.365 42.604 237.241 42.368 237.009 42.184C236.785 41.992 236.485 41.896 236.109 41.896C235.781 41.896 235.517 41.98 235.317 42.148C235.125 42.316 235.029 42.56 235.029 42.88C235.029 43.104 235.101 43.292 235.245 43.444C235.397 43.588 235.581 43.708 235.797 43.804C236.021 43.892 236.333 43.996 236.733 44.116C237.277 44.276 237.721 44.436 238.065 44.596C238.409 44.756 238.705 44.996 238.953 45.316C239.201 45.636 239.325 46.056 239.325 46.576C239.325 47.024 239.209 47.44 238.977 47.824C238.745 48.208 238.405 48.516 237.957 48.748C237.509 48.972 236.977 49.084 236.361 49.084ZM247.961 49L246.113 45.736H245.321V49H243.641V40.624H246.785C247.433 40.624 247.985 40.74 248.441 40.972C248.897 41.196 249.237 41.504 249.461 41.896C249.693 42.28 249.809 42.712 249.809 43.192C249.809 43.744 249.649 44.244 249.329 44.692C249.009 45.132 248.533 45.436 247.901 45.604L249.905 49H247.961ZM245.321 44.476H246.725C247.181 44.476 247.521 44.368 247.745 44.152C247.969 43.928 248.081 43.62 248.081 43.228C248.081 42.844 247.969 42.548 247.745 42.34C247.521 42.124 247.181 42.016 246.725 42.016H245.321V44.476ZM253.008 41.98V44.08H255.828V45.412H253.008V47.632H256.188V49H251.328V40.612H256.188V41.98H253.008ZM263.955 50.476L262.683 48.952C262.331 49.04 261.971 49.084 261.603 49.084C260.819 49.084 260.099 48.9 259.443 48.532C258.787 48.164 258.267 47.656 257.883 47.008C257.499 46.352 257.307 45.612 257.307 44.788C257.307 43.972 257.499 43.24 257.883 42.592C258.267 41.936 258.787 41.424 259.443 41.056C260.099 40.688 260.819 40.504 261.603 40.504C262.395 40.504 263.115 40.688 263.763 41.056C264.419 41.424 264.935 41.936 265.311 42.592C265.695 43.24 265.887 43.972 265.887 44.788C265.887 45.532 265.727 46.212 265.407 46.828C265.095 47.436 264.667 47.932 264.123 48.316L266.043 50.476H263.955ZM259.035 44.788C259.035 45.348 259.143 45.84 259.359 46.264C259.575 46.688 259.875 47.016 260.259 47.248C260.651 47.472 261.099 47.584 261.603 47.584C262.107 47.584 262.551 47.472 262.935 47.248C263.319 47.016 263.619 46.688 263.835 46.264C264.051 45.84 264.159 45.348 264.159 44.788C264.159 44.228 264.051 43.74 263.835 43.324C263.619 42.9 263.319 42.576 262.935 42.352C262.551 42.128 262.107 42.016 261.603 42.016C261.099 42.016 260.651 42.128 260.259 42.352C259.875 42.576 259.575 42.9 259.359 43.324C259.143 43.74 259.035 44.228 259.035 44.788ZM268.816 40.624V45.808C268.816 46.376 268.964 46.812 269.26 47.116C269.556 47.412 269.972 47.56 270.508 47.56C271.052 47.56 271.472 47.412 271.768 47.116C272.064 46.812 272.212 46.376 272.212 45.808V40.624H273.904V45.796C273.904 46.508 273.748 47.112 273.436 47.608C273.132 48.096 272.72 48.464 272.2 48.712C271.688 48.96 271.116 49.084 270.484 49.084C269.86 49.084 269.292 48.96 268.78 48.712C268.276 48.464 267.876 48.096 267.58 47.608C267.284 47.112 267.136 46.508 267.136 45.796V40.624H268.816ZM277.207 40.624V49H275.527V40.624H277.207ZM283.187 49L281.339 45.736H280.547V49H278.867V40.624H282.011C282.659 40.624 283.211 40.74 283.667 40.972C284.123 41.196 284.463 41.504 284.687 41.896C284.919 42.28 285.035 42.712 285.035 43.192C285.035 43.744 284.875 44.244 284.555 44.692C284.235 45.132 283.759 45.436 283.127 45.604L285.131 49H283.187ZM280.547 44.476H281.951C282.407 44.476 282.747 44.368 282.971 44.152C283.195 43.928 283.307 43.62 283.307 43.228C283.307 42.844 283.195 42.548 282.971 42.34C282.747 42.124 282.407 42.016 281.951 42.016H280.547V44.476ZM288.235 41.98V44.08H291.055V45.412H288.235V47.632H291.415V49H286.555V40.612H291.415V41.98H288.235ZM295.869 40.624C296.749 40.624 297.521 40.796 298.185 41.14C298.857 41.484 299.373 41.976 299.733 42.616C300.101 43.248 300.285 43.984 300.285 44.824C300.285 45.664 300.101 46.4 299.733 47.032C299.373 47.656 298.857 48.14 298.185 48.484C297.521 48.828 296.749 49 295.869 49H292.941V40.624H295.869ZM295.809 47.572C296.689 47.572 297.369 47.332 297.849 46.852C298.329 46.372 298.569 45.696 298.569 44.824C298.569 43.952 298.329 43.272 297.849 42.784C297.369 42.288 296.689 42.04 295.809 42.04H294.621V47.572H295.809Z" fill="#10B981"/>
<path d="M92.5195 22.6875V37.3125H105.263V26.3966L105.085 26.2206L101.262 22.8456L101.062 22.6881L92.5195 22.6875ZM93.7939 23.8125H100.166V27.1875H103.989V36.1875H93.7939V23.8125ZM101.44 24.6214L103.073 26.0625H101.44V24.6208V24.6214ZM95.7055 28.3125V29.4375H102.077V28.3125H95.7055ZM95.7055 30.5625V31.6875H102.077V30.5625H95.7055ZM95.7055 32.8125V33.9375H102.077V32.8125H95.7055Z" fill="#273549"/>
<path d="M137.763 68L134.991 61.7H135.963L138.51 67.514H137.952L140.517 61.7H141.417L138.654 68H137.763ZM142.22 68V61.7H143.12V68H142.22ZM145.826 64.418H149.066V65.183H145.826V64.418ZM145.907 67.217H149.579V68H145.007V61.7H149.453V62.483H145.907V67.217ZM152.397 68L150.291 61.7H151.218L153.153 67.514H152.685L154.692 61.7H155.52L157.482 67.514H157.032L158.994 61.7H159.849L157.743 68H156.798L154.962 62.609H155.205L153.36 68H152.397ZM164.309 64.679H167.558V65.453H164.309V64.679ZM164.399 68H163.499V61.7H167.945V62.483H164.399V68ZM171.985 68.072C171.505 68.072 171.058 67.991 170.644 67.829C170.236 67.667 169.882 67.442 169.582 67.154C169.282 66.86 169.048 66.518 168.88 66.128C168.712 65.738 168.628 65.312 168.628 64.85C168.628 64.388 168.712 63.962 168.88 63.572C169.048 63.182 169.282 62.843 169.582 62.555C169.882 62.261 170.236 62.033 170.644 61.871C171.052 61.709 171.499 61.628 171.985 61.628C172.465 61.628 172.906 61.709 173.308 61.871C173.716 62.027 174.07 62.252 174.37 62.546C174.676 62.834 174.91 63.173 175.072 63.563C175.24 63.953 175.324 64.382 175.324 64.85C175.324 65.318 175.24 65.747 175.072 66.137C174.91 66.527 174.676 66.869 174.37 67.163C174.07 67.451 173.716 67.676 173.308 67.838C172.906 67.994 172.465 68.072 171.985 68.072ZM171.985 67.271C172.333 67.271 172.654 67.211 172.948 67.091C173.248 66.971 173.506 66.803 173.722 66.587C173.944 66.365 174.115 66.107 174.235 65.813C174.361 65.519 174.424 65.198 174.424 64.85C174.424 64.502 174.361 64.181 174.235 63.887C174.115 63.593 173.944 63.338 173.722 63.122C173.506 62.9 173.248 62.729 172.948 62.609C172.654 62.489 172.333 62.429 171.985 62.429C171.631 62.429 171.304 62.489 171.004 62.609C170.71 62.729 170.452 62.9 170.23 63.122C170.008 63.338 169.834 63.593 169.708 63.887C169.588 64.181 169.528 64.502 169.528 64.85C169.528 65.198 169.588 65.519 169.708 65.813C169.834 66.107 170.008 66.365 170.23 66.587C170.452 66.803 170.71 66.971 171.004 67.091C171.304 67.211 171.631 67.271 171.985 67.271ZM176.7 68V61.7H179.157C179.709 61.7 180.18 61.787 180.57 61.961C180.96 62.135 181.26 62.387 181.47 62.717C181.68 63.047 181.785 63.44 181.785 63.896C181.785 64.352 181.68 64.745 181.47 65.075C181.26 65.399 180.96 65.648 180.57 65.822C180.18 65.996 179.709 66.083 179.157 66.083H177.195L177.6 65.669V68H176.7ZM180.912 68L179.31 65.714H180.273L181.893 68H180.912ZM177.6 65.759L177.195 65.318H179.13C179.706 65.318 180.141 65.195 180.435 64.949C180.735 64.697 180.885 64.346 180.885 63.896C180.885 63.446 180.735 63.098 180.435 62.852C180.141 62.606 179.706 62.483 179.13 62.483H177.195L177.6 62.033V65.759ZM183.239 68V61.7H183.977L186.803 66.461H186.407L189.197 61.7H189.935L189.944 68H189.08L189.071 63.059H189.278L186.794 67.235H186.38L183.878 63.059H184.103V68H183.239ZM193.671 68.072C193.191 68.072 192.732 68 192.294 67.856C191.856 67.706 191.511 67.514 191.259 67.28L191.592 66.578C191.832 66.788 192.138 66.962 192.51 67.1C192.882 67.238 193.269 67.307 193.671 67.307C194.037 67.307 194.334 67.265 194.562 67.181C194.79 67.097 194.958 66.983 195.066 66.839C195.174 66.689 195.228 66.521 195.228 66.335C195.228 66.119 195.156 65.945 195.012 65.813C194.874 65.681 194.691 65.576 194.463 65.498C194.241 65.414 193.995 65.342 193.725 65.282C193.455 65.222 193.182 65.153 192.906 65.075C192.636 64.991 192.387 64.886 192.159 64.76C191.937 64.634 191.757 64.466 191.619 64.256C191.481 64.04 191.412 63.764 191.412 63.428C191.412 63.104 191.496 62.807 191.664 62.537C191.838 62.261 192.102 62.042 192.456 61.88C192.816 61.712 193.272 61.628 193.824 61.628C194.19 61.628 194.553 61.676 194.913 61.772C195.273 61.868 195.585 62.006 195.849 62.186L195.552 62.906C195.282 62.726 194.997 62.597 194.697 62.519C194.397 62.435 194.106 62.393 193.824 62.393C193.47 62.393 193.179 62.438 192.951 62.528C192.723 62.618 192.555 62.738 192.447 62.888C192.345 63.038 192.294 63.206 192.294 63.392C192.294 63.614 192.363 63.791 192.501 63.923C192.645 64.055 192.828 64.16 193.05 64.238C193.278 64.316 193.527 64.388 193.797 64.454C194.067 64.514 194.337 64.583 194.607 64.661C194.883 64.739 195.132 64.841 195.354 64.967C195.582 65.093 195.765 65.261 195.903 65.471C196.041 65.681 196.11 65.951 196.11 66.281C196.11 66.599 196.023 66.896 195.849 67.172C195.675 67.442 195.405 67.661 195.039 67.829C194.679 67.991 194.223 68.072 193.671 68.072ZM199.841 68V61.7H200.579L204.746 66.875H204.359V61.7H205.259V68H204.521L200.354 62.825H200.741V68H199.841ZM207.964 64.418H211.204V65.183H207.964V64.418ZM208.045 67.217H211.717V68H207.145V61.7H211.591V62.483H208.045V67.217ZM213.993 64.418H217.233V65.183H213.993V64.418ZM214.074 67.217H217.746V68H213.174V61.7H217.62V62.483H214.074V67.217ZM219.204 68V61.7H221.859C222.531 61.7 223.122 61.832 223.632 62.096C224.148 62.36 224.547 62.729 224.829 63.203C225.117 63.677 225.261 64.226 225.261 64.85C225.261 65.474 225.117 66.023 224.829 66.497C224.547 66.971 224.148 67.34 223.632 67.604C223.122 67.868 222.531 68 221.859 68H219.204ZM220.104 67.217H221.805C222.327 67.217 222.777 67.118 223.155 66.92C223.539 66.722 223.836 66.446 224.046 66.092C224.256 65.732 224.361 65.318 224.361 64.85C224.361 64.376 224.256 63.962 224.046 63.608C223.836 63.254 223.539 62.978 223.155 62.78C222.777 62.582 222.327 62.483 221.805 62.483H220.104V67.217ZM227.458 64.418H230.698V65.183H227.458V64.418ZM227.539 67.217H231.211V68H226.639V61.7H231.085V62.483H227.539V67.217ZM232.669 68V61.7H235.324C235.996 61.7 236.587 61.832 237.097 62.096C237.613 62.36 238.012 62.729 238.294 63.203C238.582 63.677 238.726 64.226 238.726 64.85C238.726 65.474 238.582 66.023 238.294 66.497C238.012 66.971 237.613 67.34 237.097 67.604C236.587 67.868 235.996 68 235.324 68H232.669ZM233.569 67.217H235.27C235.792 67.217 236.242 67.118 236.62 66.92C237.004 66.722 237.301 66.446 237.511 66.092C237.721 65.732 237.826 65.318 237.826 64.85C237.826 64.376 237.721 63.962 237.511 63.608C237.301 63.254 237.004 62.978 236.62 62.78C236.242 62.582 235.792 62.483 235.27 62.483H233.569V67.217Z" fill="#273549"/>
<path d="M254.185 64L250.992 66H253.387V69H254.983V66H257.378M259.773 61H248.597C248.173 61 247.767 61.1054 247.468 61.2929C247.168 61.4804 247 61.7348 247 62V68C247 68.2652 247.168 68.5196 247.468 68.7071C247.767 68.8946 248.173 69 248.597 69H251.79V68H248.597V63H259.773V68H256.58V69H259.773C260.197 69 260.603 68.8946 260.902 68.7071C261.202 68.5196 261.37 68.2652 261.37 68V62C261.37 61.7348 261.202 61.4804 260.902 61.2929C260.603 61.1054 260.197 61 259.773 61Z" fill="#273549"/>
<defs>
<filter id="filter0_d_622_512" x="38.8633" y="0.807861" width="347.137" height="125.673" filterUnits="userSpaceOnUse" color-interpolation-filters="sRGB">
<feFlood flood-opacity="0" result="BackgroundImageFix"/>
<feColorMatrix in="SourceAlpha" type="matrix" values="0 0 0 0 0 0 0 0 0 0 0 0 0 0 0 0 0 0 127 0" result="hardAlpha"/>
<feOffset/>
<feGaussianBlur stdDeviation="10"/>
<feColorMatrix type="matrix" values="0 0 0 0 0 0 0 0 0 0 0 0 0 0 0 0 0 0 0.1 0"/>
<feBlend mode="normal" in2="BackgroundImageFix" result="effect1_dropShadow_622_512"/>
<feBlend mode="normal" in="SourceGraphic" in2="effect1_dropShadow_622_512" result="shape"/>
</filter>
<radialGradient id="paint0_radial_622_512" cx="0" cy="0" r="1" gradientUnits="userSpaceOnUse" gradientTransform="translate(5793.83 4585.02) scale(1347.62 1202.64)">
<stop/>
<stop offset="1" stop-color="white"/>
</radialGradient>
</defs>
</svg>
