<svg width="98" height="87" viewBox="0 0 98 87" fill="none" xmlns="http://www.w3.org/2000/svg">
<path id="Vector" d="M70.2238 0.00422015C64.7374 0.482171 59.5891 2.60237 55.606 6.02422C51.623 9.44606 49.0364 13.9709 48.2618 18.8718C48.2618 18.954 48.2618 19.0526 48.2618 19.1348C47.9707 21.5012 46.6573 23.6706 44.6039 25.1765C42.5504 26.6825 39.921 27.4047 37.2808 27.188C35.2176 27.0067 33.1396 27.0067 31.0765 27.188C24.4783 27.634 18.179 29.8404 12.9871 33.5241C7.7951 37.2078 3.94735 42.2006 1.93758 47.862C-0.072187 53.5233 -0.152281 59.5948 1.70758 65.2973C3.56745 70.9997 7.28242 76.0731 12.3757 79.8661C17.4691 83.6592 23.7084 85.999 30.2929 86.5853C36.8775 87.1715 43.507 85.9775 49.3305 83.1563C55.1541 80.3352 59.9061 76.0157 62.9766 70.7522C66.0472 65.4887 67.2962 59.5213 66.5635 53.6158C66.3221 51.2449 67.1264 48.8835 68.8034 47.0395C70.4803 45.1955 72.8961 44.016 75.5313 43.7547H75.8241C82.1814 42.9929 87.9514 40.0201 91.8924 35.4762C95.8334 30.9323 97.6302 25.1806 96.8962 19.4589C96.1621 13.7372 92.9558 8.50313 87.9675 4.88307C82.9791 1.26301 76.6074 -0.45355 70.2238 0.102833V0.00422015Z" fill="#273549"/>
</svg>
